<svg id="Layer_1" data-name="Layer 1" xmlns="http://www.w3.org/2000/svg" viewBox="0 0 1417 852"><defs><style>.cls-1{fill:#fff;}.cls-2{opacity:0.1;}.cls-3{fill:#ea6001;}</style></defs><title>Untitled-1</title><rect class="cls-1" width="1417" height="852"/><g class="cls-2"><circle class="cls-3" cx="785.74" cy="761.68" r="2.06"/><circle class="cls-3" cx="776.81" cy="761.68" r="2.06"/><circle class="cls-3" cx="767.89" cy="761.68" r="2.06"/><path class="cls-3" d="M748.3,751.71h-4.89a16.7,16.7,0,0,0-7.3,2.45,35.54,35.54,0,0,0,.53-5.45,4.08,4.08,0,0,0,0-.55c0-.12,0-.25,0-.37v-9.43h-.06a14.22,14.22,0,0,0-2.94.52v9.68a27.94,27.94,0,0,1-1.46,8.67l-2.36,5.85,4.74-4.17s4.57-4,8.92-4.19h15.21a7.11,7.11,0,0,0,5.31-2.37H752A11.34,11.34,0,0,1,748.3,751.71Z" transform="translate(12 22)"/><path class="cls-3" d="M788.73,754.92c-2.08-5.31-2.11-12.76-2.11-12.84V725.39a9.36,9.36,0,0,0-9.35-9.36h-3.12v3h3.12a6.37,6.37,0,0,1,6.36,6.36V741c0,.18,0,.38,0,.56a5,5,0,0,0,0,.74,51.09,51.09,0,0,0,1,9.27c-2.83-1.86-7-4-11.26-4.21H752a6.37,6.37,0,0,1-6.36-6.36v-2.62h-3V741a9.37,9.37,0,0,0,9.35,9.36h21.33c6.44.33,13,6.18,13,6.24l4.73,4.29Z" transform="translate(12 22)"/><path class="cls-3" d="M761.5,696.85H732a10.67,10.67,0,0,0-10.66,10.66V727c0,.09,0,8.81-2.47,15.06l-2.34,6,4.74-4.32c.07-.06,7.71-6.94,15.26-7.34h25a10.67,10.67,0,0,0,10.66-10.66V707.51A10.67,10.67,0,0,0,761.5,696.85Zm7.67,28.85a7.68,7.68,0,0,1-7.67,7.66h-25c-5.17.27-10.16,3-13.42,5.21a58.76,58.76,0,0,0,1.31-11.36,5.36,5.36,0,0,0,0-.85c0-.21,0-.45,0-.66V707.51a7.67,7.67,0,0,1,7.67-7.66h29.5a7.68,7.68,0,0,1,7.67,7.66Z" transform="translate(12 22)"/><circle class="cls-3" cx="748.61" cy="745.01" r="2.4"/><circle class="cls-3" cx="759.02" cy="745.01" r="2.4"/><circle class="cls-3" cx="769.44" cy="745.01" r="2.4"/><circle class="cls-3" cx="1035.06" cy="750.55" r="2.93"/><circle class="cls-3" cx="1022.33" cy="750.55" r="2.93"/><circle class="cls-3" cx="1009.6" cy="750.55" r="2.94"/><path class="cls-3" d="M986.78,745.7h-7a23.76,23.76,0,0,0-10.41,3.49,51.82,51.82,0,0,0,.75-7.76c0-.26,0-.52,0-.79s0-.36,0-.52V726.67h-.08a20.63,20.63,0,0,0-4.2.74v13.8c0,.07,0,7.26-2.08,12.34l-3.36,8.35L967.2,756c.06-.05,6.5-5.67,12.71-6h21.69a10.16,10.16,0,0,0,7.56-3.38H992A16.11,16.11,0,0,1,986.78,745.7Z" transform="translate(12 22)"/><path class="cls-3" d="M1044.42,750.29c-3-7.58-3-18.2-3-18.3v-23.8a13.34,13.34,0,0,0-13.34-13.34h-4.44v4.28h4.44a9.07,9.07,0,0,1,9.06,9.06v22.22c0,.25,0,.54,0,.8a8,8,0,0,0,0,1,73.9,73.9,0,0,0,1.45,13.22c-4-2.64-9.92-5.69-16-6H992a9.07,9.07,0,0,1-9.06-9.06v-3.74H978.7v3.74A13.35,13.35,0,0,0,992,743.75h30.41c9.17.48,18.46,8.82,18.55,8.9l6.75,6.12Z" transform="translate(12 22)"/><path class="cls-3" d="M1005.6,667.49H963.54a15.22,15.22,0,0,0-15.21,15.21v27.76c0,.12,0,12.55-3.52,21.48l-3.33,8.5,6.76-6.15c.11-.1,11-9.9,21.76-10.47h35.6a15.21,15.21,0,0,0,15.2-15.2V682.7A15.22,15.22,0,0,0,1005.6,667.49Zm10.93,41.13a11,11,0,0,1-10.93,10.93H969.88c-7.37.39-14.48,4.25-19.14,7.43a83.07,83.07,0,0,0,1.86-16.21,7.53,7.53,0,0,0,0-1.21c0-.3,0-.65,0-.94V682.7a11,11,0,0,1,10.93-10.94h42.05a11,11,0,0,1,10.93,10.94Z" transform="translate(12 22)"/><circle class="cls-3" cx="982.12" cy="726.79" r="3.42"/><circle class="cls-3" cx="996.97" cy="726.79" r="3.42"/><circle class="cls-3" cx="1011.81" cy="726.79" r="3.42"/><circle class="cls-3" cx="1198.96" cy="675.18" r="1.61"/><circle class="cls-3" cx="1191.96" cy="675.18" r="1.61"/><circle class="cls-3" cx="1184.96" cy="675.18" r="1.61"/><path class="cls-3" d="M1167,662.61h-3.83a13.16,13.16,0,0,0-5.73,1.92,27.65,27.65,0,0,0,.42-4.27,2.94,2.94,0,0,0,0-.44c0-.1,0-.2,0-.29v-7.4h0a11,11,0,0,0-2.3.41v7.59a21.91,21.91,0,0,1-1.15,6.79l-1.85,4.59,3.72-3.28s3.58-3.11,7-3.28h11.93a5.59,5.59,0,0,0,4.16-1.86h-9.42A8.8,8.8,0,0,1,1167,662.61Z" transform="translate(12 22)"/><path class="cls-3" d="M1198.71,665.13c-1.63-4.16-1.65-10-1.65-10.07V642a7.34,7.34,0,0,0-7.33-7.33h-2.44V637h2.44a5,5,0,0,1,5,5V654.2c0,.14,0,.3,0,.44a4.07,4.07,0,0,0,0,.58,40,40,0,0,0,.79,7.27,18.69,18.69,0,0,0-8.83-3.3H1169.9a5,5,0,0,1-5-5v-2.06h-2.35v2.06a7.35,7.35,0,0,0,7.34,7.34h16.72c5.05.26,10.16,4.84,10.21,4.89l3.71,3.37Z" transform="translate(12 22)"/><path class="cls-3" d="M1177.35,619.6h-23.13a8.37,8.37,0,0,0-8.36,8.36v15.27c0,.07,0,6.91-1.94,11.81l-1.83,4.68,3.72-3.38c.06-.06,6-5.45,12-5.76h19.58a8.37,8.37,0,0,0,8.36-8.36V628A8.37,8.37,0,0,0,1177.35,619.6Zm6,22.62a6,6,0,0,1-6,6h-19.64c-4.06.21-8,2.34-10.53,4.08a45.93,45.93,0,0,0,1-8.91,4.08,4.08,0,0,0,0-.66c0-.17,0-.35,0-.52V628a6,6,0,0,1,6-6h23.13a6,6,0,0,1,6,6Z" transform="translate(12 22)"/><circle class="cls-3" cx="1169.84" cy="662.11" r="1.88"/><circle class="cls-3" cx="1178.01" cy="662.11" r="1.88"/><circle class="cls-3" cx="1186.17" cy="662.11" r="1.88"/><path class="cls-3" d="M513.81,433.31a2.66,2.66,0,1,0-2.66,2.66A2.66,2.66,0,0,0,513.81,433.31Z" transform="translate(12 22)"/><circle class="cls-3" cx="511.61" cy="455.31" r="2.66"/><circle class="cls-3" cx="500.07" cy="455.31" r="2.66"/><path class="cls-3" d="M478.26,448.86h-6.32A21.62,21.62,0,0,0,462.5,452a45.5,45.5,0,0,0,.68-7,5,5,0,0,0,0-.72c0-.16,0-.33,0-.48V431.6h-.07a18.07,18.07,0,0,0-3.8.67v12.51c0,.07,0,6.59-1.89,11.2l-3,7.57,6.13-5.39c.06-.05,5.9-5.14,11.53-5.42H491.7a9.19,9.19,0,0,0,6.86-3.06H483A14.63,14.63,0,0,1,478.26,448.86Z" transform="translate(12 22)"/><path class="cls-3" d="M530.52,453c-2.68-6.87-2.72-16.49-2.72-16.59V414.85a12.1,12.1,0,0,0-12.09-12.09h-4v3.87h4a8.23,8.23,0,0,1,8.22,8.22V435c0,.23,0,.49,0,.73a7.66,7.66,0,0,0,0,1,66.71,66.71,0,0,0,1.31,12c-3.66-2.4-9-5.16-14.55-5.44H483a8.23,8.23,0,0,1-8.21-8.22V431.6h-3.88V435A12.11,12.11,0,0,0,483,447.09h27.57c8.32.43,16.74,8,16.83,8.07l6.12,5.55Z" transform="translate(12 22)"/><path class="cls-3" d="M495.32,378H457.19a13.8,13.8,0,0,0-13.78,13.78v25.17c0,.11,0,11.38-3.2,19.47l-3,7.72,6.13-5.58c.09-.09,10-9,19.72-9.49h32.27a13.8,13.8,0,0,0,13.78-13.78v-23.5A13.8,13.8,0,0,0,495.32,378Zm9.91,37.29a9.92,9.92,0,0,1-9.91,9.91H462.94c-6.68.35-13.14,3.86-17.35,6.73a75.9,75.9,0,0,0,1.69-14.69,7.36,7.36,0,0,0,0-1.1c0-.28,0-.59,0-.86v-23.5a9.92,9.92,0,0,1,9.91-9.91h38.12a9.93,9.93,0,0,1,9.91,9.91Z" transform="translate(12 22)"/><circle class="cls-3" cx="475.15" cy="433.77" r="3.1"/><circle class="cls-3" cx="488.62" cy="433.77" r="3.1"/><circle class="cls-3" cx="502.08" cy="433.77" r="3.1"/><path class="cls-3" d="M1299.7,467h-28.79a11.92,11.92,0,0,1,1.77,6.25v11.53h20.91c9.59.5,18.9,9,18.9,9-3-7.65-3-18.13-3-18.13a9.93,9.93,0,0,1,0-1.49V453.07a10.64,10.64,0,0,0-10.64-10.64h-34.26a10.64,10.64,0,0,0-10.65,10.64v8.2h6.72a12,12,0,0,1,8,3.12h31Zm0,8.56h-16.49v-2.66h16.49Zm-33-17.12v-2.66h33v2.66Z" transform="translate(12 22)"/><path class="cls-3" d="M1267.71,467a9.44,9.44,0,0,0-1-1v1Z" transform="translate(12 22)"/><path class="cls-3" d="M1267.71,467h-1v-1a9.39,9.39,0,0,0-6.07-2.22h-24.13a9.45,9.45,0,0,0-9.44,9.44v15.93c0,.07,0,7.09-2,12.07l-3,7.69,6.12-5.55c.06-.06,6.15-5.52,12-5.82h20.43a9.45,9.45,0,0,0,9.44-9.44V473.29A9.39,9.39,0,0,0,1267.71,467Zm-1.5,21.13a5.56,5.56,0,0,1-5.56,5.56h-20.53a22,22,0,0,0-9.91,3.46,50,50,0,0,0,.75-7.76,5.68,5.68,0,0,0,0-.75c0-.17,0-.36,0-.52V473.29a5.57,5.57,0,0,1,5.56-5.56h24.13a5.57,5.57,0,0,1,5.56,5.56Z" transform="translate(12 22)"/><rect class="cls-3" x="1248.69" y="495.63" width="24.63" height="1.98"/><rect class="cls-3" x="1248.69" y="502.02" width="24.63" height="1.98"/><rect class="cls-3" x="1248.69" y="508.41" width="12.31" height="1.98"/><path class="cls-3" d="M1071,203.35H997.74a28.28,28.28,0,0,1,4.51,15.27V246.8h53.19c24.39,1.23,48.08,21.94,48.08,21.94-7.62-18.69-7.62-44.29-7.62-44.29-.15.45,0-2,0-3.65V169.21c0-14.35-12.12-26-27.08-26H981.65c-15,0-27.08,11.64-27.08,26v20h17.09a31.17,31.17,0,0,1,20.48,7.61H1071Zm0,20.9h-42v-6.49h42Zm-83.92-41.81V176H1071v6.49Z" transform="translate(12 22)"/><path class="cls-3" d="M989.6,203.35a24.21,24.21,0,0,0-2.51-2.37v2.37Z" transform="translate(12 22)"/><path class="cls-3" d="M989.6,203.35h-2.51V201a24.51,24.51,0,0,0-15.44-5.42H910.24c-13.25,0-24,10.34-24,23.06V255c0,.1,0,.22,0,.32v2.24c0,.17-.08,17.33-5,29.48l-7.66,18.79,15.58-13.56c.16-.13,15.65-13.47,30.55-14.22h52c13.24,0,24-10.35,24-23.05V218.62A22.42,22.42,0,0,0,989.6,203.35ZM985.8,255c0,7.48-6.34,13.57-14.14,13.57H919.4C910,269,901,273,894.18,277a117.89,117.89,0,0,0,1.91-18.95,12.65,12.65,0,0,0,0-1.83c0-.41,0-.87,0-1.26V218.62c0-7.49,6.35-13.58,14.15-13.58h61.42c7.8,0,14.14,6.09,14.14,13.58Z" transform="translate(12 22)"/><rect class="cls-3" x="922.67" y="241.44" width="62.65" height="4.84"/><rect class="cls-3" x="922.67" y="257.05" width="62.65" height="4.84"/><rect class="cls-3" x="922.67" y="272.66" width="31.32" height="4.84"/><path class="cls-3" d="M1172.84,73.28H1158a6.17,6.17,0,0,1,.91,3.22v5.95h10.78c4.94.25,9.74,4.63,9.74,4.63a30.57,30.57,0,0,1-1.54-9.34,4.62,4.62,0,0,1,0-.77V66.08a5.48,5.48,0,0,0-5.49-5.49h-17.66a5.49,5.49,0,0,0-5.49,5.49v4.23h3.46a6.18,6.18,0,0,1,4.15,1.61h16Zm0,4.41h-8.5V76.32h8.5Zm-17-8.82V67.5h17v1.37Z" transform="translate(12 22)"/><path class="cls-3" d="M1156.36,73.28a5.56,5.56,0,0,0-.51-.5v.5Z" transform="translate(12 22)"/><path class="cls-3" d="M1156.36,73.28h-.51v-.5a4.84,4.84,0,0,0-3.13-1.14h-12.44a4.87,4.87,0,0,0-4.87,4.86v8.21a20.64,20.64,0,0,1-1,6.22l-1.55,4L1136,92s3.17-2.84,6.19-3h10.53a4.87,4.87,0,0,0,4.87-4.86V76.5A4.83,4.83,0,0,0,1156.36,73.28Zm-.77,10.89a2.87,2.87,0,0,1-2.87,2.87h-10.58a11.34,11.34,0,0,0-5.11,1.79,26.49,26.49,0,0,0,.39-4,2.85,2.85,0,0,0,0-.38c0-.09,0-.19,0-.27V76.5a2.87,2.87,0,0,1,2.87-2.87h12.44a2.87,2.87,0,0,1,2.87,2.87Z" transform="translate(12 22)"/><rect class="cls-3" x="1152.37" y="98.67" width="12.69" height="1.03"/><rect class="cls-3" x="1152.37" y="101.97" width="12.69" height="1.02"/><rect class="cls-3" x="1152.37" y="105.26" width="6.34" height="1.02"/><path class="cls-3" d="M1108.93,699.12h-20.11a8.35,8.35,0,0,1,1.24,4.37v8.06h14.6c6.7.35,13.2,6.28,13.2,6.28-2.09-5.34-2.09-12.66-2.09-12.66a7,7,0,0,1,0-1V689.36a7.43,7.43,0,0,0-7.43-7.43H1084.4a7.43,7.43,0,0,0-7.43,7.43v5.73h4.69a8.36,8.36,0,0,1,5.62,2.17h21.65Zm0,6h-11.52v-1.86h11.52Zm-23-12v-1.86h23v1.86Z" transform="translate(12 22)"/><path class="cls-3" d="M1086.58,699.12a7.09,7.09,0,0,0-.69-.68v.68Z" transform="translate(12 22)"/><path class="cls-3" d="M1086.58,699.12h-.69v-.68a6.58,6.58,0,0,0-4.24-1.55H1064.8a6.6,6.6,0,0,0-6.59,6.59v11.13a28,28,0,0,1-1.38,8.43l-2.1,5.37,4.28-3.88s4.3-3.85,8.39-4.07h14.27a6.6,6.6,0,0,0,6.59-6.59v-10.4A6.57,6.57,0,0,0,1086.58,699.12Zm-1,14.76a3.88,3.88,0,0,1-3.88,3.88h-14.34a15.45,15.45,0,0,0-6.93,2.42,35.25,35.25,0,0,0,.53-5.42,3.91,3.91,0,0,0,0-.52c0-.12,0-.25,0-.36v-10.4a3.89,3.89,0,0,1,3.89-3.88h16.86a3.89,3.89,0,0,1,3.88,3.88Z" transform="translate(12 22)"/><rect class="cls-3" x="1076.91" y="725.72" width="17.2" height="1.39"/><rect class="cls-3" x="1076.91" y="730.19" width="17.2" height="1.39"/><rect class="cls-3" x="1076.91" y="734.65" width="8.6" height="1.39"/><path class="cls-3" d="M1222.5,558.28a15.15,15.15,0,0,0-9.78,3.37,8.65,8.65,0,0,0,.11,13.84,22.59,22.59,0,0,1-.9,6.18l-1,3,2.26-2.27a17.31,17.31,0,0,1,6.38-3.94,17,17,0,0,0,3,.26,16.38,16.38,0,0,0,5.48-.92c4.68-1.66,7.71-5.31,7.71-9.32C1235.69,562.87,1229.77,558.28,1222.5,558.28Zm0,19a15.5,15.5,0,0,1-2.85-.27l-.17,0-.16,0a16.26,16.26,0,0,0-5.39,2.81,29.23,29.23,0,0,0,.41-4.68v-.37l-.29-.23a7.71,7.71,0,0,1-3.24-6,7.61,7.61,0,0,1,2.89-5.74,13.64,13.64,0,0,1,8.8-3c6.45,0,11.69,3.92,11.69,8.74,0,3.36-2.63,6.46-6.71,7.9A14.82,14.82,0,0,1,1222.5,577.26Z" transform="translate(12 22)"/><path class="cls-3" d="M1241.1,574.06a5.6,5.6,0,0,0-2.11-4.24,8.44,8.44,0,0,0-2.31-1.38s0,.06,0,.08a9.32,9.32,0,0,1-1.25,4.61H1237v.62h-1.91a11.21,11.21,0,0,1-1.07,1.37h3v.62h-3.59a14.19,14.19,0,0,1-5.06,3l-.79.25a9.26,9.26,0,0,0,1.71.81,10.5,10.5,0,0,0,3.51.59,10.67,10.67,0,0,0,2-.19,12.1,12.1,0,0,1,4.62,2.81,16.05,16.05,0,0,1-.64-4.55A5.69,5.69,0,0,0,1241.1,574.06Zm-4.14,3.67h-3.83v-.61H1237Z" transform="translate(12 22)"/><rect class="cls-3" x="1228.98" y="588" width="10.22" height="0.82"/><rect class="cls-3" x="1228.98" y="590.65" width="10.22" height="0.82"/><rect class="cls-3" x="1228.98" y="593.3" width="5.11" height="0.82"/><path class="cls-3" d="M1281.56,603.36c-19.08,0-37.37,6.29-50.17,17.26-11.28,9.67-17.49,22.2-17.49,35.28,0,13.4,6.4,26,18.07,35.77-.2,7.94-1.09,21.09-4.65,31.72L1222.1,739l11.58-11.64c.16-.15,15.21-15.14,32.72-20.19a87,87,0,0,0,15.16,1.33,84,84,0,0,0,28.12-4.74c24-8.51,39.53-27.27,39.53-47.8C1349.21,626.93,1318.86,603.36,1281.56,603.36Zm0,97.41a79.06,79.06,0,0,1-14.63-1.36l-.87-.16-.84.23c-10.94,2.94-20.84,9.24-27.65,14.42a148.88,148.88,0,0,0,2.1-24l0-1.9-1.49-1.17c-10.73-8.4-16.63-19.39-16.63-30.94,0-10.81,5.26-21.27,14.81-29.45,11.42-9.79,27.89-15.42,45.17-15.42,33.08,0,60,20.12,60,44.87,0,17.23-13.5,33.16-34.42,40.57A76.55,76.55,0,0,1,1281.56,700.77Z" transform="translate(12 22)"/><path class="cls-3" d="M1377,684.31c0-8.35-4.1-16-10.85-21.75a43.56,43.56,0,0,0-11.83-7.08c0,.14,0,.27,0,.41a47.79,47.79,0,0,1-6.41,23.64h7.84v3.17H1346a56.94,56.94,0,0,1-5.51,7h15.31v3.16h-18.42a72.89,72.89,0,0,1-26,15.62c-1.33.47-2.68.9-4,1.31a46.94,46.94,0,0,0,8.75,4.16,54.06,54.06,0,0,0,18,3,56.2,56.2,0,0,0,10.31-1c12.79,3.44,23.69,14.39,23.69,14.39-2.66-7.91-3.22-17.63-3.28-23.34C1372.37,701.24,1377,693.19,1377,684.31Zm-21.24,18.82h-19.67V700h19.67Z" transform="translate(12 22)"/><rect class="cls-3" x="1265.23" y="664.96" width="52.44" height="4.22"/><rect class="cls-3" x="1265.23" y="678.57" width="52.44" height="4.22"/><rect class="cls-3" x="1265.23" y="692.18" width="26.22" height="4.22"/><path class="cls-3" d="M902.41,635.1c-7.14,0-14,2.35-18.77,6.46-4.22,3.62-6.54,8.31-6.54,13.2s2.39,9.74,6.76,13.38A43.58,43.58,0,0,1,882.12,680l-2,5.82,4.33-4.35c.06-.06,5.69-5.67,12.24-7.56a32.72,32.72,0,0,0,5.67.5,31.35,31.35,0,0,0,10.52-1.77c9-3.18,14.79-10.2,14.79-17.88C927.72,643.92,916.37,635.1,902.41,635.1Zm0,36.44a29.63,29.63,0,0,1-5.47-.51l-.32-.06-.32.09A31.3,31.3,0,0,0,886,676.45a56.32,56.32,0,0,0,.79-9v-.71l-.56-.44c-4-3.15-6.22-7.26-6.22-11.58,0-4,2-8,5.54-11a26.22,26.22,0,0,1,16.9-5.77c12.37,0,22.44,7.53,22.44,16.78,0,6.45-5.05,12.41-12.88,15.18A28.57,28.57,0,0,1,902.41,671.54Z" transform="translate(12 22)"/><path class="cls-3" d="M938.12,665.38a10.74,10.74,0,0,0-4.06-8.13,16.14,16.14,0,0,0-4.43-2.65c0,.05,0,.1,0,.15a17.91,17.91,0,0,1-2.4,8.85h2.93v1.18h-3.67a21.25,21.25,0,0,1-2.06,2.63h5.73v1.19h-6.89a27.36,27.36,0,0,1-9.71,5.84c-.5.17-1,.33-1.51.49a17.43,17.43,0,0,0,3.27,1.55,20.14,20.14,0,0,0,6.74,1.14,20.86,20.86,0,0,0,3.86-.36c4.79,1.29,8.86,5.39,8.86,5.39a30.82,30.82,0,0,1-1.23-8.73A10.93,10.93,0,0,0,938.12,665.38Zm-7.95,7h-7.36v-1.19h7.36Z" transform="translate(12 22)"/><rect class="cls-3" x="903.82" y="671.91" width="19.62" height="1.58"/><rect class="cls-3" x="903.82" y="677.01" width="19.62" height="1.58"/><rect class="cls-3" x="903.82" y="682.1" width="9.81" height="1.58"/><path class="cls-3" d="M1171.87,326.52a12.9,12.9,0,0,0-8.31,2.86,7.35,7.35,0,0,0,.1,11.77,19.35,19.35,0,0,1-.77,5.26L1162,349l1.92-1.93a14.81,14.81,0,0,1,5.42-3.34,14.53,14.53,0,0,0,2.51.22,13.87,13.87,0,0,0,4.66-.79c4-1.41,6.55-4.52,6.55-7.92C1183.08,330.43,1178.05,326.52,1171.87,326.52Zm0,16.14a13,13,0,0,1-2.42-.23l-.14,0-.14,0a13.86,13.86,0,0,0-4.58,2.39,25,25,0,0,0,.35-4v-.31l-.25-.2a6.56,6.56,0,0,1-2.76-5.13,6.47,6.47,0,0,1,2.45-4.88,11.61,11.61,0,0,1,7.48-2.55c5.48,0,9.94,3.33,9.94,7.43,0,2.86-2.24,5.5-5.7,6.72A12.63,12.63,0,0,1,1171.87,342.66Z" transform="translate(12 22)"/><path class="cls-3" d="M1187.69,339.93a4.76,4.76,0,0,0-1.8-3.6,7.25,7.25,0,0,0-2-1.17s0,0,0,.07a7.91,7.91,0,0,1-1.06,3.92h1.3v.53h-1.62a9.86,9.86,0,0,1-.91,1.17h2.53v.52h-3.05a12.09,12.09,0,0,1-4.3,2.59l-.67.22a7.76,7.76,0,0,0,1.45.69,8.94,8.94,0,0,0,3,.5,9.38,9.38,0,0,0,1.71-.16,10.23,10.23,0,0,1,3.93,2.38,13.65,13.65,0,0,1-.54-3.87A4.84,4.84,0,0,0,1187.69,339.93Zm-3.52,3.12h-3.26v-.53h3.26Z" transform="translate(12 22)"/><rect class="cls-3" x="1179.18" y="355.08" width="8.69" height="0.7"/><rect class="cls-3" x="1179.18" y="357.34" width="8.69" height="0.7"/><rect class="cls-3" x="1179.18" y="359.59" width="4.34" height="0.7"/><path class="cls-3" d="M1144.52,432.21c-6-15.31-6.08-36.75-6.08-37V347.53a26,26,0,0,0-26-26h-72.27a26,26,0,0,0-26,26v44.56a26,26,0,0,0,26,26h61c18.7,1,37.5,17.87,37.69,18L1150,446.15Zm-123.26-84.68a19,19,0,0,1,18.95-18.95h72.27a19,19,0,0,1,18.95,18.95v44.56c0,.51,0,1.1,0,1.62a12.87,12.87,0,0,0,0,2,143.51,143.51,0,0,0,3.29,28.26c-8-5.47-20.4-12.31-33.34-13h-61.18a19,19,0,0,1-18.95-18.94Z" transform="translate(12 22)"/><path class="cls-3" d="M1050.93,397.12h51.57l.1-.88c0-.17,1.68-17.08-12.11-20.29l-6.78,0h-.35l-.27.21s-2,1.54-6.38,1.54-6.35-1.52-6.36-1.53l-.27-.22h-6.9l-.23,0c-13.8,3.21-12.14,20.12-12.12,20.29Z" transform="translate(12 22)"/><path class="cls-3" d="M1076.72,371.19c7.36,0,13.34-7.91,13.34-15.32a13.34,13.34,0,0,0-26.67,0C1063.38,363.29,1069.35,371.19,1076.72,371.19Z" transform="translate(12 22)"/><path class="cls-3" d="M515.55,737a10,10,0,0,0,.13-16.06,17.58,17.58,0,0,0-11.34-3.9c-8.43,0-15.29,5.33-15.29,11.88,0,4.64,3.51,8.89,8.94,10.81a18.85,18.85,0,0,0,6.35,1.07,19.69,19.69,0,0,0,3.42-.3,20.21,20.21,0,0,1,7.38,4.55l2.65,2.66-1.19-3.56A26,26,0,0,1,515.55,737Zm-11.21,2a17.18,17.18,0,0,1-5.76-1c-4.72-1.67-7.76-5.26-7.76-9.14,0-5.58,6.06-10.11,13.53-10.11a15.78,15.78,0,0,1,10.18,3.47,8.81,8.81,0,0,1,3.34,6.64,8.91,8.91,0,0,1-3.75,7l-.34.27v.44a33.08,33.08,0,0,0,.47,5.38,18.89,18.89,0,0,0-6.21-3.24l-.19-.05-.2,0A18,18,0,0,1,504.34,739.07Z" transform="translate(12 22)"/><path class="cls-3" d="M1157.75,521c7.28-6.09,11.28-14,11.28-22.35,0-8.18-3.88-16-10.93-22.06-8-6.86-19.42-10.79-31.34-10.79-23.32,0-42.29,14.73-42.29,32.84,0,12.83,9.7,24.57,24.72,29.88a52.46,52.46,0,0,0,17.57,3,54.6,54.6,0,0,0,9.46-.83c10.88,3.15,20.3,12.5,20.4,12.6l7.34,7.36-3.29-9.86C1158.43,534.1,1157.87,525.92,1157.75,521Zm-31,5.62a47.61,47.61,0,0,1-15.94-2.68c-13-4.62-21.46-14.55-21.46-25.29,0-15.42,16.78-28,37.41-28,10.78,0,21,3.5,28.17,9.61,6,5.1,9.23,11.62,9.23,18.36,0,7.2-3.68,14-10.36,19.29l-.95.74,0,1.2a92.66,92.66,0,0,0,1.3,14.87c-4.25-3.22-10.4-7.13-17.19-8.94l-.53-.15-.55.1A49.39,49.39,0,0,1,1126.75,526.59Z" transform="translate(12 22)"/><path class="cls-3" d="M871.9,374.67a10,10,0,0,0,.13-16,17.57,17.57,0,0,0-11.32-3.89c-8.42,0-15.27,5.32-15.27,11.86,0,4.63,3.5,8.87,8.93,10.79a18.83,18.83,0,0,0,6.34,1.07,19.66,19.66,0,0,0,3.42-.3,20.17,20.17,0,0,1,7.37,4.55l2.65,2.65-1.19-3.56A26.12,26.12,0,0,1,871.9,374.67Zm-11.19,2a17.16,17.16,0,0,1-5.76-1c-4.71-1.67-7.75-5.25-7.75-9.13,0-5.57,6.06-10.1,13.51-10.1A15.78,15.78,0,0,1,870.88,360a8.79,8.79,0,0,1,3.33,6.63,8.92,8.92,0,0,1-3.74,7l-.34.27v.44a33.34,33.34,0,0,0,.47,5.37,18.77,18.77,0,0,0-6.21-3.23l-.19-.06-.2,0A17.91,17.91,0,0,1,860.71,376.7Z" transform="translate(12 22)"/><path class="cls-3" d="M1299.33,302c4-3.32,6.21-7.62,6.21-12.17a15.8,15.8,0,0,0-6-12,26.91,26.91,0,0,0-17.25-5.87c-12.83,0-23.27,8-23.27,17.88,0,7,5.34,13.38,13.6,16.27a29.1,29.1,0,0,0,9.66,1.61,30.28,30.28,0,0,0,5.21-.45c6,1.71,11.17,6.81,11.23,6.86l4,4-1.81-5.37A39,39,0,0,1,1299.33,302ZM1282.27,305a26.39,26.39,0,0,1-8.77-1.46c-7.18-2.51-11.81-7.92-11.81-13.77,0-8.39,9.23-15.23,20.58-15.23a24.19,24.19,0,0,1,15.5,5.23,13.21,13.21,0,0,1,5.08,10c0,3.92-2,7.65-5.7,10.5l-.52.41v.66a50.21,50.21,0,0,0,.71,8.1,28.78,28.78,0,0,0-9.46-4.87l-.29-.08-.3.05A27.52,27.52,0,0,1,1282.27,305Z" transform="translate(12 22)"/><path class="cls-3" d="M519.48,333.35l2.2-2s3.6-3.24,7.16-3.42h11.6a5,5,0,0,0,5-5v-8.48a5,5,0,0,0-5-5H526.68a5,5,0,0,0-5,5v9.08a23.29,23.29,0,0,1-1.15,7ZM544,323a3.58,3.58,0,0,1-3.57,3.58H528.8a13.05,13.05,0,0,0-6.3,2.43,27.59,27.59,0,0,0,.61-5.3,3.78,3.78,0,0,0,0-.39c0-.1,0-.21,0-.31v-8.48a3.58,3.58,0,0,1,3.57-3.58h13.75a3.58,3.58,0,0,1,3.57,3.58Z" transform="translate(12 22)"/><rect class="cls-3" x="539.16" y="336.89" width="13.24" height="1.07"/><rect class="cls-3" x="539.16" y="340.33" width="13.24" height="1.07"/><rect class="cls-3" x="539.16" y="343.76" width="6.62" height="1.06"/><path class="cls-3" d="M381.1,652c-3.77-9.64-3.82-23.15-3.82-23.28v-30.1a16.49,16.49,0,0,0-16.47-16.47H315.21a16.5,16.5,0,0,0-16.48,16.47v28.11a16.5,16.5,0,0,0,16.48,16.47h38.48c11.75.61,23.59,11.25,23.71,11.35l7.3,6.63Zm-77.74-53.38a11.86,11.86,0,0,1,11.85-11.85H360.8a11.87,11.87,0,0,1,11.85,11.85v28.11c0,.32,0,.69,0,1a8.42,8.42,0,0,0,0,1.3,91,91,0,0,0,2,17.59c-5.05-3.44-12.8-7.64-20.88-8.06H315.21a11.87,11.87,0,0,1-11.85-11.85Z" transform="translate(12 22)"/><rect class="cls-3" x="327.33" y="622.01" width="43.89" height="3.54"/><rect class="cls-3" x="327.33" y="633.4" width="43.89" height="3.53"/><rect class="cls-3" x="349.27" y="644.79" width="21.94" height="3.54"/><path class="cls-3" d="M934,488.31c-2.09-5.35-2.12-12.84-2.12-12.91V458.71a9.14,9.14,0,0,0-9.13-9.13H897.46a9.14,9.14,0,0,0-9.13,9.13V474.3a9.14,9.14,0,0,0,9.13,9.14h21.33c6.52.34,13.08,6.24,13.15,6.3l4,3.68Zm-43.11-29.6a6.58,6.58,0,0,1,6.57-6.57h25.28a6.58,6.58,0,0,1,6.57,6.57V474.3c0,.18,0,.39,0,.57a4.44,4.44,0,0,0,0,.72,50.46,50.46,0,0,0,1.12,9.76c-2.8-1.91-7.1-4.24-11.58-4.48h-21.4a6.58,6.58,0,0,1-6.57-6.57Z" transform="translate(12 22)"/><rect class="cls-3" x="909.53" y="481.46" width="24.33" height="1.96"/><rect class="cls-3" x="909.53" y="487.78" width="24.33" height="1.96"/><rect class="cls-3" x="921.69" y="494.1" width="12.17" height="1.96"/><path class="cls-3" d="M803.68,656.33l-6.63-.08-.95,0-.7.54a8.75,8.75,0,0,1-4.68,1,9,9,0,0,1-4.62-1h0l-.76-.61h-6.94l-.64.08c-11.27,2.62-13.09,14.56-12.48,20.52l.27,2.48h50.31l.27-2.5C816.77,670.89,815,659,803.68,656.33Zm8.77,19.22H769c-.1-3.11.28-13.27,9.52-15.51h5.53a12.77,12.77,0,0,0,6.67,1.59,12.64,12.64,0,0,0,6.66-1.59l5.64,0C812.18,662.36,812.55,672.46,812.45,675.55Z" transform="translate(12 22)"/><path class="cls-3" d="M790.73,622.68a14,14,0,0,0-14,14c0,7.47,6,15.21,14,15.21s14-7.74,14-15.21A14,14,0,0,0,790.73,622.68Zm0,25.69c-5.09,0-10.24-5.3-10.24-11.66a10.24,10.24,0,0,1,20.48,0C801,643.06,795.81,648.36,790.73,648.36Z" transform="translate(12 22)"/><path class="cls-3" d="M842.77,641.47a7.67,7.67,0,0,0,7.68-7.68V618.56a7.67,7.67,0,0,0-7.68-7.68H818a7.67,7.67,0,0,0-7.68,7.68v15.23a7.39,7.39,0,0,1,0,1.09s0,7.55-2.16,13.07c0,0,6.72-6.12,13.64-6.48Zm-25.34-20.92h23.8v1.91h-23.8Zm0,6.17h23.8v1.92h-23.8Zm0,6.16h11.9v1.93h-11.9Z" transform="translate(12 22)"/><path class="cls-3" d="M1290.46,571.42l-8.37-.1-1.2,0-.88.69s-1.92,1.3-5.91,1.3a11.46,11.46,0,0,1-5.83-1.24h0l-1-.77h-8.76l-.8.1c-14.24,3.32-16.54,18.39-15.77,25.92l.35,3.15h63.57l.34-3.17C1307,589.81,1304.7,574.74,1290.46,571.42Zm11.08,24.29h-54.89c-.13-3.94.36-16.78,12-19.6h7a18.61,18.61,0,0,0,16.84,0l7.12,0C1301.2,579,1301.67,591.8,1301.54,595.71Z" transform="translate(12 22)"/><path class="cls-3" d="M1274.1,528.89a17.75,17.75,0,0,0-17.73,17.72c0,9.43,7.61,19.22,17.72,19.22s17.72-9.79,17.72-19.22A17.74,17.74,0,0,0,1274.1,528.89Zm0,32.45c-6.42,0-12.94-6.7-12.94-14.73a12.94,12.94,0,1,1,25.88,0C1287,554.64,1280.51,561.34,1274.09,561.34Z" transform="translate(12 22)"/><path class="cls-3" d="M1339.84,552.64a9.7,9.7,0,0,0,9.7-9.7V523.68a9.71,9.71,0,0,0-9.7-9.71h-31.23a9.71,9.71,0,0,0-9.71,9.71v19.26a8.62,8.62,0,0,1,0,1.36s0,9.55-2.73,16.53c0,0,8.49-7.73,17.23-8.19Zm-32-26.45h30.07v2.42h-30.07Zm0,7.81h30.07v2.42h-30.07Zm0,7.8h15v2.42h-15Z" transform="translate(12 22)"/><ellipse class="cls-3" cx="875.44" cy="448.44" rx="2.74" ry="2.2"/><ellipse class="cls-3" cx="877.5" cy="452.88" rx="1.42" ry="1.14"/><path class="cls-3" d="M841.36,424.32h17.8a5.12,5.12,0,0,0,5.12-5.12V408.67a5.12,5.12,0,0,0-5.12-5.12h-17.8a5.12,5.12,0,0,0-5.12,5.12V419.2A5.12,5.12,0,0,0,841.36,424.32Zm14.79-11.71a1.78,1.78,0,0,1,1.78,1.77,1.78,1.78,0,1,1-3.55,0A1.78,1.78,0,0,1,856.14,412.6Zm-1.83,4.14h.95l0,0a1.44,1.44,0,0,0,.85.21,1.47,1.47,0,0,0,.85-.21l0,0H858c1.84.43,1.62,2.68,1.61,2.7v.11h-6.86v-.11S852.47,417.18,854.31,416.75Zm-7.77-8.45a2.88,2.88,0,0,1,2.87,2.87,2.88,2.88,0,1,1-5.75,0A2.88,2.88,0,0,1,846.54,408.3Zm-3,6.66h1.54l.06,0a2.41,2.41,0,0,0,1.37.33,2.44,2.44,0,0,0,1.37-.33l.06,0h1.54c3,.69,2.61,4.33,2.61,4.37l0,.19H841l0-.19S840.6,415.65,843.58,415Z" transform="translate(12 22)"/><ellipse class="cls-3" cx="1216.73" cy="468.6" rx="2.61" ry="2.1"/><ellipse class="cls-3" cx="1218.7" cy="472.83" rx="1.36" ry="1.09"/><path class="cls-3" d="M1183.64,444.57h17a4.89,4.89,0,0,0,4.89-4.89V429.63a4.89,4.89,0,0,0-4.89-4.89h-17a4.89,4.89,0,0,0-4.89,4.89v10.05A4.89,4.89,0,0,0,1183.64,444.57Zm14.12-11.19a1.7,1.7,0,0,1,1.69,1.69,1.7,1.7,0,1,1-3.39,0A1.7,1.7,0,0,1,1197.76,433.38Zm-1.75,4h.91l0,0a1.4,1.4,0,0,0,.81.19,1.46,1.46,0,0,0,.81-.19l0,0h.9c1.76.41,1.54,2.56,1.54,2.58V440h-6.56v-.11S1194.26,437.75,1196,437.34Zm-7.42-8.07a2.75,2.75,0,0,1,2.74,2.74,2.75,2.75,0,1,1-5.49,0A2.75,2.75,0,0,1,1188.6,429.27Zm-2.83,6.36h1.47l.06,0a2.86,2.86,0,0,0,2.62,0l.06,0h1.46c2.84.66,2.49,4.14,2.49,4.17l0,.18h-10.61l0-.18S1182.92,436.29,1185.76,435.63Z" transform="translate(12 22)"/><ellipse class="cls-3" cx="541.16" cy="738.92" rx="5.24" ry="4.21"/><ellipse class="cls-3" cx="545.11" cy="747.41" rx="2.73" ry="2.19"/><path class="cls-3" d="M486.85,712.84H521a9.8,9.8,0,0,0,9.81-9.81V682.87a9.8,9.8,0,0,0-9.81-9.81h-34.1a9.81,9.81,0,0,0-9.81,9.81V703A9.81,9.81,0,0,0,486.85,712.84Zm28.33-22.44a3.41,3.41,0,0,1,3.41,3.4,3.4,3.4,0,1,1-6.8,0A3.4,3.4,0,0,1,515.18,690.4Zm-3.51,7.94h1.82l.07.06a3.57,3.57,0,0,0,3.25,0l.07-.05h1.82c3.52.82,3.09,5.13,3.09,5.17l0,.22H508.6l0-.22S508.15,699.16,511.67,698.34Zm-14.88-16.19a5.52,5.52,0,0,1,5.51,5.51,5.52,5.52,0,1,1-11,0A5.51,5.51,0,0,1,496.78,682.15Zm-5.68,12.76H494l.11.09a4.63,4.63,0,0,0,2.63.63,4.58,4.58,0,0,0,2.63-.63l.11-.09h2.94c5.69,1.33,5,8.3,5,8.38l0,.36H486.14l0-.36C486.09,703.21,485.41,696.24,491.1,694.91Z" transform="translate(12 22)"/><path class="cls-3" d="M747,558.21c-2.52,0-4.58,1.65-4.58,3.69s2.06,3.69,4.58,3.69,4.6-1.65,4.6-3.69S749.57,558.21,747,558.21Z" transform="translate(12 22)"/><path class="cls-3" d="M750.49,567.42a2,2,0,1,0,2.4,1.92A2.19,2.19,0,0,0,750.49,567.42Z" transform="translate(12 22)"/><path class="cls-3" d="M710,558.33h29.88a8.59,8.59,0,0,0,8.59-8.6V532.06a8.59,8.59,0,0,0-8.59-8.59H710a8.59,8.59,0,0,0-8.59,8.59v17.67A8.59,8.59,0,0,0,710,558.33Zm24.82-19.66a3,3,0,0,1,3,3,3,3,0,1,1-6,0A3,3,0,0,1,734.78,538.67Zm-3.08,7h1.59l.06.05a2.49,2.49,0,0,0,1.42.34,2.45,2.45,0,0,0,1.43-.35l.06,0h1.59c3.08.71,2.71,4.49,2.71,4.53l0,.2H729l0-.2S728.62,546.34,731.71,545.62Zm-13-14.19a4.82,4.82,0,0,1,4.82,4.82,4.83,4.83,0,1,1-9.65,0A4.83,4.83,0,0,1,718.67,531.44Zm-5,11.18h2.58l.1.08a4,4,0,0,0,2.29.55,4.17,4.17,0,0,0,2.31-.55l.09-.08h2.58c5,1.16,4.39,7.27,4.38,7.34l0,.32H709.35l0-.32C709.3,549.88,708.7,543.78,713.69,542.62Z" transform="translate(12 22)"/><path class="cls-3" d="M935.89,528.63a20.42,20.42,0,0,1-1-6.15v-8.2a5,5,0,0,0-5-5h-2.51v2.31h2.51a2.71,2.71,0,0,1,2.7,2.71v7.92a2.83,2.83,0,0,0,0,.39,26.32,26.32,0,0,0,.33,3.69,11.4,11.4,0,0,0-4.95-1.64H917.44a2.7,2.7,0,0,1-2.57-1.9h-2.37a5,5,0,0,0,4.95,4.22H927.9c3,.16,6.11,2.93,6.14,3l3.64,3.3Z" transform="translate(12 22)"/><path class="cls-3" d="M923,497.83a6.85,6.85,0,0,1,.29,1.48,5.23,5.23,0,0,1,1,3v8.07h.77v-8.07A6,6,0,0,0,923,497.83Z" transform="translate(12 22)"/><path class="cls-3" d="M922.39,496.43a6.85,6.85,0,0,0-2.08-2.21,7.22,7.22,0,0,0-6.58-4.29h-19.5a7.22,7.22,0,0,0-7.21,7.22V510a32.65,32.65,0,0,1-1.62,9.9l-1.8,4.61,3.65-3.33a24.71,24.71,0,0,1,5-3.33,4,4,0,0,0,1,.57,4.52,4.52,0,0,0,.7,1c1.46,1.52,3.41,1.82,6.49,1.82.63,0,1.33,0,2.07,0H919a6.84,6.84,0,0,0,6.83-6.83v-12A6.83,6.83,0,0,0,922.39,496.43Zm-.58,3.47v12a5.29,5.29,0,0,1-5.29,5.29H900c-1.12,0-2,0-2.82,0h-1.12a11.94,11.94,0,0,1-1.72-.08,1.76,1.76,0,0,1-.32-.06l.27-.1a11,11,0,0,1,2.91-.59h16.51a7.31,7.31,0,0,0,6.79-4.82,7.1,7.1,0,0,0,.3-1.16,7.22,7.22,0,0,0,.11-1.15s0-.06,0-.09v-12c0-.06,0-.11,0-.17a5.36,5.36,0,0,1,.88,2.91Zm-33.26,17.42a39.5,39.5,0,0,0,.78-7.14,4,4,0,0,0,0-.57c0-.14,0-.3,0-.43v-12a4.91,4.91,0,0,1,4.9-4.9h19.5a4.91,4.91,0,0,1,4.29,2.58,4.39,4.39,0,0,1,.31.69,4.58,4.58,0,0,1,.29,1.54s0,.06,0,.1v12s0,.06,0,.09a4.85,4.85,0,0,1-.17,1.15,4.78,4.78,0,0,1-.47,1.16,4.92,4.92,0,0,1-4.25,2.51H897.16a12.8,12.8,0,0,0-2.94.53l-.77.23-.77.29-.56.24-.71.32-.69.35C889.93,516.46,889.18,516.9,888.54,517.32Zm35.74-6.91v4a5.3,5.3,0,0,1-5.29,5.29H902.47c-.75,0-1.43,0-2.05,0-2.63,0-4-.24-4.91-.94h1.7c.77,0,1.67,0,2.81,0h16.5a6.84,6.84,0,0,0,6.83-6.83v-12c0-.2,0-.4,0-.59a6.85,6.85,0,0,0-.29-1.48,6,6,0,0,1,2,4.51v8.07Z" transform="translate(12 22)"/><path class="cls-3" d="M1250.7,554.79a31.25,31.25,0,0,1-1.54-9.43V532.79a7.69,7.69,0,0,0-7.68-7.68h-3.84v3.54h3.84a4.15,4.15,0,0,1,4.14,4.15v12.14a4.52,4.52,0,0,0,0,.6,40.74,40.74,0,0,0,.51,5.66,17.44,17.44,0,0,0-7.58-2.52h-16.11a4.14,4.14,0,0,1-3.94-2.92h-3.64a7.69,7.69,0,0,0,7.58,6.46h16c4.61.24,9.36,4.48,9.4,4.53l5.58,5.06Z" transform="translate(12 22)"/><path class="cls-3" d="M1231,507.59a10.42,10.42,0,0,1,.44,2.27,8,8,0,0,1,1.48,4.65v12.36h1.18V514.51A9.27,9.27,0,0,0,1231,507.59Z" transform="translate(12 22)"/><path class="cls-3" d="M1230,505.44a10.54,10.54,0,0,0-3.19-3.38,11.07,11.07,0,0,0-10.09-6.56h-29.88a11.06,11.06,0,0,0-11.05,11.05v19.72c0,.09,0,8.88-2.49,15.16l-2.76,7.06,5.6-5.1a37.65,37.65,0,0,1,7.62-5.11,6,6,0,0,0,1.56.87,6.93,6.93,0,0,0,1.07,1.5c2.24,2.33,5.22,2.78,9.94,2.78,1,0,2,0,3.18-.06h25.29a10.48,10.48,0,0,0,10.47-10.46V514.51A10.48,10.48,0,0,0,1230,505.44Zm-.89,5.32v18.42a8.11,8.11,0,0,1-8.1,8.1h-25.28c-1.72,0-3.14,0-4.33,0l-1.72,0a19.61,19.61,0,0,1-2.64-.12,3.58,3.58,0,0,1-.49-.1l.42-.15a16.87,16.87,0,0,1,4.45-.9h25.29a10.94,10.94,0,0,0,1.56-.13,11.07,11.07,0,0,0,8.85-7.26,10.92,10.92,0,0,0,.47-1.77,11.1,11.1,0,0,0,.17-1.77s0-.09,0-.14V506.55c0-.08,0-.17,0-.26a8.52,8.52,0,0,1,.51.9A8.06,8.06,0,0,1,1229.12,510.76Zm-51,26.69a60.32,60.32,0,0,0,1.2-10.94,6,6,0,0,0,0-.88c0-.21,0-.45,0-.66V506.55a7.52,7.52,0,0,1,7.51-7.51h29.88a7.3,7.3,0,0,1,5.59,2.54,7.66,7.66,0,0,1,1,1.41,6.91,6.91,0,0,1,.47,1.05,7.34,7.34,0,0,1,.33,1.18,7.17,7.17,0,0,1,.12,1.18s0,.1,0,.14V525s0,.09,0,.14a7.54,7.54,0,0,1-.26,1.77,7.42,7.42,0,0,1-.73,1.77,7.54,7.54,0,0,1-6.51,3.84h-25.38a19.71,19.71,0,0,0-4.51.81c-.4.12-.79.23-1.18.36s-.8.29-1.19.44l-.86.36c-.37.16-.73.32-1.08.49l-1,.53C1180.27,536.13,1179.14,536.81,1178.15,537.45Zm54.77-10.58v6.06a8.11,8.11,0,0,1-8.1,8.1h-25.32c-1.15,0-2.19.05-3.14.05-4,0-6.08-.37-7.52-1.44h2.6c1.18,0,2.56,0,4.3,0H1221a10.48,10.48,0,0,0,10.46-10.46V510.76c0-.31,0-.61,0-.9a10.42,10.42,0,0,0-.44-2.27,9.27,9.27,0,0,1,3.11,6.92v12.36Z" transform="translate(12 22)"/><path class="cls-3" d="M979.53,649.47a4.18,4.18,0,0,0-2.18-8.06,5.47,5.47,0,0,0-5.46-5.4,6.15,6.15,0,0,0-4.33,1.84,6.39,6.39,0,0,0-5.21-2.53,6.11,6.11,0,0,0-2.31.44,6.6,6.6,0,0,0-3.82,3.69,6.3,6.3,0,0,0-.45,2.84,4.17,4.17,0,0,0,1.45,8.09A4.09,4.09,0,0,0,959,650l0,0a5.88,5.88,0,0,0,9.17,1.07,6.14,6.14,0,0,0,5.35.37,15.51,15.51,0,0,1,5.55,3.5l2.19,2.21-1-3A18.58,18.58,0,0,1,979.53,649.47Zm-6.37.57a4.69,4.69,0,0,1-4.59-.4l-.16-.12-.75,0-.24.28a4.43,4.43,0,0,1-7.18-.5,4.22,4.22,0,0,1-.3-.59l-.37-.85-.74.56a2.14,2.14,0,0,1-.4.24,2.64,2.64,0,0,1-1.21.29,2.72,2.72,0,0,1-.47-5.39l.89-.18-.35-.84a4.33,4.33,0,0,1,.31-2.6,5.2,5.2,0,0,1,3-2.81,5,5,0,0,1,6.16,2.27l.48,1.15.77-1a5,5,0,0,1,3.89-2.08,4,4,0,0,1,4,4,4.14,4.14,0,0,1-.11.93l-.43,1.79,1.54-1a2.71,2.71,0,0,1,4.2,2.27,2.71,2.71,0,0,1-2.39,2.69l-.66.08v.67a26.65,26.65,0,0,0,.32,3.55,14.61,14.61,0,0,0-4.7-2.45l-.25-.06Z" transform="translate(12 22)"/><path class="cls-3" d="M1298.14,754.64a10.06,10.06,0,0,0-5.26-19.42,13.17,13.17,0,0,0-13.16-13,14.83,14.83,0,0,0-10.42,4.43,15.39,15.39,0,0,0-12.55-6.09,14.66,14.66,0,0,0-5.56,1,15.93,15.93,0,0,0-9.21,8.89,15.26,15.26,0,0,0-1.07,6.84,10.06,10.06,0,0,0,3.49,19.5,9.84,9.84,0,0,0,4.23-.94l.07.12a14.18,14.18,0,0,0,22.09,2.6,14.84,14.84,0,0,0,12.89.88c7.17,2.2,13.32,8.36,13.38,8.42l5.27,5.33-2.35-7.13A45.19,45.19,0,0,1,1298.14,754.64ZM1282.81,756a11.3,11.3,0,0,1-11.06-1l-.41-.28-1.8-.1-.57.68a10.66,10.66,0,0,1-17.3-1.2,10.52,10.52,0,0,1-.74-1.42l-.88-2.05-1.79,1.34a6.76,6.76,0,0,1-1,.59,6.38,6.38,0,0,1-2.92.69,6.54,6.54,0,0,1-1.14-13l2.14-.43-.83-2a10.42,10.42,0,0,1,.76-6.25,12.45,12.45,0,0,1,7.19-6.76,11.26,11.26,0,0,1,4.24-.79c4,0,8.79,1.93,10.59,6.25l1.16,2.78,1.85-2.37c1.46-1.87,4.61-5,9.36-5a9.65,9.65,0,0,1,9.64,9.65,9.89,9.89,0,0,1-.27,2.25l-1,4.32,3.71-2.44a6.55,6.55,0,1,1,4.36,12l-1.59.19,0,1.61a63.71,63.71,0,0,0,.77,8.57,35.06,35.06,0,0,0-11.32-5.9l-.63-.17Z" transform="translate(12 22)"/><path class="cls-3" d="M553.29,211.66l-1.59,4.81,3.56-3.6s4.19-4.2,9-5.69a10,10,0,0,0,8.7-.59,9.57,9.57,0,0,0,14.92-1.75l0-.08a6.66,6.66,0,0,0,2.85.63,6.79,6.79,0,0,0,2.36-13.17,10.33,10.33,0,0,0-.73-4.62,10.77,10.77,0,0,0-6.22-6,9.92,9.92,0,0,0-3.76-.71A10.38,10.38,0,0,0,574,185a10,10,0,0,0-7-3,8.89,8.89,0,0,0-8.88,8.78,6.8,6.8,0,0,0-8.47,6.59,6.8,6.8,0,0,0,4.91,6.53A30.43,30.43,0,0,1,553.29,211.66Zm11.19-7-.42.12a23.59,23.59,0,0,0-7.65,4,42.88,42.88,0,0,0,.52-5.79l0-1.08-1.07-.13a4.42,4.42,0,1,1,2.95-8.08l2.51,1.65-.7-2.92a6.6,6.6,0,0,1-.18-1.52,6.52,6.52,0,0,1,6.51-6.51,8.19,8.19,0,0,1,6.33,3.38l1.25,1.6.78-1.87c1.22-2.92,4.47-4.23,7.15-4.23a7.63,7.63,0,0,1,2.86.54,8.41,8.41,0,0,1,4.86,4.57,7,7,0,0,1,.51,4.22l-.56,1.37,1.44.29a4.42,4.42,0,0,1-.77,8.77,4.31,4.31,0,0,1-2-.47,4.39,4.39,0,0,1-.65-.4l-1.21-.9-.59,1.39a7.23,7.23,0,0,1-6.63,4.38,7.19,7.19,0,0,1-5.54-2.61l-.38-.46-1.21.07-.28.19a7.62,7.62,0,0,1-7.47.65Z" transform="translate(12 22)"/><path class="cls-3" d="M737.08,442.83c12.39-3.41,21.24-14.38,21.24-27.11,0-13.37-9.87-25-23.46-27.67a30.75,30.75,0,0,0-13.13.28c-.25-20.16-17.39-36.48-38.42-36.48a44.1,44.1,0,0,0-30.44,12.46c-7.72-10.44-21.55-17.1-36.62-17.1A44.53,44.53,0,0,0,600,350.15c-16.27,6.34-23.61,17.06-26.89,24.93A41.34,41.34,0,0,0,570,394.27a28.26,28.26,0,0,0-19.21,26.48c0,15.57,13.18,28.24,29.39,28.24a29.81,29.81,0,0,0,12.33-2.64l.2.33A41.62,41.62,0,0,0,628,465.6,42.17,42.17,0,0,0,657.21,454a44.88,44.88,0,0,0,37.63,2.47c20.93,6.18,38.88,23.45,39.06,23.64l15.41,15-6.87-20C738.88,464.72,737.54,452.45,737.08,442.83Zm-44.75,3.89A34.12,34.12,0,0,1,660,444l-1.18-.78L653.6,443,652,444.88a31.89,31.89,0,0,1-50.51-3.37,29,29,0,0,1-2.14-4l-2.55-5.75-5.24,3.74a19.66,19.66,0,0,1-11.34,3.61c-10.54,0-19.12-8.24-19.12-18.36a18.56,18.56,0,0,1,15.8-18.08l6.24-1.19-2.44-5.67c-.6-1.39-1.51-9,2.23-17.55s10.84-15,21-19a33.93,33.93,0,0,1,12.38-2.23c11.6,0,25.66,5.43,30.93,17.55l3.38,7.79,5.41-6.66c4.25-5.25,13.45-14,27.34-14,15.51,0,28.15,12.14,28.15,27a25.84,25.84,0,0,1-.81,6.31l-3,12.13,10.85-6.86a20,20,0,0,1,14.34-2.63,18.61,18.61,0,0,1,15.26,18c0,9.3-7.24,17.13-16.85,18.23l-4.65.52.11,4.5a168.81,168.81,0,0,0,2.23,24c-8.3-6-20.08-13.14-33.06-16.56L694,446Z" transform="translate(12 22)"/><path class="cls-3" d="M878.84,506a6.14,6.14,0,0,0-.48-12,6.77,6.77,0,0,0-2.88.06,8.29,8.29,0,0,0-8.43-8,9.68,9.68,0,0,0-6.68,2.73,10,10,0,0,0-8-3.75,9.81,9.81,0,0,0-3.57.64,10,10,0,0,0-5.9,5.47,9.09,9.09,0,0,0-.69,4.21,6.21,6.21,0,0,0-4.22,5.82,6.34,6.34,0,0,0,6.45,6.2,6.47,6.47,0,0,0,2.71-.58l0,.08a9.15,9.15,0,0,0,7.74,4.15,9.27,9.27,0,0,0,6.42-2.55,9.86,9.86,0,0,0,8.26.54,24.28,24.28,0,0,1,8.58,5.19l3.38,3.28L880,513.08A26.82,26.82,0,0,1,878.84,506Zm-9.82.85a7.49,7.49,0,0,1-7.09-.59l-.26-.17-1.15-.06-.36.42a7,7,0,0,1-11.09-.74,6,6,0,0,1-.47-.87l-.56-1.26-1.15.82a4,4,0,0,1-.62.36,4.25,4.25,0,0,1-1.87.43,4.12,4.12,0,0,1-4.2-4,4.07,4.07,0,0,1,3.47-4l1.37-.26-.53-1.24a6.18,6.18,0,0,1,.49-3.85,7.87,7.87,0,0,1,4.61-4.16,7.53,7.53,0,0,1,2.72-.49c2.55,0,5.63,1.19,6.79,3.85l.74,1.71,1.19-1.46a7.83,7.83,0,0,1,6-3.08,6.07,6.07,0,0,1,6.18,5.93,5.69,5.69,0,0,1-.18,1.39l-.67,2.66,2.38-1.51a4.4,4.4,0,0,1,3.15-.58,4,4,0,0,1-.35,8l-1,.12,0,1a37.35,37.35,0,0,0,.49,5.27,22.77,22.77,0,0,0-7.26-3.63l-.39-.1Z" transform="translate(12 22)"/><path class="cls-3" d="M1315.76,400.84a18.47,18.47,0,0,0-1.46-36.15,20.34,20.34,0,0,0-8.67.19c-.16-13.3-11.47-24.07-25.35-24.07a29.08,29.08,0,0,0-20.08,8.21c-5.09-6.89-14.22-11.28-24.17-11.28a29.44,29.44,0,0,0-10.72,1.94c-10.73,4.18-15.57,11.26-17.74,16.45a27.32,27.32,0,0,0-2.07,12.66,18.64,18.64,0,0,0-12.67,17.47c0,10.27,8.7,18.63,19.39,18.63a19.67,19.67,0,0,0,8.13-1.74l.14.22a27.46,27.46,0,0,0,23.27,12.48,27.83,27.83,0,0,0,19.29-7.68,29.61,29.61,0,0,0,24.83,1.62c13.81,4.08,25.65,15.48,25.77,15.6l10.16,9.87-4.53-13.18C1317,415.28,1316.06,407.18,1315.76,400.84Zm-29.52,2.57a22.53,22.53,0,0,1-21.31-1.78l-.78-.52-3.47-.19-1.09,1.26a21,21,0,0,1-33.32-2.22,18.21,18.21,0,0,1-1.41-2.63l-1.69-3.79-3.46,2.47a12.95,12.95,0,0,1-7.48,2.38,12.39,12.39,0,0,1-12.62-12.12A12.24,12.24,0,0,1,1210,374.35l4.12-.78-1.61-3.74c-.39-.92-1-5.94,1.46-11.58s7.15-9.9,13.85-12.51a22.37,22.37,0,0,1,8.17-1.47c7.66,0,16.93,3.58,20.4,11.58l2.24,5.14,3.56-4.39c2.81-3.46,8.88-9.26,18-9.26,10.23,0,18.57,8,18.57,17.84a17.36,17.36,0,0,1-.53,4.16l-2,8,7.16-4.52a13.16,13.16,0,0,1,9.46-1.73,12.05,12.05,0,0,1-1.05,23.9l-3.06.34.07,3a111.53,111.53,0,0,0,1.47,15.86c-5.48-4-13.25-8.67-21.81-10.92l-1.19-.32Z" transform="translate(12 22)"/><path class="cls-3" d="M1019.48,570c-21,0-38.08,13.9-38.08,31s17.08,31,38.08,31,38.08-13.9,38.08-31S1040.48,570,1019.48,570Zm0,55.05c-17.18,0-31.16-10.8-31.16-24.06s14-24.07,31.16-24.07,31.16,10.8,31.16,24.07S1036.66,625.05,1019.48,625.05Z" transform="translate(12 22)"/><path class="cls-3" d="M1056.39,620a9.59,9.59,0,1,0,9.59,9.59A9.6,9.6,0,0,0,1056.39,620Zm0,14.56a5,5,0,1,1,5-5A5,5,0,0,1,1056.39,634.53Z" transform="translate(12 22)"/><path class="cls-3" d="M1070.32,633a4.46,4.46,0,1,0,4.47,4.47A4.47,4.47,0,0,0,1070.32,633Zm0,6.62a2.16,2.16,0,1,1,2.16-2.16A2.16,2.16,0,0,1,1070.32,639.58Z" transform="translate(12 22)"/><path class="cls-3" d="M1112.89,646.26l-9.13-.12-1.54,0-1.15.88c-.08,0-1.86,1.22-5.75,1.22a11.66,11.66,0,0,1-5.6-1.1h0l-1.28-1h-9.63l-1.06.13c-15.81,3.69-18.31,20.24-17.43,28.49l.46,4.17h69.08l.45-4.17C1131.2,666.5,1128.7,650,1112.89,646.26ZM1067.12,672c0-4.73,1.12-16.24,12-18.93h7.06a18.18,18.18,0,0,0,9.18,2.13,18,18,0,0,0,9.19-2.13l7.17,0c10.74,2.75,11.85,14.21,11.84,18.9Z" transform="translate(12 22)"/><path class="cls-3" d="M1095.32,599.85a19.74,19.74,0,0,0-19.72,19.72c0,10.61,8.28,21.45,19.72,21.45S1115,630.19,1115,619.57A19.74,19.74,0,0,0,1095.32,599.85Zm0,35c-6.18,0-12.8-7.22-12.8-15.24a12.8,12.8,0,1,1,25.6,0C1108.12,627.6,1101.5,634.82,1095.32,634.82Z" transform="translate(12 22)"/><circle class="cls-3" cx="1014.87" cy="630.81" r="3.77"/><circle class="cls-3" cx="1031.25" cy="630.81" r="3.77"/><circle class="cls-3" cx="1047.63" cy="630.81" r="3.77"/><path class="cls-3" d="M592.47,665.55c-13.65,0-24.75,9-24.75,20.14s11.1,20.14,24.75,20.14,24.75-9,24.75-20.14S606.12,665.55,592.47,665.55Zm0,35.78c-11.17,0-20.25-7-20.25-15.64S581.3,670,592.47,670s20.25,7,20.25,15.64S603.64,701.33,592.47,701.33Z" transform="translate(12 22)"/><path class="cls-3" d="M616.46,698a6.23,6.23,0,1,0,6.23,6.23A6.24,6.24,0,0,0,616.46,698Zm0,9.46a3.23,3.23,0,1,1,3.23-3.23A3.24,3.24,0,0,1,616.46,707.48Z" transform="translate(12 22)"/><path class="cls-3" d="M625.51,706.46a2.9,2.9,0,1,0,2.9,2.9A2.91,2.91,0,0,0,625.51,706.46Zm0,4.3a1.4,1.4,0,1,1,1.41-1.4A1.4,1.4,0,0,1,625.51,710.76Z" transform="translate(12 22)"/><path class="cls-3" d="M653.18,715.11l-5.93-.07-1,0-.75.57a7,7,0,0,1-3.73.79,7.56,7.56,0,0,1-3.64-.72h0l-.83-.67H631l-.69.08c-10.28,2.4-11.9,13.16-11.32,18.51l.29,2.71h44.9l.29-2.71C665.08,728.27,663.45,717.51,653.18,715.11Zm-29.75,16.72c0-3.08.73-10.55,7.78-12.3h4.58a13.58,13.58,0,0,0,11.94,0l4.66,0c7,1.79,7.7,9.23,7.69,12.28Z" transform="translate(12 22)"/><path class="cls-3" d="M641.76,685a12.83,12.83,0,0,0-12.82,12.81c0,6.9,5.38,13.94,12.82,13.94s12.82-7,12.82-13.94A12.83,12.83,0,0,0,641.76,685Zm0,22.72c-4,0-8.32-4.69-8.32-9.91a8.32,8.32,0,0,1,16.64,0C650.08,703,645.78,707.67,641.76,707.67Z" transform="translate(12 22)"/><circle class="cls-3" cx="593.68" cy="712.77" r="2.45"/><circle class="cls-3" cx="604.32" cy="712.77" r="2.45"/><circle class="cls-3" cx="614.97" cy="712.77" r="2.45"/><path class="cls-3" d="M868.41,689.79c-13.65,0-24.75,9-24.75,20.14s11.1,20.14,24.75,20.14,24.75-9,24.75-20.14S882.06,689.79,868.41,689.79Zm0,35.78c-11.17,0-20.25-7-20.25-15.64s9.09-15.64,20.25-15.64,20.25,7,20.25,15.64S879.58,725.57,868.41,725.57Z" transform="translate(12 22)"/><path class="cls-3" d="M892.4,722.26a6.23,6.23,0,1,0,6.23,6.23A6.24,6.24,0,0,0,892.4,722.26Zm0,9.46a3.23,3.23,0,1,1,3.23-3.23A3.24,3.24,0,0,1,892.4,731.73Z" transform="translate(12 22)"/><path class="cls-3" d="M901.46,730.7a2.9,2.9,0,1,0,2.9,2.9A2.9,2.9,0,0,0,901.46,730.7Zm0,4.3a1.4,1.4,0,1,1,1.4-1.4A1.41,1.41,0,0,1,901.46,735Z" transform="translate(12 22)"/><path class="cls-3" d="M929.12,739.35l-5.93-.08-1,0-.75.57a7.09,7.09,0,0,1-3.74.79,7.58,7.58,0,0,1-3.64-.72h0l-.83-.67H907l-.69.08c-10.28,2.39-11.9,13.15-11.33,18.51l.3,2.71h44.9l.29-2.71C941,752.51,939.4,741.75,929.12,739.35Zm-29.74,16.72c0-3.08.73-10.55,7.77-12.3h4.59a11.84,11.84,0,0,0,6,1.39,11.66,11.66,0,0,0,6-1.39l4.66,0c7,1.79,7.7,9.23,7.69,12.28Z" transform="translate(12 22)"/><path class="cls-3" d="M917.7,709.2A12.83,12.83,0,0,0,904.88,722c0,6.9,5.38,13.94,12.82,13.94s12.82-7,12.82-13.94A12.83,12.83,0,0,0,917.7,709.2Zm0,22.72c-4,0-8.32-4.69-8.32-9.9A8.32,8.32,0,0,1,926,722C926,727.23,921.72,731.91,917.7,731.91Z" transform="translate(12 22)"/><circle class="cls-3" cx="869.62" cy="737.01" r="2.45"/><circle class="cls-3" cx="880.27" cy="737.01" r="2.45"/><circle class="cls-3" cx="890.91" cy="737.01" r="2.45"/><path class="cls-3" d="M943.61,78c-7.57,0-13.74,5.11-13.74,11.38s6.17,11.38,13.74,11.38,13.74-5.1,13.74-11.38S951.18,78,943.61,78Zm0,20.23c-6.2,0-11.24-4-11.24-8.84s5-8.84,11.24-8.84,11.24,4,11.24,8.84S949.8,98.24,943.61,98.24Z" transform="translate(12 22)"/><path class="cls-3" d="M956.93,96.37a3.52,3.52,0,1,0,3.46,3.52A3.5,3.5,0,0,0,956.93,96.37Zm0,5.35a1.83,1.83,0,1,1,1.79-1.83A1.81,1.81,0,0,1,956.93,101.71Z" transform="translate(12 22)"/><path class="cls-3" d="M962,101.14a1.64,1.64,0,1,0,1.6,1.64A1.63,1.63,0,0,0,962,101.14Zm0,2.43a.79.79,0,1,1,.77-.79A.79.79,0,0,1,962,103.57Z" transform="translate(12 22)"/><path class="cls-3" d="M977.3,106,974,106l-.55,0-.42.32a3.93,3.93,0,0,1-2.07.45,4.14,4.14,0,0,1-2-.41h0l-.46-.37H965l-.39,0c-5.7,1.36-6.61,7.44-6.29,10.47l.17,1.53h24.93l.16-1.53C983.91,113.46,983,107.38,977.3,106Zm-16.51,9.46c0-1.74.4-6,4.31-6.95h2.55a7.4,7.4,0,0,0,6.62,0h2.59c3.87,1,4.28,5.22,4.28,6.94Z" transform="translate(12 22)"/><path class="cls-3" d="M971,89a7.2,7.2,0,0,0-7.12,7.25c0,3.9,3,7.88,7.12,7.88s7.12-4,7.12-7.88A7.19,7.19,0,0,0,971,89Zm0,12.84c-2.23,0-4.62-2.65-4.62-5.6a4.62,4.62,0,1,1,9.24,0C975.59,99.17,973.2,101.82,971,101.82Z" transform="translate(12 22)"/><ellipse class="cls-3" cx="949.61" cy="114.27" rx="1.36" ry="1.38"/><ellipse class="cls-3" cx="955.52" cy="114.27" rx="1.36" ry="1.38"/><ellipse class="cls-3" cx="961.43" cy="114.27" rx="1.36" ry="1.38"/><path class="cls-3" d="M304.2,494.66l-.47.15c.79,2.92,3.37,5.34,6.82,6.56a15.38,15.38,0,0,0,5.14.86,16.05,16.05,0,0,0,2.93-.27,17.6,17.6,0,0,1,6.75,4.1,23.19,23.19,0,0,1-.93-6.65,8.33,8.33,0,0,0,3.46-6.5,8.2,8.2,0,0,0-3.09-6.2,13.66,13.66,0,0,0-7.32-3C315.09,488.48,310.39,492.47,304.2,494.66Zm5.79,2a1.31,1.31,0,1,1,1.31-1.31A1.32,1.32,0,0,1,310,496.63Zm5.69,0a1.31,1.31,0,1,1,1.31-1.31A1.31,1.31,0,0,1,315.69,496.63Zm5.7-2.62a1.31,1.31,0,1,1-1.32,1.31A1.31,1.31,0,0,1,321.39,494Z" transform="translate(12 22)"/><path class="cls-3" d="M276.25,489.22a46.27,46.27,0,0,1-1.85,13.12s6.12-6.15,13.31-8.09a31.27,31.27,0,0,0,5.79.54,30.39,30.39,0,0,0,10.13-1.7c8.25-2.92,14-9.29,14-16.69,0-10.15-10.78-18.39-24.1-18.39a27.78,27.78,0,0,0-18,6.16c-3.79,3.25-6.09,7.53-6.09,12.22C269.42,481.38,272,485.9,276.25,489.22ZM303.14,478a2.22,2.22,0,1,1-2.21,2.22A2.22,2.22,0,0,1,303.14,478Zm-9.63,0a2.22,2.22,0,1,1-2.21,2.22A2.22,2.22,0,0,1,293.51,478Zm-9.63,0a2.22,2.22,0,1,1-2.21,2.22A2.22,2.22,0,0,1,283.88,478Z" transform="translate(12 22)"/><path class="cls-3" d="M809.56,454.4l-.36.12a8,8,0,0,0,5.31,5.11,11.89,11.89,0,0,0,4,.67,12.38,12.38,0,0,0,2.29-.21,13.7,13.7,0,0,1,5.26,3.19,18.2,18.2,0,0,1-.73-5.18,6.49,6.49,0,0,0,2.7-5.06,6.38,6.38,0,0,0-2.41-4.83,10.63,10.63,0,0,0-5.71-2.35A18.08,18.08,0,0,1,809.56,454.4Zm4.51,1.54a1,1,0,1,1,1-1A1,1,0,0,1,814.07,455.94Zm4.44,0a1,1,0,1,1,1-1A1,1,0,0,1,818.51,455.94Zm4.44-2a1,1,0,1,1-1,1A1,1,0,0,1,822.95,453.9Z" transform="translate(12 22)"/><path class="cls-3" d="M787.78,450.17a35.94,35.94,0,0,1-1.43,10.22s4.77-4.79,10.37-6.3a24.46,24.46,0,0,0,4.51.42,23.68,23.68,0,0,0,7.9-1.32c6.42-2.28,10.88-7.24,10.88-13,0-7.91-8.4-14.33-18.78-14.33a21.63,21.63,0,0,0-14,4.81,12.58,12.58,0,0,0-4.75,9.52A12.8,12.8,0,0,0,787.78,450.17Zm21-8.78a1.73,1.73,0,1,1-1.73,1.73A1.73,1.73,0,0,1,808.73,441.39Zm-7.5,0a1.73,1.73,0,1,1-1.73,1.73A1.73,1.73,0,0,1,801.23,441.39Zm-7.5,0a1.73,1.73,0,1,1-1.73,1.73A1.73,1.73,0,0,1,793.72,441.39Z" transform="translate(12 22)"/><path class="cls-3" d="M1183.14,613.22l-.77.25c1.3,4.8,5.53,8.77,11.2,10.78a25.22,25.22,0,0,0,8.44,1.42,25.73,25.73,0,0,0,4.82-.45c6,1.62,11.08,6.74,11.08,6.74a38.47,38.47,0,0,1-1.53-10.92c3.52-2.76,5.69-6.53,5.69-10.68a13.45,13.45,0,0,0-5.08-10.18,22.39,22.39,0,0,0-12-4.95C1201,603.07,1193.3,609.62,1183.14,613.22Zm9.52,3.23a2.15,2.15,0,1,1,2.15-2.15A2.15,2.15,0,0,1,1192.66,616.45Zm9.35,0a2.15,2.15,0,1,1,2.15-2.15A2.15,2.15,0,0,1,1202,616.45Zm9.35-4.3a2.15,2.15,0,1,1-2.16,2.15A2.15,2.15,0,0,1,1211.36,612.14Z" transform="translate(12 22)"/><path class="cls-3" d="M1137.22,604.27c-.06,5.27-.57,14.23-3,21.54,0,0,10.05-10.1,21.86-13.29a51.32,51.32,0,0,0,9.52.88,50,50,0,0,0,16.65-2.8c13.54-4.8,22.94-15.27,22.94-27.41,0-16.68-17.72-30.21-39.58-30.21-11.75,0-22.31,3.92-29.56,10.13-6.23,5.34-10,12.36-10,20.08C1126,591.4,1130.28,598.83,1137.22,604.27Zm44.17-18.5a3.64,3.64,0,1,1-3.64,3.64A3.64,3.64,0,0,1,1181.39,585.77Zm-15.82,0a3.64,3.64,0,1,1-3.64,3.64A3.64,3.64,0,0,1,1165.57,585.77Zm-15.82,0a3.64,3.64,0,1,1-3.64,3.64A3.64,3.64,0,0,1,1149.76,585.77Z" transform="translate(12 22)"/><path class="cls-3" d="M929.43,611.84l-.65.21c1.11,4.1,4.72,7.5,9.57,9.22a21.77,21.77,0,0,0,7.22,1.22,22,22,0,0,0,4.12-.39c5.13,1.37,9.48,5.76,9.48,5.76a32.85,32.85,0,0,1-1.31-9.33,11.7,11.7,0,0,0,4.86-9.13,11.49,11.49,0,0,0-4.34-8.7,19.15,19.15,0,0,0-10.28-4.23C944.72,603.17,938.12,608.76,929.43,611.84Zm8.13,2.76a1.84,1.84,0,1,1,1.84-1.85A1.85,1.85,0,0,1,937.56,614.61Zm8,0a1.84,1.84,0,1,1,1.84-1.85A1.84,1.84,0,0,1,945.56,614.61Zm8-3.68a1.84,1.84,0,1,1-1.85,1.84A1.84,1.84,0,0,1,953.56,610.92Z" transform="translate(12 22)"/><path class="cls-3" d="M890.16,604.19c-.05,4.5-.49,12.17-2.59,18.42,0,0,8.61-8.64,18.7-11.36a43.75,43.75,0,0,0,8.13.76,42.63,42.63,0,0,0,14.24-2.39c11.57-4.1,19.61-13.06,19.61-23.43,0-14.26-15.15-25.83-33.85-25.83-10,0-19.07,3.35-25.27,8.67-5.32,4.56-8.56,10.57-8.56,17.16C880.57,593.19,884.22,599.54,890.16,604.19Zm37.77-15.82a3.11,3.11,0,1,1-3.11,3.11A3.11,3.11,0,0,1,927.93,588.37Zm-13.53,0a3.11,3.11,0,1,1-3.11,3.11A3.11,3.11,0,0,1,914.4,588.37Zm-13.51,0a3.11,3.11,0,1,1-3.11,3.11A3.11,3.11,0,0,1,900.89,588.37Z" transform="translate(12 22)"/><path class="cls-3" d="M824,567.26c-1.81-4.63-1.83-11.11-1.83-11.17V541.63a8,8,0,0,0-7.94-7.94H792.38a8,8,0,0,0-7.94,7.94v13.49a8,8,0,0,0,7.94,7.95h18.47c5.63.29,11.31,5.39,11.37,5.44l3.6,3.27Zm-37.32-25.62a5.67,5.67,0,0,1,5.66-5.66h21.89a5.67,5.67,0,0,1,5.66,5.66v13.49c0,.16,0,.33,0,.49a3.86,3.86,0,0,0,0,.63,43.8,43.8,0,0,0,1,8.37c-2.43-1.65-6.13-3.63-10-3.83H792.38a5.67,5.67,0,0,1-5.66-5.66Z" transform="translate(12 22)"/><circle class="cls-3" cx="823.22" cy="575.14" r="1.78"/><circle class="cls-3" cx="815.49" cy="575.14" r="1.78"/><circle class="cls-3" cx="807.76" cy="575.14" r="1.78"/><path class="cls-3" d="M1208.77,308.58c-2.08-5.33-2.11-12.8-2.11-12.88V279a9.17,9.17,0,0,0-9.16-9.16h-25.24a9.17,9.17,0,0,0-9.16,9.16V294.6a9.17,9.17,0,0,0,9.16,9.16h21.3c6.49.34,13,6.22,13.1,6.28l4.16,3.77Zm-43-29.54a6.54,6.54,0,0,1,6.52-6.53h25.24A6.54,6.54,0,0,1,1204,279V294.6c0,.18,0,.38,0,.56a4.2,4.2,0,0,0,0,.73,50.54,50.54,0,0,0,1.1,9.65c-2.8-1.9-7.07-4.19-11.5-4.42h-21.37a6.53,6.53,0,0,1-6.52-6.52Z" transform="translate(12 22)"/><path class="cls-3" d="M1194,290.25a2.05,2.05,0,1,0,2,2.06A2.06,2.06,0,0,0,1194,290.25Z" transform="translate(12 22)"/><circle class="cls-3" cx="1197.06" cy="314.3" r="2.05"/><circle class="cls-3" cx="1188.15" cy="314.3" r="2.05"/><path class="cls-3" d="M804.08,371.83c-1.85-4.73-1.88-11.36-1.88-11.43v-14.8a8.15,8.15,0,0,0-8.13-8.13H771.67a8.14,8.14,0,0,0-8.13,8.13v13.82a8.14,8.14,0,0,0,8.13,8.13h18.9c5.77.3,11.57,5.52,11.64,5.57l3.69,3.35Zm-38.21-26.23a5.8,5.8,0,0,1,5.79-5.79h22.41a5.8,5.8,0,0,1,5.79,5.79v13.82c0,.16,0,.33,0,.5a4.4,4.4,0,0,0,0,.65,44.86,44.86,0,0,0,1,8.57c-2.49-1.68-6.28-3.72-10.22-3.92h-19a5.8,5.8,0,0,1-5.79-5.8Z" transform="translate(12 22)"/><path class="cls-3" d="M790.94,355.56a1.83,1.83,0,1,0,1.82,1.82A1.83,1.83,0,0,0,790.94,355.56Z" transform="translate(12 22)"/><circle class="cls-3" cx="795.04" cy="379.38" r="1.82"/><path class="cls-3" d="M775.13,355.56a1.83,1.83,0,1,0,1.82,1.82A1.82,1.82,0,0,0,775.13,355.56Z" transform="translate(12 22)"/><path class="cls-3" d="M1071.78,478.62c-.09.08-9,8.09-17.6,8.54H1048V493h6.31c5.36-.28,10.56-2.65,14.48-5a74,74,0,0,0-1.08,11.28,7.33,7.33,0,0,0,0,1.09c0,.25,0,.52,0,.76V523a8.12,8.12,0,0,1-8.11,8.11h-35.46a8.12,8.12,0,0,1-8.11-8.11v-4.79h-5.83V523a13.94,13.94,0,0,0,13.93,13.93h35.46A14,14,0,0,0,1073.56,523V501.09c0-.07,0-.13,0-.2v-1.35c0-.1,0-10.41,2.9-17.7l4.52-11.55Z" transform="translate(12 22)"/><path class="cls-3" d="M1026,447.6H984.49c-12.53-.65-25.18-12-25.31-12.13l-9.2-8.36,4.53,11.57c4,10.32,4.1,24.8,4.1,25v1.91c0,.08,0,.16,0,.23v30.31a18.21,18.21,0,0,0,18.19,18.19H1026a18.21,18.21,0,0,0,18.19-18.19V465.79A18.21,18.21,0,0,0,1026,447.6Zm12.36,48.49A12.38,12.38,0,0,1,1026,508.45H976.79a12.38,12.38,0,0,1-12.36-12.36V465.79c0-.34,0-.74,0-1.09a9.87,9.87,0,0,0,0-1.44,99.54,99.54,0,0,0-2-18c5.5,3.61,13.52,7.76,21.88,8.19H1026a12.38,12.38,0,0,1,12.36,12.36Z" transform="translate(12 22)"/><circle class="cls-3" cx="1033.34" cy="514.17" r="4.27"/><circle class="cls-3" cx="1014.8" cy="514.17" r="4.27"/><circle class="cls-3" cx="996.26" cy="514.17" r="4.27"/><circle class="cls-3" cx="1066.67" cy="541.98" r="3.09"/><circle class="cls-3" cx="1053.23" cy="541.98" r="3.1"/><circle class="cls-3" cx="1039.79" cy="541.98" r="3.09"/><path class="cls-3" d="M593.17,514.71s-2.45,2.2-4.78,2.33h-1.67v1.57h1.71a8.77,8.77,0,0,0,3.94-1.36,19,19,0,0,0-.29,3.07,1.25,1.25,0,0,0,0,.29,2.09,2.09,0,0,1,0,.21v5.95a2.21,2.21,0,0,1-2.2,2.2h-9.64a2.21,2.21,0,0,1-2.22-2.2v-1.3h-1.59v1.3a3.8,3.8,0,0,0,3.81,3.78h9.64a3.78,3.78,0,0,0,3.78-3.78v-6.36a15.92,15.92,0,0,1,.78-4.82l1.24-3.14Z" transform="translate(12 22)"/><path class="cls-3" d="M580.71,506.29H569.43c-3.39-.18-6.84-3.27-6.87-3.3l-2.51-2.28,1.24,3.14a22.54,22.54,0,0,1,1.11,6.78v8.83a5,5,0,0,0,4.94,4.94h13.37a5,5,0,0,0,4.94-4.94v-8.25A5,5,0,0,0,580.71,506.29Zm3.36,13.18a3.37,3.37,0,0,1-3.36,3.35H567.34a3.37,3.37,0,0,1-3.36-3.35v-8.25c0-.09,0-.2,0-.3a1.59,1.59,0,0,0,0-.39,25.88,25.88,0,0,0-.52-4.9,12.59,12.59,0,0,0,5.95,2.23h11.32a3.37,3.37,0,0,1,3.36,3.36Z" transform="translate(12 22)"/><circle class="cls-3" cx="591.46" cy="540.4" r="1.16"/><circle class="cls-3" cx="586.42" cy="540.4" r="1.16"/><ellipse class="cls-3" cx="581.38" cy="540.4" rx="1.17" ry="1.16"/><path class="cls-3" d="M589.35,526a.84.84,0,1,0-.84.84A.83.83,0,0,0,589.35,526Z" transform="translate(12 22)"/><path class="cls-3" d="M584.86,525.13a.84.84,0,1,0,.84.84A.84.84,0,0,0,584.86,525.13Z" transform="translate(12 22)"/><circle class="cls-3" cx="593.21" cy="547.96" r="0.84"/><path class="cls-3" d="M755.27,286.79c-.09.08-8.64,7.75-16.87,8.18h-5.9v5.58h6c5.14-.27,10.12-2.55,13.87-4.82a71.91,71.91,0,0,0-1,10.81,8.38,8.38,0,0,0,0,1c0,.24,0,.5,0,.73v21a7.77,7.77,0,0,1-7.77,7.76h-34a7.77,7.77,0,0,1-7.77-7.76v-4.59h-5.58v4.59a13.36,13.36,0,0,0,13.35,13.34h34A13.36,13.36,0,0,0,757,329.27v-21c0-.06,0-.12,0-.19v-1.29c0-.1,0-10,2.77-17l4.33-11.07Z" transform="translate(12 22)"/><path class="cls-3" d="M711.36,257.08H671.64c-12-.63-24.13-11.52-24.25-11.63l-8.81-8,4.34,11.09c3.87,9.89,3.92,23.77,3.92,23.91v31.09A17.44,17.44,0,0,0,664.26,321h47.1a17.44,17.44,0,0,0,17.42-17.43v-29A17.44,17.44,0,0,0,711.36,257.08Zm11.84,46.46a11.85,11.85,0,0,1-11.84,11.84h-47.1a11.86,11.86,0,0,1-11.84-11.84v-29c0-.33,0-.71,0-1a9.9,9.9,0,0,0,0-1.38,95.3,95.3,0,0,0-1.89-17.26c5.26,3.46,12.95,7.43,21,7.85h39.87A11.86,11.86,0,0,1,723.2,274.5Z" transform="translate(12 22)"/><path class="cls-3" d="M706.94,295.68a4.09,4.09,0,1,0,4.1,4.09A4.09,4.09,0,0,0,706.94,295.68Z" transform="translate(12 22)"/><circle class="cls-3" cx="701.17" cy="321.77" r="4.09"/><circle class="cls-3" cx="683.41" cy="321.77" r="4.09"/><circle class="cls-3" cx="750.87" cy="348.42" r="2.96"/><path class="cls-3" d="M726,323.46a3,3,0,1,0,3,3A3,3,0,0,0,726,323.46Z" transform="translate(12 22)"/><circle class="cls-3" cx="725.12" cy="348.42" r="2.96"/><path class="cls-3" d="M1359.9,601.16s-3.18,2.85-6.2,3h-2.17v2.05h2.22a11.4,11.4,0,0,0,5.1-1.77,27,27,0,0,0-.38,4,2.86,2.86,0,0,0,0,.38c0,.09,0,.18,0,.27v7.7a2.86,2.86,0,0,1-2.86,2.85h-12.49a2.86,2.86,0,0,1-2.85-2.85v-1.69h-2.05v1.69a4.91,4.91,0,0,0,4.91,4.91h12.49a4.91,4.91,0,0,0,4.91-4.91v-7.7a.42.42,0,0,0,0-.07v-.48a20.67,20.67,0,0,1,1-6.24l1.59-4.07Z" transform="translate(12 22)"/><path class="cls-3" d="M1343.75,590.24h-14.61c-4.41-.23-8.87-4.24-8.91-4.27L1317,583l1.6,4.08a29,29,0,0,1,1.44,8.79v.68a.52.52,0,0,0,0,.08v10.68a6.42,6.42,0,0,0,6.41,6.41h17.32a6.42,6.42,0,0,0,6.41-6.41V596.64A6.41,6.41,0,0,0,1343.75,590.24Zm4.35,17.08a4.36,4.36,0,0,1-4.35,4.35h-17.32a4.36,4.36,0,0,1-4.35-4.35V596.64c0-.12,0-.26,0-.39a3.51,3.51,0,0,0,0-.51,35.07,35.07,0,0,0-.69-6.35,16.31,16.31,0,0,0,7.71,2.88h14.66a4.36,4.36,0,0,1,4.35,4.36Z" transform="translate(12 22)"/><circle class="cls-3" cx="1354.12" cy="627.94" r="1.5"/><circle class="cls-3" cx="1347.59" cy="627.94" r="1.5"/><circle class="cls-3" cx="1341.06" cy="627.94" r="1.5"/><path class="cls-3" d="M1355,615.74a1.09,1.09,0,1,0-1.09,1.09A1.09,1.09,0,0,0,1355,615.74Z" transform="translate(12 22)"/><circle class="cls-3" cx="1361.13" cy="637.74" r="1.09"/><circle class="cls-3" cx="1356.4" cy="637.74" r="1.09"/><path class="cls-3" d="M953.53,547s3.06,2.71,6,2.86h2.09v2h-2.14a11.11,11.11,0,0,1-4.92-1.68,24.93,24.93,0,0,1,.37,3.78,2.79,2.79,0,0,1,0,.37c0,.08,0,.17,0,.25v7.32a2.74,2.74,0,0,0,2.75,2.71h12a2.74,2.74,0,0,0,2.75-2.71v-1.61h2v1.61a4.7,4.7,0,0,1-4.73,4.66h-12a4.7,4.7,0,0,1-4.73-4.66v-7.32s0,0,0-.07v-.45a19.43,19.43,0,0,0-1-5.93l-1.54-3.87Z" transform="translate(12 22)"/><path class="cls-3" d="M962.91,542.75V552.9a6.14,6.14,0,0,0,6.18,6.09h16.69A6.14,6.14,0,0,0,992,552.9V542.75s0-.05,0-.08V542a27.3,27.3,0,0,1,1.39-8.36l1.54-3.87-3.12,2.8s-4.34,3.85-8.59,4.07H969.09A6.14,6.14,0,0,0,962.91,542.75Zm2,0a4.17,4.17,0,0,1,4.2-4.14h14.13a15.78,15.78,0,0,0,7.43-2.74,33,33,0,0,0-.67,6,3.4,3.4,0,0,0,0,.49c0,.12,0,.25,0,.36V552.9a4.18,4.18,0,0,1-4.2,4.14H969.09a4.17,4.17,0,0,1-4.2-4.14Z" transform="translate(12 22)"/><ellipse class="cls-3" cx="982.65" cy="573.58" rx="1.45" ry="1.43"/><ellipse class="cls-3" cx="988.95" cy="573.58" rx="1.45" ry="1.43"/><ellipse class="cls-3" cx="995.24" cy="573.58" rx="1.45" ry="1.43"/><ellipse class="cls-3" cx="971.34" cy="582.9" rx="1.05" ry="1.04"/><ellipse class="cls-3" cx="975.9" cy="582.9" rx="1.05" ry="1.04"/><ellipse class="cls-3" cx="980.46" cy="582.9" rx="1.05" ry="1.04"/><path class="cls-3" d="M1214.77,738.62a7,7,0,1,0,7,7A7,7,0,0,0,1214.77,738.62Zm0,10.81a3.83,3.83,0,1,1,3.83-3.83A3.84,3.84,0,0,1,1214.77,749.43Z" transform="translate(12 22)"/><path class="cls-3" d="M1206,715.56v-2.12h-12.62c-.29.72-.61,1.42-1,2.12Z" transform="translate(12 22)"/><path class="cls-3" d="M1206,722.37v-2.11h-16.56c-.56.73-1.15,1.42-1.78,2.11Z" transform="translate(12 22)"/><rect class="cls-3" x="1204.9" y="749.07" width="13.13" height="2.11"/><path class="cls-3" d="M1222.63,750.22a3.25,3.25,0,1,0,3.24,3.25A3.25,3.25,0,0,0,1222.63,750.22Zm0,4.92a1.67,1.67,0,1,1,1.67-1.67A1.68,1.68,0,0,1,1222.63,755.14Z" transform="translate(12 22)"/><path class="cls-3" d="M1197.72,697.87a28.22,28.22,0,0,1,.65,4.87c10.24,1.91,17.88,9,17.88,17.56,0,10-10.47,18.08-23.35,18.08a27.29,27.29,0,0,1-15.65-4.7,46.64,46.64,0,0,1-5,2,31.19,31.19,0,0,0,20.68,7.44c15.48,0,28.06-10.22,28.06-22.79C1221,709.07,1210.9,699.73,1197.72,697.87Z" transform="translate(12 22)"/><path class="cls-3" d="M1186.48,720.26h3a29,29,0,0,0,3-4.7h-2.65A27.65,27.65,0,0,1,1186.48,720.26Z" transform="translate(12 22)"/><path class="cls-3" d="M1189.8,715.56h2.65c.35-.69.67-1.4,1-2.12h-2.57C1190.52,714.16,1190.19,714.87,1189.8,715.56Z" transform="translate(12 22)"/><path class="cls-3" d="M1184.45,722.37h3.23c.63-.69,1.22-1.39,1.78-2.11h-3C1185.84,721,1185.16,721.69,1184.45,722.37Z" transform="translate(12 22)"/><path class="cls-3" d="M1157,673.07c-21.11,0-38.28,13.87-38.28,30.92s17.18,30.92,38.28,30.92c12.58,0,23.73-4.95,30.71-12.53h-6.82a38.62,38.62,0,0,1-23.89,7.82c-18.51,0-33.57-11.76-33.57-26.2s15.06-26.2,33.57-26.2,33.57,11.76,33.57,26.2a21.11,21.11,0,0,1-2.3,9.46h5.16a25.39,25.39,0,0,0,1.85-9.46C1195.25,686.94,1178.08,673.07,1157,673.07Z" transform="translate(12 22)"/><path class="cls-3" d="M1183.24,720.26h3.24a27.65,27.65,0,0,0,3.32-4.7H1187A26.48,26.48,0,0,1,1183.24,720.26Z" transform="translate(12 22)"/><path class="cls-3" d="M1187,715.56h2.75c.39-.69.72-1.4,1-2.12h-2.59A23.42,23.42,0,0,1,1187,715.56Z" transform="translate(12 22)"/><path class="cls-3" d="M1186.48,720.26h-3.24a30.23,30.23,0,0,1-2.38,2.11h3.59C1185.16,721.69,1185.84,721,1186.48,720.26Z" transform="translate(12 22)"/><path class="cls-3" d="M1123.36,725a9.13,9.13,0,1,0,9.13,9.12A9.13,9.13,0,0,0,1123.36,725Zm0,15.11a6,6,0,1,1,6-6A6,6,0,0,1,1123.36,740.1Z" transform="translate(12 22)"/><path class="cls-3" d="M1114.88,742.29a4.22,4.22,0,1,0,4.23,4.22A4.23,4.23,0,0,0,1114.88,742.29Zm0,6.88a2.65,2.65,0,1,1,2.66-2.65A2.66,2.66,0,0,1,1114.88,749.17Z" transform="translate(12 22)"/><rect class="cls-3" x="1150.12" y="714.5" width="38.29" height="3.09"/><rect class="cls-3" x="1150.12" y="724.44" width="38.29" height="3.08"/><rect class="cls-3" x="1150.12" y="734.38" width="19.14" height="3.08"/><path class="cls-3" d="M1227,220.82a6.63,6.63,0,1,0,6.63,6.63A6.64,6.64,0,0,0,1227,220.82Zm0,10.28a3.64,3.64,0,1,1,3.64-3.64A3.65,3.65,0,0,1,1227,231.09Z" transform="translate(12 22)"/><path class="cls-3" d="M1218.73,198.9v-2h-12c-.27.68-.58,1.35-.91,2Z" transform="translate(12 22)"/><path class="cls-3" d="M1218.73,205.37v-2H1203q-.8,1-1.69,2Z" transform="translate(12 22)"/><rect class="cls-3" x="1218.25" y="231.84" width="12.48" height="2.01"/><path class="cls-3" d="M1234.51,231.84a3.08,3.08,0,1,0,3.08,3.08A3.08,3.08,0,0,0,1234.51,231.84Zm0,4.67a1.59,1.59,0,1,1,1.59-1.59A1.59,1.59,0,0,1,1234.51,236.52Z" transform="translate(12 22)"/><path class="cls-3" d="M1210.83,182.09a26.8,26.8,0,0,1,.61,4.63c9.73,1.82,17,8.6,17,16.68,0,9.47-10,17.18-22.19,17.18a26,26,0,0,1-14.87-4.47,43.55,43.55,0,0,1-4.78,1.88,29.62,29.62,0,0,0,19.65,7.07c14.71,0,26.67-9.71,26.67-21.66C1232.92,192.73,1223.35,183.86,1210.83,182.09Z" transform="translate(12 22)"/><path class="cls-3" d="M1200.15,203.37H1203a27.7,27.7,0,0,0,2.84-4.47h-2.51A26.27,26.27,0,0,1,1200.15,203.37Z" transform="translate(12 22)"/><path class="cls-3" d="M1203.31,198.9h2.51c.33-.66.64-1.33.91-2h-2.44C1204,197.57,1203.67,198.24,1203.31,198.9Z" transform="translate(12 22)"/><path class="cls-3" d="M1198.22,205.37h3.07q.89-1,1.69-2h-2.84Q1199.24,204.4,1198.22,205.37Z" transform="translate(12 22)"/><path class="cls-3" d="M1172.11,158.52c-20.06,0-36.38,13.18-36.38,29.38s16.32,29.39,36.38,29.39c12,0,22.55-4.7,29.19-11.91h-6.48a36.7,36.7,0,0,1-22.7,7.43c-17.59,0-31.9-11.17-31.9-24.9s14.31-24.9,31.9-24.9S1204,174.17,1204,187.9a20.06,20.06,0,0,1-2.18,9h4.9a24.12,24.12,0,0,0,1.76-9C1208.49,171.7,1192.17,158.52,1172.11,158.52Z" transform="translate(12 22)"/><path class="cls-3" d="M1197.07,203.37h3.08a26.27,26.27,0,0,0,3.16-4.47h-2.62A25,25,0,0,1,1197.07,203.37Z" transform="translate(12 22)"/><path class="cls-3" d="M1200.69,198.9h2.62c.37-.66.69-1.33,1-2h-2.46A22.43,22.43,0,0,1,1200.69,198.9Z" transform="translate(12 22)"/><path class="cls-3" d="M1200.15,203.37h-3.08a28,28,0,0,1-2.26,2h3.41Q1199.24,204.4,1200.15,203.37Z" transform="translate(12 22)"/><path class="cls-3" d="M1140.16,207.87a8.67,8.67,0,1,0,8.67,8.67A8.68,8.68,0,0,0,1140.16,207.87Zm0,14.36a5.69,5.69,0,1,1,5.69-5.69A5.69,5.69,0,0,1,1140.16,222.23Z" transform="translate(12 22)"/><path class="cls-3" d="M1132.1,224.31a4,4,0,1,0,4,4A4,4,0,0,0,1132.1,224.31Zm0,6.54a2.52,2.52,0,1,1,2.52-2.52A2.52,2.52,0,0,1,1132.1,230.85Z" transform="translate(12 22)"/><rect class="cls-3" x="1166.2" y="198.99" width="36.39" height="2.93"/><rect class="cls-3" x="1166.2" y="208.44" width="36.39" height="2.93"/><rect class="cls-3" x="1166.2" y="217.88" width="18.19" height="2.93"/><path class="cls-3" d="M554.34,593.9a4.93,4.93,0,1,0,4.93,4.93A4.94,4.94,0,0,0,554.34,593.9Zm0,7.65a2.71,2.71,0,1,1,2.71-2.72A2.72,2.72,0,0,1,554.34,601.55Z" transform="translate(12 22)"/><path class="cls-3" d="M548.15,577.58v-1.5h-8.93c-.2.5-.44,1-.68,1.5Z" transform="translate(12 22)"/><path class="cls-3" d="M548.15,582.39V580.9H536.43c-.39.51-.82,1-1.26,1.49Z" transform="translate(12 22)"/><rect class="cls-3" x="550.86" y="607.72" width="9.29" height="1.5"/><path class="cls-3" d="M559.9,602.1a2.29,2.29,0,1,0,2.29,2.3A2.3,2.3,0,0,0,559.9,602.1Zm0,3.48a1.18,1.18,0,1,1,1.18-1.18A1.19,1.19,0,0,1,559.9,605.58Z" transform="translate(12 22)"/><path class="cls-3" d="M542.27,565.06a19.91,19.91,0,0,1,.46,3.45c7.25,1.35,12.66,6.4,12.66,12.42,0,7.06-7.41,12.8-16.52,12.8a19.32,19.32,0,0,1-11.07-3.33,32.09,32.09,0,0,1-3.56,1.39,22.06,22.06,0,0,0,14.63,5.27c10.95,0,19.86-7.23,19.86-16.13C558.72,573,551.6,566.38,542.27,565.06Z" transform="translate(12 22)"/><path class="cls-3" d="M534.32,580.9h2.11a20.65,20.65,0,0,0,2.11-3.33h-1.87A19.74,19.74,0,0,1,534.32,580.9Z" transform="translate(12 22)"/><path class="cls-3" d="M536.67,577.58h1.87c.25-.49.48-1,.68-1.5h-1.82C537.18,576.59,536.94,577.09,536.67,577.58Z" transform="translate(12 22)"/><path class="cls-3" d="M532.88,582.39h2.29c.44-.48.87-1,1.26-1.49h-2.11C533.87,581.42,533.39,581.92,532.88,582.39Z" transform="translate(12 22)"/><path class="cls-3" d="M513.45,547.51c-14.94,0-27.09,9.81-27.09,21.87s12.16,21.88,27.09,21.88c8.89,0,16.78-3.5,21.73-8.87h-4.83a27.3,27.3,0,0,1-16.9,5.54c-13.1,0-23.76-8.32-23.76-18.54s10.66-18.54,23.76-18.54,23.75,8.32,23.75,18.54a15,15,0,0,1-1.62,6.69h3.65a18,18,0,0,0,1.31-6.69C540.53,557.32,528.38,547.51,513.45,547.51Z" transform="translate(12 22)"/><path class="cls-3" d="M532,580.9h2.29a19.74,19.74,0,0,0,2.36-3.33h-1.95A18.85,18.85,0,0,1,532,580.9Z" transform="translate(12 22)"/><path class="cls-3" d="M534.73,577.58h1.95c.27-.49.51-1,.73-1.5h-1.83C535.32,576.59,535,577.09,534.73,577.58Z" transform="translate(12 22)"/><path class="cls-3" d="M534.32,580.9H532a20.37,20.37,0,0,1-1.69,1.49h2.54C533.39,581.92,533.87,581.42,534.32,580.9Z" transform="translate(12 22)"/><path class="cls-3" d="M489.66,584.25a6.46,6.46,0,1,0,6.46,6.46A6.47,6.47,0,0,0,489.66,584.25Zm0,10.69a4.23,4.23,0,1,1,4.23-4.23A4.24,4.24,0,0,1,489.66,594.94Z" transform="translate(12 22)"/><path class="cls-3" d="M483.66,596.5a3,3,0,1,0,3,3A3,3,0,0,0,483.66,596.5Zm0,4.87a1.88,1.88,0,1,1,1.88-1.88A1.88,1.88,0,0,1,483.66,601.36Z" transform="translate(12 22)"/><rect class="cls-3" x="512.11" y="583.26" width="27.09" height="2.19"/><rect class="cls-3" x="512.11" y="590.3" width="27.09" height="2.18"/><rect class="cls-3" x="512.11" y="597.33" width="13.54" height="2.18"/><path class="cls-3" d="M841.62,189.52a8.74,8.74,0,1,0,8.73,8.73A8.75,8.75,0,0,0,841.62,189.52Zm0,13.54a4.8,4.8,0,1,1,4.8-4.81A4.81,4.81,0,0,1,841.62,203.07Z" transform="translate(12 22)"/><path class="cls-3" d="M830.67,160.63V158H814.87c-.36.9-.77,1.78-1.2,2.65Z" transform="translate(12 22)"/><path class="cls-3" d="M830.67,169.16v-2.64H809.93q-1,1.36-2.23,2.64Z" transform="translate(12 22)"/><rect class="cls-3" x="826.23" y="197.06" width="16.44" height="2.64"/><path class="cls-3" d="M851.48,204a4.07,4.07,0,1,0,4.06,4.06A4.07,4.07,0,0,0,851.48,204Zm0,6.16a2.09,2.09,0,1,1,2.1-2.1A2.09,2.09,0,0,1,851.48,210.21Z" transform="translate(12 22)"/><path class="cls-3" d="M820.27,138.48a36.13,36.13,0,0,1,.81,6.1c12.82,2.39,22.4,11.33,22.4,22,0,12.49-13.12,22.65-29.25,22.65a34.17,34.17,0,0,1-19.6-5.9,57.2,57.2,0,0,1-6.3,2.48,39.08,39.08,0,0,0,25.91,9.33c19.38,0,35.16-12.8,35.16-28.55C849.39,152.51,836.78,140.81,820.27,138.48Z" transform="translate(12 22)"/><path class="cls-3" d="M806.19,166.52h3.74a36.78,36.78,0,0,0,3.74-5.89h-3.31A34.55,34.55,0,0,1,806.19,166.52Z" transform="translate(12 22)"/><path class="cls-3" d="M810.36,160.63h3.31c.43-.87.84-1.75,1.2-2.65h-3.21C811.25,158.88,810.83,159.77,810.36,160.63Z" transform="translate(12 22)"/><path class="cls-3" d="M803.64,169.16h4.06q1.18-1.29,2.23-2.64h-3.74A36.15,36.15,0,0,1,803.64,169.16Z" transform="translate(12 22)"/><path class="cls-3" d="M769.24,107.41c-26.45,0-48,17.38-48,38.73s21.51,38.73,48,38.73c15.75,0,29.72-6.2,38.46-15.7h-8.54c-7.63,6-18.22,9.8-29.92,9.8-23.19,0-42.05-14.73-42.05-32.83s18.87-32.82,42.05-32.82,42.05,14.73,42.05,32.82A26.48,26.48,0,0,1,808.41,158h6.46a31.74,31.74,0,0,0,2.32-11.85C817.18,124.78,795.68,107.41,769.24,107.41Z" transform="translate(12 22)"/><path class="cls-3" d="M802.14,166.52h4a34.55,34.55,0,0,0,4.17-5.89h-3.45A33.21,33.21,0,0,1,802.14,166.52Z" transform="translate(12 22)"/><path class="cls-3" d="M806.91,160.63h3.45c.48-.87.9-1.75,1.3-2.65h-3.24C808,158.89,807.45,159.77,806.91,160.63Z" transform="translate(12 22)"/><path class="cls-3" d="M806.19,166.52h-4a38.38,38.38,0,0,1-3,2.64h4.49A36.15,36.15,0,0,0,806.19,166.52Z" transform="translate(12 22)"/><path class="cls-3" d="M727.13,172.45a11.43,11.43,0,1,0,11.43,11.43A11.45,11.45,0,0,0,727.13,172.45Zm0,18.93a7.5,7.5,0,1,1,7.5-7.5A7.5,7.5,0,0,1,727.13,191.38Z" transform="translate(12 22)"/><path class="cls-3" d="M716.51,194.13a5.29,5.29,0,1,0,5.29,5.29A5.3,5.3,0,0,0,716.51,194.13Zm0,8.61a3.32,3.32,0,1,1,3.33-3.32A3.32,3.32,0,0,1,716.51,202.74Z" transform="translate(12 22)"/><rect class="cls-3" x="757.62" y="153.76" width="47.96" height="3.87"/><rect class="cls-3" x="757.62" y="166.21" width="47.96" height="3.87"/><rect class="cls-3" x="757.62" y="178.65" width="23.98" height="3.86"/><path class="cls-3" d="M977.72,408.34a11.74,11.74,0,0,0,2-23.3c1.1-2.45,1.49-16-12.57-21.71-8.59-3.49-20.49.21-24.19,9.07-3.39-4.34-8.56-8-15.2-8a16.06,16.06,0,0,0-15.65,19.87,11.69,11.69,0,0,0-6.44-1.92A11.73,11.73,0,0,0,894,394.06c0,6,6,10.55,11.85,11.23,0,1.53-.23,7.66,4.59,9.45,5.28,2,9.33-1.72,11.53-3.54,2.34,1.08,5.28,3.28,10.23,2.74a17.16,17.16,0,0,0,8.89-3.6,17.56,17.56,0,0,0,28.47-2,17.07,17.07,0,0,0,1.21-2.33,11.78,11.78,0,0,0,1.73,1.06A11.58,11.58,0,0,0,977.72,408.34Zm-53.92-8.21a4,4,0,1,1,4-4A4,4,0,0,1,923.8,400.13Zm17.31,0a4,4,0,1,1,4-4A4,4,0,0,1,941.11,400.13Zm17.31,0a4,4,0,1,1,4-4A4,4,0,0,1,958.41,400.13Z" transform="translate(12 22)"/><ellipse class="cls-3" cx="992.34" cy="443.47" rx="9.12" ry="6.45"/><ellipse class="cls-3" cx="1001.46" cy="458.08" rx="3.79" ry="3.13"/><path class="cls-3" d="M676.73,637a11.74,11.74,0,0,0,2-23.3c1.1-2.44,1.49-16-12.57-21.71-8.59-3.48-20.5.21-24.19,9.07-3.39-4.34-8.56-8-15.2-8a16.11,16.11,0,0,0-16.11,16.11,16.35,16.35,0,0,0,.46,3.76,11.67,11.67,0,0,0-6.43-1.92A11.72,11.72,0,0,0,593,622.67c0,6,6,10.55,11.85,11.23,0,1.53-.23,7.66,4.59,9.45,5.28,2,9.33-1.72,11.54-3.54,2.34,1.08,5.28,3.28,10.22,2.74a17.17,17.17,0,0,0,8.89-3.6,17.56,17.56,0,0,0,28.47-2,16.89,16.89,0,0,0,1.21-2.33,11.89,11.89,0,0,0,7,2.32Zm-53.92-8.2a4,4,0,1,1,4-4A4,4,0,0,1,622.81,628.75Zm17.31,0a4,4,0,1,1,4-4A4,4,0,0,1,640.12,628.75Zm17.31,0a4,4,0,1,1,4-4A4,4,0,0,1,657.43,628.75Z" transform="translate(12 22)"/><ellipse class="cls-3" cx="691.35" cy="672.09" rx="9.12" ry="6.45"/><ellipse class="cls-3" cx="700.48" cy="686.69" rx="3.79" ry="3.13"/><path class="cls-3" d="M834.42,247a8,8,0,0,0,1.39-15.83c.74-1.66,1-10.88-8.54-14.75-5.84-2.37-13.92.14-16.44,6.16a13.12,13.12,0,0,0-10.32-5.45,10.91,10.91,0,0,0-10.63,13.5,8,8,0,0,0-12.35,6.67c0,4.09,4.09,7.17,8.05,7.63,0,1-.15,5.2,3.12,6.42,3.58,1.34,6.34-1.16,7.84-2.4,1.59.73,3.58,2.23,6.95,1.85a11.62,11.62,0,0,0,6-2.45A11.91,11.91,0,0,0,828.85,247a11.57,11.57,0,0,0,.83-1.58,7.74,7.74,0,0,0,1.18.71A7.91,7.91,0,0,0,834.42,247Zm-36.63-5.57a2.71,2.71,0,1,1,2.71-2.71A2.71,2.71,0,0,1,797.79,241.4Zm11.76,0a2.71,2.71,0,1,1,2.7-2.71A2.72,2.72,0,0,1,809.55,241.4Zm11.76,0a2.71,2.71,0,1,1,2.7-2.71A2.71,2.71,0,0,1,821.31,241.4Z" transform="translate(12 22)"/><ellipse class="cls-3" cx="848.2" cy="277.9" rx="6.19" ry="4.38"/><ellipse class="cls-3" cx="854.4" cy="287.82" rx="2.57" ry="2.13"/><path class="cls-3" d="M834.77,758a28.62,28.62,0,0,1-1.43-8.67V738.1a6.1,6.1,0,0,0-6.09-6.09h-17a6.1,6.1,0,0,0-6.1,6.09v10.46a6.1,6.1,0,0,0,6.1,6.09H824.6c4.39.23,8.8,4.19,8.85,4.24l2.6,2.36ZM805.83,738.1a4.45,4.45,0,0,1,4.45-4.45h17a4.45,4.45,0,0,1,4.45,4.45v10.46c0,.12,0,.26,0,.38a2.84,2.84,0,0,0,0,.48,33.53,33.53,0,0,0,.77,6.63,16.29,16.29,0,0,0-7.83-3H810.28a4.45,4.45,0,0,1-4.45-4.45Z" transform="translate(12 22)"/><path class="cls-3" d="M812.8,749.75H824.9l0-.21s.4-4-2.84-4.76h-1.67l-.06,0a2.61,2.61,0,0,1-1.5.36,2.58,2.58,0,0,1-1.49-.36l-.06-.05h-1.67c-3.24.75-2.85,4.72-2.85,4.76Z" transform="translate(12 22)"/><path class="cls-3" d="M818.85,743.66c1.73,0,3.13-1.86,3.13-3.59a3.13,3.13,0,0,0-6.26,0C815.72,741.8,817.12,743.66,818.85,743.66Z" transform="translate(12 22)"/><path class="cls-3" d="M1120.3,592.2c-2.36-6-2.39-14.44-2.39-14.52V558.93a10.21,10.21,0,0,0-10.2-10.2h-28.4a10.21,10.21,0,0,0-10.2,10.2v17.5a10.21,10.21,0,0,0,10.2,10.2h24c7.35.38,14.74,7,14.81,7.09l4.36,4Zm-48.43-33.27a7.45,7.45,0,0,1,7.44-7.45h28.4a7.45,7.45,0,0,1,7.45,7.45v17.5c0,.2,0,.43,0,.64a4.92,4.92,0,0,0,0,.8,56.17,56.17,0,0,0,1.29,11.1c-3.14-2.15-8-4.83-13.1-5.1h-24a7.45,7.45,0,0,1-7.44-7.44Z" transform="translate(12 22)"/><path class="cls-3" d="M1083.52,578.42h20.26l0-.35c0-.07.66-6.71-4.76-8l-2.66,0h-.14l-.11.08a4.32,4.32,0,0,1-2.51.6,4.38,4.38,0,0,1-2.5-.6l-.11-.09h-2.71l-.09,0c-5.42,1.26-4.77,7.9-4.76,8Z" transform="translate(12 22)"/><path class="cls-3" d="M1093.66,568.22c2.89,0,5.24-3.1,5.24-6a5.24,5.24,0,0,0-10.48,0C1088.42,565.12,1090.76,568.22,1093.66,568.22Z" transform="translate(12 22)"/><path class="cls-3" d="M396.19,734.2a22.43,22.43,0,0,1-1.11-6.75v-8.71a4.74,4.74,0,0,0-4.74-4.74H377.14a4.75,4.75,0,0,0-4.74,4.74v8.13a4.75,4.75,0,0,0,4.74,4.74h11.13c3.42.18,6.85,3.26,6.88,3.29l2,1.84Zm-22.5-15.45a3.46,3.46,0,0,1,3.46-3.46h13.19a3.46,3.46,0,0,1,3.46,3.46v8.13c0,.09,0,.2,0,.3a2.12,2.12,0,0,0,0,.37,26.43,26.43,0,0,0,.6,5.16,12.59,12.59,0,0,0-6.08-2.37H377.14a3.46,3.46,0,0,1-3.46-3.46Z" transform="translate(12 22)"/><path class="cls-3" d="M379.1,727.8h9.41l0-.16s.31-3.12-2.21-3.7H385l0,0a2.56,2.56,0,0,1-2.33,0l0,0h-1.3c-2.52.58-2.22,3.67-2.21,3.7Z" transform="translate(12 22)"/><path class="cls-3" d="M383.81,723.06a2.76,2.76,0,0,0,2.44-2.79,2.43,2.43,0,1,0-4.87,0A2.76,2.76,0,0,0,383.81,723.06Z" transform="translate(12 22)"/></g></svg>