<svg xmlns="http://www.w3.org/2000/svg" viewBox="0 0 553.88 368.02"><defs><style>.cls-1,.cls-2,.cls-3,.cls-5{fill:#ea572b;}.cls-2{opacity:0.7;}.cls-3{opacity:0.4;}.cls-4{fill:#231916;}.cls-5{stroke:#ea572b;stroke-miterlimit:10;stroke-width:5px;}</style></defs><title>Asset 2</title><g id="Layer_2" data-name="Layer 2"><g id="Method"><circle class="cls-1" cx="149.38" cy="23.64" r="12.5"/><circle class="cls-1" cx="198.38" cy="23.64" r="12.5"/><circle class="cls-1" cx="247.38" cy="23.64" r="12.5"/><circle class="cls-1" cx="296.38" cy="23.64" r="12.5"/><circle class="cls-1" cx="345.38" cy="23.64" r="12.5"/><circle class="cls-1" cx="149.38" cy="23.64" r="12.5"/><circle class="cls-1" cx="198.38" cy="23.64" r="12.5"/><circle class="cls-1" cx="247.38" cy="23.64" r="12.5"/><circle class="cls-1" cx="296.38" cy="23.64" r="12.5"/><circle class="cls-1" cx="345.38" cy="23.64" r="12.5"/><circle class="cls-2" cx="149.38" cy="68.64" r="12.5"/><circle class="cls-2" cx="198.38" cy="68.64" r="12.5"/><circle class="cls-2" cx="247.38" cy="68.64" r="12.5"/><circle class="cls-2" cx="296.38" cy="68.64" r="12.5"/><circle class="cls-2" cx="345.38" cy="68.64" r="12.5"/><circle class="cls-3" cx="149.38" cy="113.64" r="12.5"/><circle class="cls-3" cx="198.38" cy="113.64" r="12.5"/><circle class="cls-3" cx="247.38" cy="113.64" r="12.5"/><circle class="cls-3" cx="296.38" cy="113.64" r="12.5"/><circle class="cls-3" cx="345.38" cy="113.64" r="12.5"/><circle class="cls-2" cx="394.38" cy="68.64" r="12.5"/><circle class="cls-1" cx="345.38" cy="23.64" r="12.5"/><circle class="cls-1" cx="394.38" cy="23.64" r="12.5"/><circle class="cls-1" cx="443.38" cy="23.64" r="12.5"/><circle class="cls-1" cx="492.38" cy="23.64" r="12.5"/><circle class="cls-1" cx="541.38" cy="23.64" r="12.5"/><circle class="cls-1" cx="394.38" cy="23.64" r="12.5"/><circle class="cls-1" cx="443.38" cy="23.64" r="12.5"/><circle class="cls-1" cx="492.38" cy="23.64" r="12.5"/><circle class="cls-1" cx="541.38" cy="23.64" r="12.5"/><path class="cls-4" d="M44.19,28.08,48.76,20h2.16l-5.72,9.86v6.25h-2V30L37.47,20h2.18Z"/><path class="cls-4" d="M58.88,36.36a5.67,5.67,0,0,1-6.14-6.16,6.72,6.72,0,0,1,1.53-4.64,5.22,5.22,0,0,1,4.11-1.72,5,5,0,0,1,3.82,1.49,5.51,5.51,0,0,1,1.41,3.94v1.16H54.76a4.61,4.61,0,0,0,1.14,3.23A4.09,4.09,0,0,0,59,34.76a10.91,10.91,0,0,0,4.1-.81v1.63a10.74,10.74,0,0,1-2,.6A11.65,11.65,0,0,1,58.88,36.36Zm-.53-11a3.28,3.28,0,0,0-2.47.95,4.23,4.23,0,0,0-1.08,2.62h6.71a3.85,3.85,0,0,0-.82-2.65A3,3,0,0,0,58.35,25.37Z"/><path class="cls-4" d="M75.3,36.14l-.39-1.72h-.09A5.34,5.34,0,0,1,72.9,36a6.17,6.17,0,0,1-2.38.4,4.47,4.47,0,0,1-3-.93,3.27,3.27,0,0,1-1.08-2.63q0-3.66,6.22-3.83l2.18-.07v-.75a2.94,2.94,0,0,0-.65-2.1,2.78,2.78,0,0,0-2.08-.68,8.91,8.91,0,0,0-3.63.93l-.6-1.4a9.82,9.82,0,0,1,4.35-1,5.1,5.1,0,0,1,3.4,1,3.86,3.86,0,0,1,1.11,3.07v8.24ZM70.9,34.85a4.1,4.1,0,0,0,2.85-.94,3.35,3.35,0,0,0,1-2.62V30.2l-1.95.08A7.45,7.45,0,0,0,69.5,31a2,2,0,0,0-1,1.87,1.83,1.83,0,0,0,.64,1.51A2.77,2.77,0,0,0,70.9,34.85Z"/><path class="cls-4" d="M87.09,23.84a8.06,8.06,0,0,1,1.54.13l-.27,1.7a7,7,0,0,0-1.41-.17,3.51,3.51,0,0,0-2.67,1.19,4.18,4.18,0,0,0-1.11,3v6.48H81.23V24.06h1.61l.22,2.24h.09a5.43,5.43,0,0,1,1.72-1.82A4.05,4.05,0,0,1,87.09,23.84Z"/><path class="cls-4" d="M107.95,23.82a3.54,3.54,0,0,1-.92,2.52,4.7,4.7,0,0,1-2.61,1.31v.09A5.05,5.05,0,0,1,107.48,29a3.51,3.51,0,0,1,1,2.6,4.12,4.12,0,0,1-1.7,3.54,8.09,8.09,0,0,1-4.83,1.24,14.87,14.87,0,0,1-2.49-.19,8.9,8.9,0,0,1-2.2-.68V33.75a11.13,11.13,0,0,0,2.37.79,11.42,11.42,0,0,0,2.38.27q4.44,0,4.44-3.27,0-2.93-4.9-2.93H99.87V27h1.71a5.39,5.39,0,0,0,3.18-.83,2.67,2.67,0,0,0,1.17-2.31,2.22,2.22,0,0,0-.86-1.85,3.71,3.71,0,0,0-2.34-.67,7.64,7.64,0,0,0-2.12.29,9.77,9.77,0,0,0-2.27,1.06l-1-1.23a8.38,8.38,0,0,1,2.43-1.23,9.35,9.35,0,0,1,2.9-.45,6.19,6.19,0,0,1,3.88,1.07A3.53,3.53,0,0,1,107.95,23.82Z"/><path class="cls-4" d="M44.19,73.08,48.76,65h2.16l-5.72,9.86v6.25h-2V75L37.47,65h2.18Z"/><path class="cls-4" d="M58.88,81.36a5.67,5.67,0,0,1-6.14-6.16,6.72,6.72,0,0,1,1.53-4.64,5.22,5.22,0,0,1,4.11-1.72,5,5,0,0,1,3.82,1.49,5.51,5.51,0,0,1,1.41,3.94v1.16H54.76a4.61,4.61,0,0,0,1.14,3.23A4.09,4.09,0,0,0,59,79.76a10.91,10.91,0,0,0,4.1-.81v1.63a10.74,10.74,0,0,1-2,.6A11.65,11.65,0,0,1,58.88,81.36Zm-.53-11a3.28,3.28,0,0,0-2.47.95,4.23,4.23,0,0,0-1.08,2.62h6.71a3.85,3.85,0,0,0-.82-2.65A3,3,0,0,0,58.35,70.37Z"/><path class="cls-4" d="M75.3,81.14l-.39-1.72h-.09A5.34,5.34,0,0,1,72.9,81a6.17,6.17,0,0,1-2.38.4,4.47,4.47,0,0,1-3-.93,3.27,3.27,0,0,1-1.08-2.63q0-3.66,6.22-3.83l2.18-.07v-.75a2.94,2.94,0,0,0-.65-2.1,2.78,2.78,0,0,0-2.08-.68,8.91,8.91,0,0,0-3.63.93l-.6-1.4a9.82,9.82,0,0,1,4.35-1,5.1,5.1,0,0,1,3.4,1,3.86,3.86,0,0,1,1.11,3.07v8.24ZM70.9,79.85a4.1,4.1,0,0,0,2.85-.94,3.35,3.35,0,0,0,1-2.62V75.2l-1.95.08A7.45,7.45,0,0,0,69.5,76a2,2,0,0,0-1,1.87,1.83,1.83,0,0,0,.64,1.51A2.77,2.77,0,0,0,70.9,79.85Z"/><path class="cls-4" d="M87.09,68.84a8.06,8.06,0,0,1,1.54.13l-.27,1.7a7,7,0,0,0-1.41-.17,3.51,3.51,0,0,0-2.67,1.19,4.18,4.18,0,0,0-1.11,3v6.48H81.23V69.06h1.61l.22,2.24h.09a5.43,5.43,0,0,1,1.72-1.82A4.05,4.05,0,0,1,87.09,68.84Z"/><path class="cls-4" d="M108.59,81.14H97.33V79.56l4.51-4.26a32,32,0,0,0,2.72-2.8,7,7,0,0,0,1-1.63,4.42,4.42,0,0,0,.33-1.71,2.62,2.62,0,0,0-.83-2,3.31,3.31,0,0,0-2.31-.75,6.14,6.14,0,0,0-2,.33,8.18,8.18,0,0,0-2.13,1.2l-1-1.24a8.19,8.19,0,0,1,5.16-1.85A5.67,5.67,0,0,1,106.49,66a3.88,3.88,0,0,1,1.37,3.12,5.76,5.76,0,0,1-.91,3,19.56,19.56,0,0,1-3.42,3.79l-3.75,3.45v.09h8.81Z"/><path class="cls-4" d="M44.19,118.08,48.76,110h2.16l-5.72,9.86v6.25h-2V120L37.47,110h2.18Z"/><path class="cls-4" d="M58.88,126.36a5.67,5.67,0,0,1-6.14-6.16,6.72,6.72,0,0,1,1.53-4.64,5.22,5.22,0,0,1,4.11-1.72,5,5,0,0,1,3.82,1.49,5.51,5.51,0,0,1,1.41,3.94v1.16H54.76a4.61,4.61,0,0,0,1.14,3.23,4.09,4.09,0,0,0,3.05,1.1,10.91,10.91,0,0,0,4.1-.81v1.63a10.74,10.74,0,0,1-2,.6A11.65,11.65,0,0,1,58.88,126.36Zm-.53-11a3.28,3.28,0,0,0-2.47.95,4.23,4.23,0,0,0-1.08,2.62h6.71a3.85,3.85,0,0,0-.82-2.65A3,3,0,0,0,58.35,115.37Z"/><path class="cls-4" d="M75.3,126.14l-.39-1.72h-.09A5.34,5.34,0,0,1,72.9,126a6.17,6.17,0,0,1-2.38.4,4.47,4.47,0,0,1-3-.93,3.27,3.27,0,0,1-1.08-2.63q0-3.66,6.22-3.83l2.18-.07v-.75a2.94,2.94,0,0,0-.65-2.1,2.78,2.78,0,0,0-2.08-.68,8.91,8.91,0,0,0-3.63.93l-.6-1.4a9.82,9.82,0,0,1,4.35-1,5.1,5.1,0,0,1,3.4,1,3.86,3.86,0,0,1,1.11,3.07v8.24Zm-4.39-1.29a4.1,4.1,0,0,0,2.85-.94,3.35,3.35,0,0,0,1-2.62V120.2l-1.95.08a7.45,7.45,0,0,0-3.35.68,2,2,0,0,0-1,1.87,1.83,1.83,0,0,0,.64,1.51A2.77,2.77,0,0,0,70.9,124.85Z"/><path class="cls-4" d="M87.09,113.84a8.06,8.06,0,0,1,1.54.13l-.27,1.7a7,7,0,0,0-1.41-.17,3.51,3.51,0,0,0-2.67,1.19,4.18,4.18,0,0,0-1.11,3v6.48H81.23V114.06h1.61l.22,2.24h.09a5.43,5.43,0,0,1,1.72-1.82A4.05,4.05,0,0,1,87.09,113.84Z"/><path class="cls-4" d="M104.54,126.14h-1.9V114.66q0-1.43.09-2.71-.25.23-.55.48t-2.79,2.15l-1-1.26L102.9,110h1.64Z"/><path class="cls-4" d="M43.3,212.34a6.57,6.57,0,0,1,4.26,1.26,4.21,4.21,0,0,1,1.55,3.45A4.84,4.84,0,0,1,47.42,221a7,7,0,0,1-4.67,1.42,9.05,9.05,0,0,1-4.42-.87v-1.76a7,7,0,0,0,2,.78,10.69,10.69,0,0,0,2.4.28,5,5,0,0,0,3.21-.91,3.19,3.19,0,0,0,1.14-2.64q0-3.37-4.39-3.37a18.58,18.58,0,0,0-3,.32l-1-.61.64-7.53h8.52v1.69H41l-.43,4.84A14.49,14.49,0,0,1,43.3,212.34Z"/><path class="cls-4" d="M63.5,214.1q0,4.17-1.4,6.23a4.82,4.82,0,0,1-4.28,2.06,4.77,4.77,0,0,1-4.21-2.11,11,11,0,0,1-1.44-6.19q0-4.21,1.39-6.25a5.37,5.37,0,0,1,8.49.09A10.93,10.93,0,0,1,63.5,214.1Zm-9.36,0a11.17,11.17,0,0,0,.88,5.12,3.25,3.25,0,0,0,5.62,0,15.27,15.27,0,0,0,0-10.18A3.26,3.26,0,0,0,55,209,11.09,11.09,0,0,0,54.14,214.1Z"/><path class="cls-4" d="M73.38,210.88a6.63,6.63,0,0,1-.9,3.79A3,3,0,0,1,69.85,216a2.92,2.92,0,0,1-2.55-1.31,6.58,6.58,0,0,1-.91-3.77,6.66,6.66,0,0,1,.87-3.77,2.94,2.94,0,0,1,2.58-1.27,3,3,0,0,1,2.61,1.31A6.46,6.46,0,0,1,73.38,210.88Zm-5.37,0a7,7,0,0,0,.43,2.81,1.46,1.46,0,0,0,1.41.94q1.92,0,1.92-3.75t-1.92-3.72a1.46,1.46,0,0,0-1.41.93A6.9,6.9,0,0,0,68,210.88Zm12.67-4.8-9.5,16.1H69.46l9.5-16.1Zm3,11.26a6.6,6.6,0,0,1-.9,3.78,3,3,0,0,1-2.63,1.28,2.92,2.92,0,0,1-2.56-1.31,8.44,8.44,0,0,1,0-7.52,2.94,2.94,0,0,1,2.58-1.27,3,3,0,0,1,2.6,1.29A6.35,6.35,0,0,1,83.71,217.33Zm-5.38,0a7,7,0,0,0,.43,2.81,1.47,1.47,0,0,0,1.42.93,1.54,1.54,0,0,0,1.45-.92,6.49,6.49,0,0,0,.47-2.83,6.35,6.35,0,0,0-.47-2.79,1.54,1.54,0,0,0-1.45-.91,1.47,1.47,0,0,0-1.42.91A6.81,6.81,0,0,0,78.33,217.33Z"/><path class="cls-1" d="M138.4,208l-3.53-1.76a24,24,0,0,0,4.65-1.54,2.82,2.82,0,0,0,1.46-3.57,52.77,52.77,0,0,1-2.33-11.57C138.18,183,133.2,178,127.06,178S115.95,183,115.48,189.5a52.77,52.77,0,0,1-2.33,11.57,2.82,2.82,0,0,0,1.46,3.57,24,24,0,0,0,4.65,1.54L115.73,208a5.72,5.72,0,0,0-3.18,5.14v7.17a1.37,1.37,0,0,0,2.73,0V213.1a3,3,0,0,1,1.67-2.7l4.56-2.28,1.59,1.51a5.74,5.74,0,0,0,7.92,0l1.59-1.51,4.56,2.28a3,3,0,0,1,1.67,2.7v7.17a1.37,1.37,0,1,0,2.73,0V213.1A5.72,5.72,0,0,0,138.4,208Zm-17.08-4.14a22.65,22.65,0,0,1-5.57-1.65c-.07,0,0-.12,0-.14a39.93,39.93,0,0,0,1.51-5.65,10.16,10.16,0,0,0,4.09,5.94Zm7.82,3.83a3,3,0,0,1-4.15,0l-1.27-1.21a2.83,2.83,0,0,0,.33-1.33v-1.45a10.16,10.16,0,0,0,6,0v1.45a2.83,2.83,0,0,0,.33,1.33Zm-2.08-6.27a7.4,7.4,0,0,1-7.4-7.4,1.36,1.36,0,0,0-1.8-1.29c.17-1.15.28-2.19.34-3a10.14,10.14,0,0,1,2.76-6.37,8.48,8.48,0,0,1,12.2,0,10.14,10.14,0,0,1,2.76,6.37c.06.86.19,2,.38,3.24a12.16,12.16,0,0,0-7-5.34,17.12,17.12,0,0,0-5.19-.82,1.37,1.37,0,0,0-.95.42l-2.46,2.56a1.37,1.37,0,1,0,2,1.9l2-2.13a15.06,15.06,0,0,1,3.83.7,9.15,9.15,0,0,1,5.83,4.91A7.38,7.38,0,0,1,127.06,201.37Zm5.75,1a10.09,10.09,0,0,0,4.09-6,39.93,39.93,0,0,0,1.51,5.65s0,.11,0,.14a22.66,22.66,0,0,1-5.57,1.65Z"/><path class="cls-1" d="M121.35,212.56a1.83,1.83,0,0,0-1.83,1.83v5.41a1.83,1.83,0,0,0,3.66,0v-5.41A1.83,1.83,0,0,0,121.35,212.56Z"/><path class="cls-1" d="M140.92,212.56a1.83,1.83,0,0,0-1.83,1.83v5.41a1.83,1.83,0,0,0,3.66,0v-5.41A1.83,1.83,0,0,0,140.92,212.56Z"/><path class="cls-1" d="M197.84,186.27c-3.39-1.64-9.74-1.66-10-1.66a1.41,1.41,0,1,0,0,2.83c1.64,0,6.4.25,8.7,1.36a1.49,1.49,0,0,0,.65.15,1.46,1.46,0,0,0,1.31-.78A1.39,1.39,0,0,0,197.84,186.27Z"/><path class="cls-1" d="M205.11,206.38l-5.26-1.46a1.62,1.62,0,0,1-1.2-1.55V202.2a10.89,10.89,0,0,0,1.39-1.11,10.24,10.24,0,0,0,3.28-7.52v-2.69l.58-1.13a8.78,8.78,0,0,0,1-4v-7.28a1.44,1.44,0,0,0-1.46-1.41h-14a9.12,9.12,0,0,0-9.25,9v.08a7.3,7.3,0,0,0,.81,3.33l.75,1.45v2.31a10.92,10.92,0,0,0,4.68,8.91v1.27a1.62,1.62,0,0,1-1.2,1.55l-5.26,1.46a6,6,0,0,0-4.45,5.72v8.67a1.46,1.46,0,0,0,2.92,0V212.1a3.15,3.15,0,0,1,2.33-3l5.26-1.46a4.6,4.6,0,0,0,1.26-.57l.94.91a6.28,6.28,0,0,0,8.68,0l.94-.91a4.6,4.6,0,0,0,1.26.57l5.26,1.46a3.15,3.15,0,0,1,2.33,3v8.67a1.46,1.46,0,0,0,2.92,0V212.1A6,6,0,0,0,205.11,206.38Zm-10.32-.4a3.3,3.3,0,0,1-4.55,0l-1.2-1.16a4.28,4.28,0,0,0,.25-1.28,10.52,10.52,0,0,0,2.89.5h.34a11.15,11.15,0,0,0,3.22-.47,4.28,4.28,0,0,0,.25,1.25Zm-2.52-4.77a8,8,0,0,1-7.65-8v-2.64a1.38,1.38,0,0,0-.15-.63l-.9-1.75a4.54,4.54,0,0,1-.5-2.07V186a6.25,6.25,0,0,1,6.34-6.14H202v5.87a6,6,0,0,1-.67,2.75l-.74,1.43a1.38,1.38,0,0,0-.15.63v3a7.48,7.48,0,0,1-2.4,5.49A8,8,0,0,1,192.26,201.22Z"/><path class="cls-1" d="M183.15,213.31a1.44,1.44,0,0,0-1.46,1.41v6a1.46,1.46,0,0,0,2.92,0v-6A1.44,1.44,0,0,0,183.15,213.31Z"/><path class="cls-1" d="M201.86,213.31a1.44,1.44,0,0,0-1.46,1.41v6a1.46,1.46,0,0,0,2.92,0v-6A1.44,1.44,0,0,0,201.86,213.31Z"/><path class="cls-4" d="M242.3,212.34a6.57,6.57,0,0,1,4.26,1.26,4.21,4.21,0,0,1,1.55,3.45,4.84,4.84,0,0,1-1.69,3.92,7,7,0,0,1-4.67,1.42,9.05,9.05,0,0,1-4.42-.87v-1.76a7,7,0,0,0,2,.78,10.69,10.69,0,0,0,2.4.28,5,5,0,0,0,3.21-.91,3.19,3.19,0,0,0,1.14-2.64q0-3.37-4.39-3.37a18.58,18.58,0,0,0-3,.32l-1-.61.64-7.53h8.52v1.69H240l-.43,4.84A14.49,14.49,0,0,1,242.3,212.34Z"/><path class="cls-4" d="M262.5,214.1q0,4.17-1.4,6.23a4.82,4.82,0,0,1-4.28,2.06,4.77,4.77,0,0,1-4.21-2.11,11,11,0,0,1-1.44-6.19q0-4.21,1.39-6.25a5.37,5.37,0,0,1,8.49.09A10.93,10.93,0,0,1,262.5,214.1Zm-9.36,0a11.17,11.17,0,0,0,.88,5.12,3.25,3.25,0,0,0,5.62,0,15.27,15.27,0,0,0,0-10.18,3.26,3.26,0,0,0-5.62,0A11.09,11.09,0,0,0,253.14,214.1Z"/><path class="cls-4" d="M272.38,210.88a6.63,6.63,0,0,1-.9,3.79,3,3,0,0,1-2.63,1.28,2.92,2.92,0,0,1-2.55-1.31,6.58,6.58,0,0,1-.91-3.77,6.66,6.66,0,0,1,.87-3.77,2.94,2.94,0,0,1,2.58-1.27,3,3,0,0,1,2.61,1.31A6.46,6.46,0,0,1,272.38,210.88Zm-5.37,0a7,7,0,0,0,.43,2.81,1.46,1.46,0,0,0,1.41.94q1.92,0,1.92-3.75t-1.92-3.72a1.46,1.46,0,0,0-1.41.93A6.9,6.9,0,0,0,267,210.88Zm12.67-4.8-9.5,16.1h-1.72l9.5-16.1Zm3,11.26a6.6,6.6,0,0,1-.9,3.78,3,3,0,0,1-2.63,1.28,2.92,2.92,0,0,1-2.56-1.31,8.44,8.44,0,0,1,0-7.52,2.94,2.94,0,0,1,2.58-1.27,3,3,0,0,1,2.6,1.29A6.35,6.35,0,0,1,282.71,217.33Zm-5.38,0a7,7,0,0,0,.43,2.81,1.47,1.47,0,0,0,1.42.93,1.54,1.54,0,0,0,1.45-.92,6.49,6.49,0,0,0,.47-2.83,6.35,6.35,0,0,0-.47-2.79,1.54,1.54,0,0,0-1.45-.91,1.47,1.47,0,0,0-1.42.91A6.81,6.81,0,0,0,277.33,217.33Z"/><path class="cls-4" d="M93.4,264.47A5.62,5.62,0,0,0,89,266.24a6.94,6.94,0,0,0-1.6,4.84A7.06,7.06,0,0,0,89,276a5.62,5.62,0,0,0,4.41,1.72,15.69,15.69,0,0,0,4-.61v1.64a12.86,12.86,0,0,1-4.32.63,7.47,7.47,0,0,1-5.74-2.16,8.64,8.64,0,0,1-2-6.14,9.34,9.34,0,0,1,1-4.36,6.8,6.8,0,0,1,2.81-2.89,8.8,8.8,0,0,1,4.32-1,10.82,10.82,0,0,1,4.63.93l-.83,1.61A9.25,9.25,0,0,0,93.4,264.47Z"/><path class="cls-4" d="M103.16,279.14h-1.91V262h1.91Z"/><path class="cls-4" d="M115.43,279.14l-.38-1.72H115a5.25,5.25,0,0,1-1.88,1.54,6,6,0,0,1-2.34.4,4.33,4.33,0,0,1-2.94-.93,3.3,3.3,0,0,1-1.06-2.63q0-3.66,6.11-3.83l2.14-.07v-.75a3,3,0,0,0-.64-2.1,2.7,2.7,0,0,0-2-.68,8.62,8.62,0,0,0-3.57.93l-.59-1.4a9.51,9.51,0,0,1,4.27-1,5,5,0,0,1,3.34,1,3.9,3.9,0,0,1,1.09,3.07v8.24Zm-4.32-1.29a4,4,0,0,0,2.8-.94,3.38,3.38,0,0,0,1-2.62V273.2l-1.91.08a7.2,7.2,0,0,0-3.29.68,2,2,0,0,0-1,1.87,1.84,1.84,0,0,0,.63,1.51A2.68,2.68,0,0,0,111.12,277.85Z"/><path class="cls-4" d="M129.39,275.84a3,3,0,0,1-1.31,2.6,6.38,6.38,0,0,1-3.68.91,8.32,8.32,0,0,1-3.91-.76v-1.7a9.74,9.74,0,0,0,2,.69,8.48,8.48,0,0,0,2,.25,4.72,4.72,0,0,0,2.3-.46,1.54,1.54,0,0,0,.17-2.6,10.24,10.24,0,0,0-2.49-1.18,13.75,13.75,0,0,1-2.5-1.1,3.35,3.35,0,0,1-1.11-1.06,2.85,2.85,0,0,1,.89-3.75,6,6,0,0,1,3.44-.85,10.46,10.46,0,0,1,4,.79l-.68,1.49a9.48,9.48,0,0,0-3.44-.75,4.1,4.1,0,0,0-2,.41,1.25,1.25,0,0,0-.69,1.12,1.33,1.33,0,0,0,.26.83,2.53,2.53,0,0,0,.83.65,19.11,19.11,0,0,0,2.21.89,8.36,8.36,0,0,1,3,1.58A2.71,2.71,0,0,1,129.39,275.84Z"/><path class="cls-4" d="M141.11,275.84a3,3,0,0,1-1.31,2.6,6.38,6.38,0,0,1-3.68.91,8.32,8.32,0,0,1-3.91-.76v-1.7a9.74,9.74,0,0,0,2,.69,8.48,8.48,0,0,0,2,.25,4.72,4.72,0,0,0,2.3-.46,1.54,1.54,0,0,0,.17-2.6,10.24,10.24,0,0,0-2.49-1.18,13.75,13.75,0,0,1-2.5-1.1,3.35,3.35,0,0,1-1.11-1.06,2.85,2.85,0,0,1,.89-3.75,6,6,0,0,1,3.44-.85,10.46,10.46,0,0,1,4,.79l-.68,1.49a9.48,9.48,0,0,0-3.44-.75,4.1,4.1,0,0,0-2,.41,1.25,1.25,0,0,0-.69,1.12,1.33,1.33,0,0,0,.26.83,2.53,2.53,0,0,0,.83.65,19.11,19.11,0,0,0,2.21.89,8.36,8.36,0,0,1,3,1.58A2.71,2.71,0,0,1,141.11,275.84Z"/><path class="cls-4" d="M157,266.84a7.77,7.77,0,0,1,1.51.13l-.26,1.7a6.76,6.76,0,0,0-1.38-.17,3.42,3.42,0,0,0-2.62,1.19,4.22,4.22,0,0,0-1.09,3v6.48h-1.91V267.06h1.58l.22,2.24h.09a5.4,5.4,0,0,1,1.69-1.82A3.92,3.92,0,0,1,157,266.84Z"/><path class="cls-4" d="M166.7,279.36a5.93,5.93,0,0,1-4.41-1.63,6.15,6.15,0,0,1-1.62-4.53,6.8,6.8,0,0,1,1.5-4.64,5.09,5.09,0,0,1,4-1.72,4.86,4.86,0,0,1,3.75,1.49,5.57,5.57,0,0,1,1.38,3.94v1.16h-8.69a4.66,4.66,0,0,0,1.12,3.23,4,4,0,0,0,3,1.1,10.55,10.55,0,0,0,4-.81v1.63a10.44,10.44,0,0,1-1.92.6A11.24,11.24,0,0,1,166.7,279.36Zm-.52-11a3.19,3.19,0,0,0-2.42.95,4.26,4.26,0,0,0-1.06,2.62h6.59a3.9,3.9,0,0,0-.81-2.65A2.89,2.89,0,0,0,166.18,268.37Z"/><path class="cls-4" d="M180.93,279.36a5.67,5.67,0,0,1-2.25-.44,4.2,4.2,0,0,1-1.71-1.34h-.14a15.56,15.56,0,0,1,.14,2v5h-1.91V267.06h1.55l.26,1.65H177a4.39,4.39,0,0,1,1.71-1.43,5.41,5.41,0,0,1,2.24-.44,4.75,4.75,0,0,1,3.87,1.64,8.43,8.43,0,0,1,0,9.23A4.76,4.76,0,0,1,180.93,279.36Zm-.28-11a3.47,3.47,0,0,0-2.8,1,5.11,5.11,0,0,0-.89,3.26v.41a5.84,5.84,0,0,0,.89,3.64,3.44,3.44,0,0,0,2.84,1.1,3,3,0,0,0,2.56-1.27,5.81,5.81,0,0,0,.93-3.49,5.6,5.6,0,0,0-.93-3.46A3.1,3.1,0,0,0,180.66,268.4Z"/><path class="cls-4" d="M195.73,266.84a7.77,7.77,0,0,1,1.51.13l-.26,1.7a6.76,6.76,0,0,0-1.38-.17A3.42,3.42,0,0,0,193,269.7a4.22,4.22,0,0,0-1.09,3v6.48H190V267.06h1.58l.22,2.24h.09a5.4,5.4,0,0,1,1.69-1.82A3.92,3.92,0,0,1,195.73,266.84Z"/><path class="cls-4" d="M205.4,279.36a5.93,5.93,0,0,1-4.41-1.63,6.15,6.15,0,0,1-1.62-4.53,6.8,6.8,0,0,1,1.5-4.64,5.09,5.09,0,0,1,4-1.72,4.86,4.86,0,0,1,3.75,1.49,5.57,5.57,0,0,1,1.38,3.94v1.16h-8.69a4.66,4.66,0,0,0,1.12,3.23,4,4,0,0,0,3,1.1,10.55,10.55,0,0,0,4-.81v1.63a10.44,10.44,0,0,1-1.92.6A11.24,11.24,0,0,1,205.4,279.36Zm-.52-11a3.19,3.19,0,0,0-2.42.95,4.26,4.26,0,0,0-1.06,2.62H208a3.9,3.9,0,0,0-.81-2.65A2.89,2.89,0,0,0,204.88,268.37Z"/><path class="cls-4" d="M221.9,275.84a3,3,0,0,1-1.31,2.6,6.38,6.38,0,0,1-3.68.91,8.32,8.32,0,0,1-3.91-.76v-1.7a9.74,9.74,0,0,0,2,.69,8.48,8.48,0,0,0,2,.25,4.72,4.72,0,0,0,2.3-.46,1.54,1.54,0,0,0,.17-2.6,10.24,10.24,0,0,0-2.49-1.18,13.75,13.75,0,0,1-2.5-1.1,3.35,3.35,0,0,1-1.11-1.06,2.85,2.85,0,0,1,.89-3.75,6,6,0,0,1,3.44-.85,10.46,10.46,0,0,1,4,.79l-.68,1.49a9.48,9.48,0,0,0-3.44-.75,4.1,4.1,0,0,0-2,.41,1.25,1.25,0,0,0-.69,1.12,1.33,1.33,0,0,0,.26.83,2.53,2.53,0,0,0,.83.65,19.11,19.11,0,0,0,2.21.89,8.36,8.36,0,0,1,3,1.58A2.71,2.71,0,0,1,221.9,275.84Z"/><path class="cls-4" d="M230.8,279.36a5.93,5.93,0,0,1-4.41-1.63,6.15,6.15,0,0,1-1.62-4.53,6.8,6.8,0,0,1,1.5-4.64,5.09,5.09,0,0,1,4-1.72,4.86,4.86,0,0,1,3.75,1.49,5.57,5.57,0,0,1,1.38,3.94v1.16h-8.69a4.66,4.66,0,0,0,1.12,3.23,4,4,0,0,0,3,1.1,10.55,10.55,0,0,0,4-.81v1.63a10.44,10.44,0,0,1-1.92.6A11.24,11.24,0,0,1,230.8,279.36Zm-.52-11a3.19,3.19,0,0,0-2.42.95,4.26,4.26,0,0,0-1.06,2.62h6.59a3.9,3.9,0,0,0-.81-2.65A2.89,2.89,0,0,0,230.29,268.37Z"/><path class="cls-4" d="M247.8,279.14v-7.81a3.06,3.06,0,0,0-.7-2.2,2.94,2.94,0,0,0-2.2-.73,3.71,3.71,0,0,0-2.9,1,5,5,0,0,0-.92,3.38v6.33h-1.91V267.06h1.55l.31,1.65h.09a3.85,3.85,0,0,1,1.65-1.38,5.55,5.55,0,0,1,2.36-.49,4.93,4.93,0,0,1,3.43,1.05,4.36,4.36,0,0,1,1.15,3.37v7.88Z"/><path class="cls-4" d="M258.18,277.85a7,7,0,0,0,1.73-.22V279a3.6,3.6,0,0,1-.92.24,7.15,7.15,0,0,1-1.09.09q-3.66,0-3.66-3.69v-7.18h-1.81v-.88l1.81-.76.81-2.58h1.1v2.8h3.66v1.42h-3.66v7.11a2.38,2.38,0,0,0,.54,1.67A1.92,1.92,0,0,0,258.18,277.85Z"/><path class="cls-4" d="M270.65,279.14l-.38-1.72h-.09A5.25,5.25,0,0,1,268.3,279a6,6,0,0,1-2.34.4,4.33,4.33,0,0,1-2.94-.93A3.3,3.3,0,0,1,262,275.8q0-3.66,6.11-3.83l2.14-.07v-.75a3,3,0,0,0-.64-2.1,2.7,2.7,0,0,0-2-.68,8.62,8.62,0,0,0-3.57.93l-.59-1.4a9.51,9.51,0,0,1,4.27-1,5,5,0,0,1,3.34,1,3.9,3.9,0,0,1,1.09,3.07v8.24Zm-4.32-1.29a4,4,0,0,0,2.8-.94,3.38,3.38,0,0,0,1-2.62V273.2l-1.91.08A7.2,7.2,0,0,0,265,274a2,2,0,0,0-1,1.87,1.84,1.84,0,0,0,.63,1.51A2.68,2.68,0,0,0,266.34,277.85Z"/><path class="cls-4" d="M280.55,277.85a7,7,0,0,0,1.73-.22V279a3.6,3.6,0,0,1-.92.24,7.15,7.15,0,0,1-1.09.09q-3.66,0-3.66-3.69v-7.18h-1.81v-.88l1.81-.76.81-2.58h1.1v2.8h3.66v1.42h-3.66v7.11a2.38,2.38,0,0,0,.54,1.67A1.92,1.92,0,0,0,280.55,277.85Z"/><path class="cls-4" d="M285.11,263.79a1.18,1.18,0,0,1,.32-.92,1.14,1.14,0,0,1,1.93.92,1.18,1.18,0,0,1-.33.92,1.21,1.21,0,0,1-1.6,0A1.21,1.21,0,0,1,285.11,263.79Zm2.07,15.34h-1.91V267.06h1.91Z"/><path class="cls-4" d="M294.46,279.14l-4.79-12.07h2l2.71,7.16a32.71,32.71,0,0,1,1.08,3.26h.09a24.17,24.17,0,0,1,.8-2.42q.67-1.83,3-8h2l-4.79,12.07Z"/><path class="cls-4" d="M309.31,279.36a5.93,5.93,0,0,1-4.41-1.63,6.15,6.15,0,0,1-1.62-4.53,6.8,6.8,0,0,1,1.5-4.64,5.09,5.09,0,0,1,4-1.72,4.86,4.86,0,0,1,3.75,1.49,5.57,5.57,0,0,1,1.38,3.94v1.16h-8.69a4.66,4.66,0,0,0,1.12,3.23,4,4,0,0,0,3,1.1,10.55,10.55,0,0,0,4-.81v1.63a10.44,10.44,0,0,1-1.92.6A11.24,11.24,0,0,1,309.31,279.36Zm-.52-11a3.19,3.19,0,0,0-2.42.95,4.26,4.26,0,0,0-1.06,2.62h6.59a3.9,3.9,0,0,0-.81-2.65A2.89,2.89,0,0,0,308.79,268.37Z"/><path class="cls-4" d="M325.81,275.84a3,3,0,0,1-1.31,2.6,6.38,6.38,0,0,1-3.68.91,8.32,8.32,0,0,1-3.91-.76v-1.7a9.74,9.74,0,0,0,2,.69,8.48,8.48,0,0,0,2,.25,4.72,4.72,0,0,0,2.3-.46,1.54,1.54,0,0,0,.17-2.6,10.24,10.24,0,0,0-2.49-1.18,13.75,13.75,0,0,1-2.5-1.1,3.35,3.35,0,0,1-1.11-1.06,2.85,2.85,0,0,1,.89-3.75,6,6,0,0,1,3.44-.85,10.46,10.46,0,0,1,4,.79l-.68,1.49a9.48,9.48,0,0,0-3.44-.75,4.1,4.1,0,0,0-2,.41,1.25,1.25,0,0,0-.69,1.12,1.33,1.33,0,0,0,.26.83,2.53,2.53,0,0,0,.83.65,19.11,19.11,0,0,0,2.21.89,8.36,8.36,0,0,1,3,1.58A2.71,2.71,0,0,1,325.81,275.84Z"/><path class="cls-4" d="M95.9,328.85a3.86,3.86,0,0,1-1.64,3.32,7.44,7.44,0,0,1-4.45,1.19,11.79,11.79,0,0,1-4.69-.74v-1.81a13.39,13.39,0,0,0,4.76.9,5.21,5.21,0,0,0,3-.71,2.28,2.28,0,0,0,1-2,2.42,2.42,0,0,0-.36-1.37,3.27,3.27,0,0,0-1.2-1,17.33,17.33,0,0,0-2.55-1,8.24,8.24,0,0,1-3.42-1.91,4,4,0,0,1-1-2.87,3.5,3.5,0,0,1,1.49-3,6.46,6.46,0,0,1,3.94-1.1,12.25,12.25,0,0,1,4.7.88l-.62,1.63a11.2,11.2,0,0,0-4.12-.84,4.18,4.18,0,0,0-2.47.64,2.06,2.06,0,0,0-.89,1.77,2.59,2.59,0,0,0,.33,1.37,3,3,0,0,0,1.11,1,14.22,14.22,0,0,0,2.38,1,9.6,9.6,0,0,1,3.71,1.94A3.68,3.68,0,0,1,95.9,328.85Z"/><path class="cls-4" d="M103.74,331.85a7.3,7.3,0,0,0,1.76-.22V333a3.73,3.73,0,0,1-.93.24,7.42,7.42,0,0,1-1.11.09q-3.73,0-3.73-3.69v-7.18H97.9v-.88l1.84-.76.82-2.58h1.13v2.8h3.73v1.42h-3.73v7.11a2.35,2.35,0,0,0,.55,1.67A2,2,0,0,0,103.74,331.85Z"/><path class="cls-4" d="M110.37,321.06v7.83a2.57,2.57,0,0,0,3,2.93,3.78,3.78,0,0,0,2.95-1,5,5,0,0,0,.93-3.38v-6.35h1.95v12.07h-1.61l-.28-1.62h-.11a3.81,3.81,0,0,1-1.66,1.37,5.87,5.87,0,0,1-2.42.47,5.11,5.11,0,0,1-3.51-1,4.29,4.29,0,0,1-1.17-3.35v-7.9Z"/><path class="cls-4" d="M132.5,331.52h-.11a4.67,4.67,0,0,1-4,1.84,4.9,4.9,0,0,1-3.92-1.62,6.83,6.83,0,0,1-1.4-4.6,6.94,6.94,0,0,1,1.41-4.64,4.86,4.86,0,0,1,3.91-1.65,4.78,4.78,0,0,1,4,1.78h.15l-.08-.87,0-.85V316h1.95v17.14h-1.58Zm-3.89.31a3.66,3.66,0,0,0,2.89-1,4.92,4.92,0,0,0,.9-3.29v-.39a5.78,5.78,0,0,0-.91-3.66,3.56,3.56,0,0,0-2.9-1.1,3,3,0,0,0-2.62,1.25,5.93,5.93,0,0,0-.91,3.53,5.68,5.68,0,0,0,.9,3.49A3.13,3.13,0,0,0,128.61,331.83Z"/><path class="cls-4" d="M144.37,333.36a5.67,5.67,0,0,1-6.14-6.16,6.72,6.72,0,0,1,1.53-4.64,5.22,5.22,0,0,1,4.11-1.72,5,5,0,0,1,3.82,1.49,5.51,5.51,0,0,1,1.41,3.94v1.16h-8.85a4.61,4.61,0,0,0,1.14,3.23,4.09,4.09,0,0,0,3.05,1.1,10.91,10.91,0,0,0,4.1-.81v1.63a10.74,10.74,0,0,1-2,.6A11.65,11.65,0,0,1,144.37,333.36Zm-.53-11a3.28,3.28,0,0,0-2.47.95,4.23,4.23,0,0,0-1.08,2.62H147a3.85,3.85,0,0,0-.82-2.65A3,3,0,0,0,143.84,322.37Z"/><path class="cls-4" d="M161.68,333.14v-7.81a2.57,2.57,0,0,0-3-2.93,3.82,3.82,0,0,0-3,1,5,5,0,0,0-.94,3.38v6.33h-1.95V321.06h1.58l.32,1.65h.09a3.91,3.91,0,0,1,1.68-1.38,5.74,5.74,0,0,1,2.4-.49,5.08,5.08,0,0,1,3.49,1.05,4.31,4.31,0,0,1,1.17,3.37v7.88Z"/><path class="cls-4" d="M172.25,331.85a7.3,7.3,0,0,0,1.76-.22V333a3.73,3.73,0,0,1-.93.24,7.42,7.42,0,0,1-1.11.09q-3.73,0-3.73-3.69v-7.18H166.4v-.88l1.84-.76.82-2.58h1.13v2.8h3.73v1.42h-3.73v7.11a2.35,2.35,0,0,0,.55,1.67A2,2,0,0,0,172.25,331.85Z"/><path class="cls-4" d="M185.34,329.84a3,3,0,0,1-1.34,2.6,6.59,6.59,0,0,1-3.75.91,8.6,8.6,0,0,1-4-.76v-1.7a10,10,0,0,0,2,.69,8.79,8.79,0,0,0,2,.25,4.88,4.88,0,0,0,2.34-.46,1.52,1.52,0,0,0,.17-2.6,10.51,10.51,0,0,0-2.54-1.18,14.14,14.14,0,0,1-2.55-1.1,3.38,3.38,0,0,1-1.12-1.06,2.81,2.81,0,0,1,.91-3.75,6.24,6.24,0,0,1,3.5-.85,10.81,10.81,0,0,1,4.05.79l-.69,1.49a9.81,9.81,0,0,0-3.5-.75,4.24,4.24,0,0,0-2.09.41,1.25,1.25,0,0,0-.7,1.12,1.31,1.31,0,0,0,.26.83,2.57,2.57,0,0,0,.85.65,19.66,19.66,0,0,0,2.25.89,8.57,8.57,0,0,1,3.09,1.58A2.69,2.69,0,0,1,185.34,329.84Z"/><path class="cls-4" d="M204.49,333.14v-7.81a2.57,2.57,0,0,0-3-2.93,3.82,3.82,0,0,0-3,1,5,5,0,0,0-.94,3.38v6.33H195.7V321.06h1.58l.32,1.65h.09a3.91,3.91,0,0,1,1.68-1.38,5.74,5.74,0,0,1,2.4-.49,5.08,5.08,0,0,1,3.49,1.05,4.31,4.31,0,0,1,1.17,3.37v7.88Z"/><path class="cls-4" d="M222,327.09a6.41,6.41,0,0,1-1.58,4.61,5.75,5.75,0,0,1-4.37,1.66,6.08,6.08,0,0,1-3.06-.76,5.14,5.14,0,0,1-2.06-2.18,7.21,7.21,0,0,1-.73-3.33,6.4,6.4,0,0,1,1.57-4.6,5.74,5.74,0,0,1,4.36-1.65,5.6,5.6,0,0,1,4.28,1.69A6.38,6.38,0,0,1,222,327.09Zm-9.79,0a5.48,5.48,0,0,0,1,3.52,4.08,4.08,0,0,0,5.79,0,5.45,5.45,0,0,0,1-3.53,5.36,5.36,0,0,0-1-3.5,3.58,3.58,0,0,0-2.92-1.2,3.52,3.52,0,0,0-2.88,1.18A5.42,5.42,0,0,0,212.21,327.09Z"/><path class="cls-4" d="M230,331.85a7.3,7.3,0,0,0,1.76-.22V333a3.73,3.73,0,0,1-.93.24,7.42,7.42,0,0,1-1.11.09q-3.73,0-3.73-3.69v-7.18h-1.84v-.88l1.84-.76.82-2.58H228v2.8h3.73v1.42H228v7.11a2.35,2.35,0,0,0,.55,1.67A2,2,0,0,0,230,331.85Z"/><path class="cls-4" d="M249.45,333.14l-.39-1.72H249a5.34,5.34,0,0,1-1.92,1.54,6.17,6.17,0,0,1-2.38.4,4.47,4.47,0,0,1-3-.93,3.27,3.27,0,0,1-1.08-2.63q0-3.66,6.22-3.83l2.18-.07v-.75a2.94,2.94,0,0,0-.65-2.1,2.78,2.78,0,0,0-2.08-.68,8.91,8.91,0,0,0-3.63.93l-.6-1.4a9.82,9.82,0,0,1,4.35-1,5.1,5.1,0,0,1,3.4,1,3.86,3.86,0,0,1,1.11,3.07v8.24Zm-4.39-1.29a4.1,4.1,0,0,0,2.85-.94,3.35,3.35,0,0,0,1-2.62V327.2l-1.95.08a7.45,7.45,0,0,0-3.35.68,2,2,0,0,0-1,1.87,1.83,1.83,0,0,0,.64,1.51A2.77,2.77,0,0,0,245.05,331.85Z"/><path class="cls-4" d="M264.12,331.52H264a4.67,4.67,0,0,1-4,1.84,4.9,4.9,0,0,1-3.92-1.62,6.83,6.83,0,0,1-1.4-4.6,6.94,6.94,0,0,1,1.41-4.64,4.86,4.86,0,0,1,3.91-1.65,4.78,4.78,0,0,1,4,1.78h.15l-.08-.87,0-.85V316H266v17.14h-1.58Zm-3.89.31a3.66,3.66,0,0,0,2.89-1,4.92,4.92,0,0,0,.9-3.29v-.39a5.78,5.78,0,0,0-.91-3.66,3.56,3.56,0,0,0-2.9-1.1,3,3,0,0,0-2.62,1.25,5.93,5.93,0,0,0-.91,3.53,5.68,5.68,0,0,0,.9,3.49A3.13,3.13,0,0,0,260.23,331.83Z"/><path class="cls-4" d="M286.94,333.14v-7.85a3.12,3.12,0,0,0-.66-2.16,2.63,2.63,0,0,0-2-.72,3.4,3.4,0,0,0-2.68,1,4.46,4.46,0,0,0-.87,3v6.74h-1.95v-7.85a3.12,3.12,0,0,0-.66-2.16,2.64,2.64,0,0,0-2.05-.72,3.27,3.27,0,0,0-2.68,1,5.32,5.32,0,0,0-.85,3.38v6.33h-1.95V321.06h1.58l.32,1.65h.09a3.74,3.74,0,0,1,1.55-1.38,5,5,0,0,1,2.24-.5q3,0,3.94,2h.09a4,4,0,0,1,1.66-1.5,5.43,5.43,0,0,1,2.48-.55,3.82,3.82,0,0,1,4.35,4.42v7.88Z"/><path class="cls-4" d="M293.2,317.79a1.17,1.17,0,0,1,.33-.92,1.27,1.27,0,0,1,1.63,0,1.15,1.15,0,0,1,.34.91,1.18,1.18,0,0,1-2,.92A1.19,1.19,0,0,1,293.2,317.79Zm2.11,15.34h-1.95V321.06h1.95Z"/><path class="cls-4" d="M304.07,331.85a7.3,7.3,0,0,0,1.76-.22V333a3.73,3.73,0,0,1-.93.24,7.42,7.42,0,0,1-1.11.09q-3.73,0-3.73-3.69v-7.18h-1.84v-.88l1.84-.76.82-2.58H302v2.8h3.73v1.42H302v7.11a2.35,2.35,0,0,0,.55,1.67A2,2,0,0,0,304.07,331.85Z"/><path class="cls-4" d="M313,331.85a7.3,7.3,0,0,0,1.76-.22V333a3.73,3.73,0,0,1-.93.24,7.42,7.42,0,0,1-1.11.09q-3.73,0-3.73-3.69v-7.18h-1.84v-.88l1.84-.76.82-2.58H311v2.8h3.73v1.42H311v7.11a2.35,2.35,0,0,0,.55,1.67A2,2,0,0,0,313,331.85Z"/><path class="cls-4" d="M323.25,333.36a5.67,5.67,0,0,1-6.14-6.16,6.72,6.72,0,0,1,1.53-4.64,5.22,5.22,0,0,1,4.11-1.72,5,5,0,0,1,3.82,1.49,5.51,5.51,0,0,1,1.41,3.94v1.16h-8.85a4.61,4.61,0,0,0,1.14,3.23,4.09,4.09,0,0,0,3.05,1.1,10.91,10.91,0,0,0,4.1-.81v1.63a10.74,10.74,0,0,1-2,.6A11.65,11.65,0,0,1,323.25,333.36Zm-.53-11a3.28,3.28,0,0,0-2.47.95,4.23,4.23,0,0,0-1.08,2.62h6.71a3.85,3.85,0,0,0-.82-2.65A3,3,0,0,0,322.72,322.37Z"/><path class="cls-4" d="M340.51,331.52h-.11a4.67,4.67,0,0,1-4,1.84,4.9,4.9,0,0,1-3.92-1.62,6.83,6.83,0,0,1-1.4-4.6,6.94,6.94,0,0,1,1.41-4.64,4.86,4.86,0,0,1,3.91-1.65,4.78,4.78,0,0,1,4,1.78h.15l-.08-.87,0-.85V316h1.95v17.14h-1.58Zm-3.89.31a3.66,3.66,0,0,0,2.89-1,4.92,4.92,0,0,0,.9-3.29v-.39a5.78,5.78,0,0,0-.91-3.66,3.56,3.56,0,0,0-2.9-1.1,3,3,0,0,0-2.62,1.25,5.93,5.93,0,0,0-.91,3.53,5.68,5.68,0,0,0,.9,3.49A3.13,3.13,0,0,0,336.62,331.83Z"/><path class="cls-4" d="M356.48,333.14l-4.87-12.07h2.09l2.77,7.16a32.4,32.4,0,0,1,1.1,3.26h.09a23.56,23.56,0,0,1,.81-2.42q.69-1.83,3.08-8h2.09l-4.87,12.07Z"/><path class="cls-4" d="M366,317.79a1.17,1.17,0,0,1,.33-.92,1.27,1.27,0,0,1,1.63,0,1.15,1.15,0,0,1,.34.91,1.18,1.18,0,0,1-2,.92A1.19,1.19,0,0,1,366,317.79Zm2.11,15.34h-1.95V321.06h1.95Z"/><path class="cls-4" d="M380.62,333.14l-.39-1.72h-.09a5.34,5.34,0,0,1-1.92,1.54,6.17,6.17,0,0,1-2.38.4,4.47,4.47,0,0,1-3-.93,3.27,3.27,0,0,1-1.08-2.63q0-3.66,6.22-3.83l2.18-.07v-.75a2.94,2.94,0,0,0-.65-2.1,2.78,2.78,0,0,0-2.08-.68,8.91,8.91,0,0,0-3.63.93l-.6-1.4a9.82,9.82,0,0,1,4.35-1,5.1,5.1,0,0,1,3.4,1,3.86,3.86,0,0,1,1.11,3.07v8.24Zm-4.39-1.29a4.1,4.1,0,0,0,2.85-.94,3.35,3.35,0,0,0,1-2.62V327.2l-1.95.08a7.45,7.45,0,0,0-3.35.68,2,2,0,0,0-1,1.87,1.83,1.83,0,0,0,.64,1.51A2.77,2.77,0,0,0,376.23,331.85Z"/><path class="cls-4" d="M391.06,337.38a4.14,4.14,0,0,1-1.73-.3v-1.6a6.74,6.74,0,0,0,1.73.22,2.27,2.27,0,0,0,1.76-.66,2.73,2.73,0,0,0,.6-1.91V317h2v16a4.45,4.45,0,0,1-1.12,3.24A4.32,4.32,0,0,1,391.06,337.38Z"/><path class="cls-4" d="M413.39,317v10.42a5.5,5.5,0,0,1-1.77,4.33,7.05,7.05,0,0,1-4.86,1.58,6.74,6.74,0,0,1-4.79-1.59,5.69,5.69,0,0,1-1.69-4.36V317h2v10.51a4,4,0,0,0,1.17,3.1,4.92,4.92,0,0,0,3.45,1.08,4.74,4.74,0,0,0,3.34-1.08,4,4,0,0,0,1.17-3.11V317Z"/><path class="cls-4" d="M429.27,321.72a4.4,4.4,0,0,1-1.78,3.76,8.42,8.42,0,0,1-5.08,1.32h-2v6.33h-2V317h4.44Q429.27,317,429.27,321.72Zm-8.87,3.47h1.79a7,7,0,0,0,3.83-.8,2.89,2.89,0,0,0,1.18-2.58,2.71,2.71,0,0,0-1.11-2.38,6.11,6.11,0,0,0-3.47-.78h-2.23Z"/><path class="cls-4" d="M444.1,333.14,442,328H435.1L433,333.14h-2L437.75,317h1.68l6.74,16.17Zm-2.75-6.81-2-5q-.39-.95-.8-2.32a19.91,19.91,0,0,1-.74,2.32l-2,5Z"/><path class="cls-4" d="M458.67,328.85a3.86,3.86,0,0,1-1.64,3.32,7.44,7.44,0,0,1-4.45,1.19,11.79,11.79,0,0,1-4.69-.74v-1.81a13.39,13.39,0,0,0,4.76.9,5.21,5.21,0,0,0,3-.71,2.28,2.28,0,0,0,1-2,2.42,2.42,0,0,0-.36-1.37,3.27,3.27,0,0,0-1.2-1,17.33,17.33,0,0,0-2.55-1,8.24,8.24,0,0,1-3.42-1.91,4,4,0,0,1-1-2.87,3.5,3.5,0,0,1,1.49-3,6.46,6.46,0,0,1,3.94-1.1,12.25,12.25,0,0,1,4.7.88l-.62,1.63a11.2,11.2,0,0,0-4.12-.84,4.18,4.18,0,0,0-2.47.64,2.06,2.06,0,0,0-.89,1.77,2.59,2.59,0,0,0,.33,1.37,3,3,0,0,0,1.11,1,14.22,14.22,0,0,0,2.38,1,9.6,9.6,0,0,1,3.71,1.94A3.68,3.68,0,0,1,458.67,328.85Z"/><path class="cls-4" d="M84.44,351.53a9.43,9.43,0,0,1,.53-3.19,7.81,7.81,0,0,1,1.53-2.6h1.11a8.86,8.86,0,0,0-1.48,2.72,9.56,9.56,0,0,0-.5,3.05,9.29,9.29,0,0,0,2,5.7H86.5A7.46,7.46,0,0,1,85,354.67,9.18,9.18,0,0,1,84.44,351.53Z"/><path class="cls-4" d="M88.22,357.61a2.42,2.42,0,0,1-1-.17v-.93a4,4,0,0,0,1,.13,1.33,1.33,0,0,0,1-.39,1.6,1.6,0,0,0,.35-1.11v-9.39h1.16V355a2.59,2.59,0,0,1-.66,1.89A2.52,2.52,0,0,1,88.22,357.61Z"/><path class="cls-4" d="M102.37,350.43a5,5,0,0,1-1.21,3.55,4.41,4.41,0,0,1-3.37,1.29A4.46,4.46,0,0,1,94.38,354a5,5,0,0,1-1.2-3.58,5,5,0,0,1,1.2-3.56,4.5,4.5,0,0,1,3.42-1.26,4.4,4.4,0,0,1,3.36,1.29A5,5,0,0,1,102.37,350.43Zm-8,0a4.27,4.27,0,0,0,.86,2.89,3.69,3.69,0,0,0,5,0,5.35,5.35,0,0,0,0-5.77,3.12,3.12,0,0,0-2.5-1,3.18,3.18,0,0,0-2.53,1A4.23,4.23,0,0,0,94.41,350.43Z"/><path class="cls-4" d="M104.88,355.14v-9.39H106v9.39Z"/><path class="cls-4" d="M116.87,355.14h-1.33l-5.46-7.88H110q.11,1.39.11,2.54v5.34h-1.07v-9.39h1.31l5.45,7.85h.05q0-.17-.06-1.12t0-1.35v-5.39h1.09Z"/><path class="cls-4" d="M123,355.14h-1.16v-8.42h-3.17v-1h7.49v1H123Z"/><path class="cls-4" d="M139.39,345.74v6.08a3.21,3.21,0,0,1-1,2.53,4.11,4.11,0,0,1-2.84.92,3.93,3.93,0,0,1-2.79-.93,3.31,3.31,0,0,1-1-2.54v-6.05h1.16v6.13a2.33,2.33,0,0,0,.68,1.81,2.87,2.87,0,0,0,2,.63,2.76,2.76,0,0,0,1.95-.63,2.35,2.35,0,0,0,.68-1.82v-6.12Z"/><path class="cls-4" d="M150.12,355.14h-1.33l-5.46-7.88h-.05q.11,1.39.11,2.54v5.34h-1.07v-9.39h1.31l5.45,7.85h.05q0-.17-.06-1.12t0-1.35v-5.39h1.09Z"/><path class="cls-4" d="M153.15,355.14v-9.39h1.16v9.39Z"/><path class="cls-4" d="M163,345.74h1.25l-3.6,9.39h-1.15L156,345.74h1.23l2.3,6.08a16.3,16.3,0,0,1,.63,2,16.2,16.2,0,0,1,.64-2.08Z"/><path class="cls-4" d="M171.51,355.14h-5.57v-9.39h5.57v1H167.1v3h4.14v1H167.1v3.46h4.41Z"/><path class="cls-4" d="M175.17,351.23v3.91H174v-9.39h2.74a4.52,4.52,0,0,1,2.72.66,2.33,2.33,0,0,1,.88,2,2.52,2.52,0,0,1-2,2.52l2.71,4.22h-1.37l-2.42-3.91Zm0-.94h1.59a2.88,2.88,0,0,0,1.8-.46,1.66,1.66,0,0,0,.57-1.38,1.53,1.53,0,0,0-.58-1.34,3.33,3.33,0,0,0-1.88-.41h-1.51Z"/><path class="cls-4" d="M188.58,352.64a2.25,2.25,0,0,1-1,1.93,4.34,4.34,0,0,1-2.6.69,6.87,6.87,0,0,1-2.73-.43v-1.05a7.79,7.79,0,0,0,2.78.53,3,3,0,0,0,1.75-.41,1.33,1.33,0,0,0,.59-1.15,1.41,1.41,0,0,0-.21-.8,1.9,1.9,0,0,0-.7-.58,10,10,0,0,0-1.49-.6,4.8,4.8,0,0,1-2-1.11,2.36,2.36,0,0,1-.6-1.68,2,2,0,0,1,.87-1.73,3.77,3.77,0,0,1,2.3-.64,7.14,7.14,0,0,1,2.74.51l-.36,1a6.54,6.54,0,0,0-2.41-.49,2.44,2.44,0,0,0-1.44.37,1.2,1.2,0,0,0-.52,1,1.5,1.5,0,0,0,.19.8,1.76,1.76,0,0,0,.65.57,8.35,8.35,0,0,0,1.39.58,5.59,5.59,0,0,1,2.16,1.13A2.14,2.14,0,0,1,188.58,352.64Z"/><path class="cls-4" d="M190.91,355.14v-9.39h1.16v9.39Z"/><path class="cls-4" d="M198.17,355.14H197v-8.42h-3.17v-1h7.49v1h-3.17Z"/><path class="cls-4" d="M205.66,350.44l2.67-4.7h1.26l-3.34,5.75v3.64h-1.18v-3.59l-3.33-5.8H203Z"/><path class="cls-4" d="M221.49,348.48a2.57,2.57,0,0,1-1,2.19,4.91,4.91,0,0,1-3,.77h-1.18v3.69h-1.16v-9.39h2.59Q221.49,345.74,221.49,348.48Zm-5.17,2h1a4.09,4.09,0,0,0,2.24-.47,1.69,1.69,0,0,0,.69-1.5,1.58,1.58,0,0,0-.65-1.39,3.56,3.56,0,0,0-2-.46h-1.3Z"/><path class="cls-4" d="M225,351.23v3.91h-1.16v-9.39h2.74a4.52,4.52,0,0,1,2.72.66,2.33,2.33,0,0,1,.88,2,2.52,2.52,0,0,1-2,2.52l2.71,4.22h-1.37l-2.42-3.91Zm0-.94h1.59a2.88,2.88,0,0,0,1.8-.46,1.66,1.66,0,0,0,.57-1.38,1.53,1.53,0,0,0-.58-1.34,3.33,3.33,0,0,0-1.88-.41H225Z"/><path class="cls-4" d="M241.47,350.43a5,5,0,0,1-1.21,3.55,4.41,4.41,0,0,1-3.37,1.29,4.46,4.46,0,0,1-3.41-1.27,5,5,0,0,1-1.2-3.58,5,5,0,0,1,1.2-3.56,4.5,4.5,0,0,1,3.42-1.26,4.4,4.4,0,0,1,3.36,1.29A5,5,0,0,1,241.47,350.43Zm-8,0a4.27,4.27,0,0,0,.86,2.89,3.69,3.69,0,0,0,5,0,5.35,5.35,0,0,0,0-5.77,3.12,3.12,0,0,0-2.5-1,3.18,3.18,0,0,0-2.53,1A4.23,4.23,0,0,0,233.51,350.43Z"/><path class="cls-4" d="M248.37,350.21h3.4v4.57a11.43,11.43,0,0,1-1.61.36,13,13,0,0,1-1.9.12,4.77,4.77,0,0,1-3.53-1.27,4.82,4.82,0,0,1-1.26-3.56,5.1,5.1,0,0,1,.63-2.57,4.11,4.11,0,0,1,1.8-1.68,6.15,6.15,0,0,1,2.75-.58,8,8,0,0,1,3,.55l-.45,1a7,7,0,0,0-2.6-.54,3.86,3.86,0,0,0-2.85,1,3.82,3.82,0,0,0-1,2.83,3.9,3.9,0,0,0,1,2.89,4,4,0,0,0,2.9,1,9.15,9.15,0,0,0,2-.22v-2.89h-2.24Z"/><path class="cls-4" d="M255.61,351.23v3.91h-1.16v-9.39h2.74a4.52,4.52,0,0,1,2.72.66,2.33,2.33,0,0,1,.88,2,2.52,2.52,0,0,1-2,2.52l2.71,4.22h-1.37l-2.42-3.91Zm0-.94h1.59a2.88,2.88,0,0,0,1.8-.46,1.66,1.66,0,0,0,.57-1.38,1.53,1.53,0,0,0-.58-1.34,3.33,3.33,0,0,0-1.88-.41h-1.51Z"/><path class="cls-4" d="M269.67,355.14l-1.24-3h-4l-1.23,3H262l4-9.43h1l3.93,9.43Zm-1.61-4-1.16-2.91q-.23-.55-.46-1.36a11.77,11.77,0,0,1-.43,1.36l-1.18,2.91Z"/><path class="cls-4" d="M276.95,355.14l-3.39-8.33h-.05q.1,1,.1,2.35v6h-1.07v-9.39h1.75l3.17,7.75h.05l3.19-7.75h1.74v9.39h-1.16v-6.05q0-1,.1-2.26h-.05l-3.42,8.31Z"/><path class="cls-4" d="M289.87,355.14l-3.39-8.33h-.05q.1,1,.1,2.35v6h-1.07v-9.39h1.75l3.17,7.75h.05l3.19-7.75h1.74v9.39h-1.16v-6.05q0-1,.1-2.26h-.05l-3.42,8.31Z"/><path class="cls-4" d="M303.94,355.14h-5.57v-9.39h5.57v1h-4.41v3h4.14v1h-4.14v3.46h4.41Z"/><path class="cls-4" d="M312.07,352.64a2.25,2.25,0,0,1-1,1.93,4.34,4.34,0,0,1-2.6.69,6.87,6.87,0,0,1-2.73-.43v-1.05a7.79,7.79,0,0,0,2.78.53,3,3,0,0,0,1.75-.41,1.33,1.33,0,0,0,.59-1.15,1.41,1.41,0,0,0-.21-.8,1.9,1.9,0,0,0-.7-.58,10,10,0,0,0-1.49-.6,4.8,4.8,0,0,1-2-1.11,2.36,2.36,0,0,1-.6-1.68,2,2,0,0,1,.87-1.73,3.77,3.77,0,0,1,2.3-.64,7.14,7.14,0,0,1,2.74.51l-.36,1a6.54,6.54,0,0,0-2.41-.49,2.44,2.44,0,0,0-1.44.37,1.2,1.2,0,0,0-.52,1,1.5,1.5,0,0,0,.19.8,1.76,1.76,0,0,0,.65.57,8.35,8.35,0,0,0,1.39.58,5.59,5.59,0,0,1,2.16,1.13A2.14,2.14,0,0,1,312.07,352.64Z"/><path class="cls-4" d="M324.59,355.14l-1.24-3h-4l-1.23,3h-1.18l4-9.43h1l3.93,9.43Zm-1.61-4-1.16-2.91q-.23-.55-.46-1.36a11.77,11.77,0,0,1-.43,1.36l-1.18,2.91Z"/><path class="cls-4" d="M335.43,350.35a4.58,4.58,0,0,1-1.34,3.56,5.52,5.52,0,0,1-3.87,1.23h-2.77v-9.39h3.06a5.09,5.09,0,0,1,3.62,1.21A4.43,4.43,0,0,1,335.43,350.35Zm-1.23,0a3.65,3.65,0,0,0-1-2.77,4.09,4.09,0,0,0-2.92-.93h-1.69v7.5H330a4.48,4.48,0,0,0,3.12-1A3.67,3.67,0,0,0,334.2,350.39Z"/><path class="cls-4" d="M342.36,355.14,339,346.81h-.05q.1,1,.1,2.35v6h-1.07v-9.39h1.75l3.17,7.75h.05l3.19-7.75h1.74v9.39h-1.16v-6.05q0-1,.1-2.26h-.05l-3.42,8.31Z"/><path class="cls-4" d="M350.86,355.14v-9.39H352v9.39Z"/><path class="cls-4" d="M360.68,352.64a2.25,2.25,0,0,1-1,1.93,4.34,4.34,0,0,1-2.6.69,6.87,6.87,0,0,1-2.73-.43v-1.05a7.79,7.79,0,0,0,2.78.53,3,3,0,0,0,1.75-.41,1.33,1.33,0,0,0,.59-1.15,1.41,1.41,0,0,0-.21-.8,1.9,1.9,0,0,0-.7-.58,10,10,0,0,0-1.49-.6,4.8,4.8,0,0,1-2-1.11,2.36,2.36,0,0,1-.6-1.68,2,2,0,0,1,.87-1.73,3.77,3.77,0,0,1,2.3-.64,7.14,7.14,0,0,1,2.74.51l-.36,1a6.54,6.54,0,0,0-2.41-.49,2.44,2.44,0,0,0-1.44.37,1.2,1.2,0,0,0-.52,1,1.5,1.5,0,0,0,.19.8,1.76,1.76,0,0,0,.65.57,8.35,8.35,0,0,0,1.39.58,5.59,5.59,0,0,1,2.16,1.13A2.14,2.14,0,0,1,360.68,352.64Z"/><path class="cls-4" d="M368.64,352.64a2.25,2.25,0,0,1-1,1.93,4.34,4.34,0,0,1-2.6.69,6.87,6.87,0,0,1-2.73-.43v-1.05a7.79,7.79,0,0,0,2.78.53,3,3,0,0,0,1.75-.41,1.33,1.33,0,0,0,.59-1.15,1.41,1.41,0,0,0-.21-.8,1.9,1.9,0,0,0-.7-.58,10,10,0,0,0-1.49-.6,4.8,4.8,0,0,1-2-1.11,2.36,2.36,0,0,1-.6-1.68,2,2,0,0,1,.87-1.73,3.77,3.77,0,0,1,2.3-.64,7.14,7.14,0,0,1,2.74.51l-.36,1a6.54,6.54,0,0,0-2.41-.49,2.44,2.44,0,0,0-1.44.37,1.2,1.2,0,0,0-.52,1,1.5,1.5,0,0,0,.19.8,1.76,1.76,0,0,0,.65.57,8.35,8.35,0,0,0,1.39.58,5.59,5.59,0,0,1,2.16,1.13A2.14,2.14,0,0,1,368.64,352.64Z"/><path class="cls-4" d="M371,355.14v-9.39h1.16v9.39Z"/><path class="cls-4" d="M383.82,350.43a5,5,0,0,1-1.21,3.55,4.41,4.41,0,0,1-3.37,1.29,4.46,4.46,0,0,1-3.41-1.27,5,5,0,0,1-1.2-3.58,5,5,0,0,1,1.2-3.56,4.5,4.5,0,0,1,3.42-1.26,4.4,4.4,0,0,1,3.36,1.29A5,5,0,0,1,383.82,350.43Zm-8,0a4.27,4.27,0,0,0,.86,2.89,3.69,3.69,0,0,0,5,0,5.35,5.35,0,0,0,0-5.77,3.12,3.12,0,0,0-2.5-1,3.18,3.18,0,0,0-2.53,1A4.23,4.23,0,0,0,375.86,350.43Z"/><path class="cls-4" d="M394.14,355.14h-1.33l-5.46-7.88h-.05q.11,1.39.11,2.54v5.34h-1.07v-9.39h1.31l5.45,7.85h.05q0-.17-.06-1.12t0-1.35v-5.39h1.09Z"/><path class="cls-4" d="M402.81,352.64a2.25,2.25,0,0,1-1,1.93,4.34,4.34,0,0,1-2.6.69,6.87,6.87,0,0,1-2.73-.43v-1.05a7.79,7.79,0,0,0,2.78.53,3,3,0,0,0,1.75-.41,1.33,1.33,0,0,0,.59-1.15,1.41,1.41,0,0,0-.21-.8,1.9,1.9,0,0,0-.7-.58,10,10,0,0,0-1.49-.6,4.8,4.8,0,0,1-2-1.11,2.36,2.36,0,0,1-.6-1.68,2,2,0,0,1,.87-1.73,3.77,3.77,0,0,1,2.3-.64,7.14,7.14,0,0,1,2.74.51l-.36,1a6.54,6.54,0,0,0-2.41-.49,2.44,2.44,0,0,0-1.44.37,1.2,1.2,0,0,0-.52,1,1.5,1.5,0,0,0,.19.8,1.76,1.76,0,0,0,.65.57,8.35,8.35,0,0,0,1.39.58,5.59,5.59,0,0,1,2.16,1.13A2.14,2.14,0,0,1,402.81,352.64Z"/><path class="cls-4" d="M414.69,352.64a2.25,2.25,0,0,1-1,1.93,4.34,4.34,0,0,1-2.6.69,6.87,6.87,0,0,1-2.73-.43v-1.05a7.79,7.79,0,0,0,2.78.53,3,3,0,0,0,1.75-.41,1.33,1.33,0,0,0,.59-1.15,1.41,1.41,0,0,0-.21-.8,1.9,1.9,0,0,0-.7-.58,10,10,0,0,0-1.49-.6,4.8,4.8,0,0,1-2-1.11,2.36,2.36,0,0,1-.6-1.68,2,2,0,0,1,.87-1.73,3.77,3.77,0,0,1,2.3-.64,7.14,7.14,0,0,1,2.74.51l-.36,1a6.54,6.54,0,0,0-2.41-.49,2.44,2.44,0,0,0-1.44.37,1.2,1.2,0,0,0-.52,1,1.5,1.5,0,0,0,.19.8,1.76,1.76,0,0,0,.65.57,8.35,8.35,0,0,0,1.39.58,5.59,5.59,0,0,1,2.16,1.13A2.14,2.14,0,0,1,414.69,352.64Z"/><path class="cls-4" d="M419.55,350.44l2.67-4.7h1.26l-3.34,5.75v3.64H419v-3.59l-3.33-5.8h1.27Z"/><path class="cls-4" d="M430.77,352.64a2.25,2.25,0,0,1-1,1.93,4.34,4.34,0,0,1-2.6.69,6.87,6.87,0,0,1-2.73-.43v-1.05a7.79,7.79,0,0,0,2.78.53,3,3,0,0,0,1.75-.41,1.33,1.33,0,0,0,.59-1.15,1.41,1.41,0,0,0-.21-.8,1.9,1.9,0,0,0-.7-.58,10,10,0,0,0-1.49-.6,4.8,4.8,0,0,1-2-1.11,2.36,2.36,0,0,1-.6-1.68,2,2,0,0,1,.87-1.73,3.77,3.77,0,0,1,2.3-.64,7.14,7.14,0,0,1,2.74.51l-.36,1a6.54,6.54,0,0,0-2.41-.49,2.44,2.44,0,0,0-1.44.37,1.2,1.2,0,0,0-.52,1,1.5,1.5,0,0,0,.19.8,1.76,1.76,0,0,0,.65.57,8.35,8.35,0,0,0,1.39.58,5.59,5.59,0,0,1,2.16,1.13A2.14,2.14,0,0,1,430.77,352.64Z"/><path class="cls-4" d="M436.17,355.14H435v-8.42h-3.17v-1h7.49v1h-3.17Z"/><path class="cls-4" d="M446.69,355.14h-5.57v-9.39h5.57v1h-4.41v3h4.14v1h-4.14v3.46h4.41Z"/><path class="cls-4" d="M453.61,355.14l-3.39-8.33h-.05q.1,1,.1,2.35v6h-1.07v-9.39h1.75l3.17,7.75h.05l3.19-7.75h1.74v9.39h-1.16v-6.05q0-1,.1-2.26H458l-3.42,8.31Z"/><path class="cls-4" d="M464.31,351.53a9.17,9.17,0,0,1-.53,3.15,7.44,7.44,0,0,1-1.53,2.54h-1.09a9.05,9.05,0,0,0,1.46-2.68,9.25,9.25,0,0,0,.51-3,9.56,9.56,0,0,0-.5-3.05,8.86,8.86,0,0,0-1.48-2.72h1.11a7.75,7.75,0,0,1,1.53,2.61A9.46,9.46,0,0,1,464.31,351.53Z"/><path class="cls-1" d="M59.87,274.13H56.77v5H51.46v-5h-11v-3.55L51.76,255h5v15.19h3.09Zm-8.4-4v-4.1q0-1,.09-3t.14-2.26h-.14A18.15,18.15,0,0,1,50,263.47l-4.71,6.69Z"/><path class="cls-1" d="M58.87,328.13H55.77v5H50.46v-5h-11v-3.55L50.76,309h5v15.19h3.09Zm-8.4-4v-4.1q0-1,.09-3t.14-2.26h-.14A18.15,18.15,0,0,1,49,317.47l-4.71,6.69Z"/><line class="cls-5" x1="4" y1="0.01" x2="2.5" y2="368.01"/></g></g></svg>