<svg xmlns="http://www.w3.org/2000/svg" width="100px" height="100px" viewBox="0 0 78.71 82.29"><defs><style>.cls-1{opacity:0.16;}.cls-2{fill:#e9572b;}</style></defs><title>Asset 1</title><g id="Layer_2" data-name="Layer 2"><g id="Layer_1-2" data-name="Layer 1"><g class="cls-1"><path class="cls-2" d="M78.71,41.07V30.75a3.88,3.88,0,0,0-3.87-3.87H73.55V25.58a1.29,1.29,0,0,0-1.29-1.29H67.09a1.29,1.29,0,0,0-1.29,1.29V72.05a1.29,1.29,0,0,0,.38.91l2.58,2.58a1.29,1.29,0,0,0,1.83,0L73.17,73a1.29,1.29,0,0,0,.38-.91V29.45h1.29a1.29,1.29,0,0,1,1.29,1.29v10L75,43.08a1.29,1.29,0,0,0,0,1.16l1.16,2.31v3.57h2.58V46.24a1.29,1.29,0,0,0-.14-.58l-1-2,1-2A1.28,1.28,0,0,0,78.71,41.07ZM71,26.87V47.53H68.38V26.87ZM69.68,72.81l-1.29-1.29V50.11H71V71.52Z"/><path class="cls-2" d="M54,5.15H42.15a3.79,3.79,0,0,0-3.58-2.58H34.64a6.31,6.31,0,0,0-10.17,0H20.53a3.79,3.79,0,0,0-3.58,2.58H5.07A5.08,5.08,0,0,0,0,10.22v67a5.08,5.08,0,0,0,5.07,5.07H54a5.08,5.08,0,0,0,5.07-5.07v-67A5.08,5.08,0,0,0,54,5.15ZM19.16,6.36h0A1.37,1.37,0,0,1,20.53,5h4.58a1.21,1.21,0,0,0,1-.6,3.91,3.91,0,0,1,6.79,0A1.21,1.21,0,0,0,34,5h4.58a1.37,1.37,0,0,1,1.37,1.37v3.95H19.16ZM56.69,77.22A2.66,2.66,0,0,1,54,79.88h-49a2.66,2.66,0,0,1-2.66-2.66v-67A2.66,2.66,0,0,1,5.07,7.56H16.75v3.95A1.21,1.21,0,0,0,18,12.72H41.15a1.21,1.21,0,0,0,1.21-1.21V7.56H54a2.66,2.66,0,0,1,2.66,2.66Z"/><path class="cls-2" d="M29.56,5.15h0a1.21,1.21,0,1,0,1.22,1.21A1.2,1.2,0,0,0,29.55,5.15Z"/><path class="cls-2" d="M52.74,10.31H46.3a1.21,1.21,0,1,0,0,2.41h5.24V72.15h-44V12.72H12.8a1.21,1.21,0,1,0,0-2.41H6.36a1.21,1.21,0,0,0-1.21,1.21V73.36a1.21,1.21,0,0,0,1.21,1.21H52.74a1.21,1.21,0,0,0,1.21-1.21V11.51A1.21,1.21,0,0,0,52.74,10.31Z"/><path class="cls-2" d="M16.67,36.08a3.78,3.78,0,1,0,3.78,3.78A3.79,3.79,0,0,0,16.67,36.08Zm0,5.15A1.37,1.37,0,1,1,18,39.86,1.37,1.37,0,0,1,16.67,41.23Z"/><path class="cls-2" d="M16.67,47.67a3.78,3.78,0,1,0,3.78,3.78A3.79,3.79,0,0,0,16.67,47.67Zm0,5.15A1.37,1.37,0,1,1,18,51.45,1.37,1.37,0,0,1,16.67,52.83Z"/><path class="cls-2" d="M16.67,59.27a3.78,3.78,0,1,0,3.78,3.78A3.79,3.79,0,0,0,16.67,59.27Zm0,5.15A1.37,1.37,0,1,1,18,63.05,1.37,1.37,0,0,1,16.67,64.42Z"/><path class="cls-2" d="M36,36.08H24.4a1.21,1.21,0,1,0,0,2.41H36a1.21,1.21,0,1,0,0-2.41Z"/><path class="cls-2" d="M45,41.23H24.4a1.21,1.21,0,1,0,0,2.41H45a1.21,1.21,0,1,0,0-2.41Z"/><path class="cls-2" d="M36,47.67H24.4a1.21,1.21,0,1,0,0,2.41H36a1.21,1.21,0,1,0,0-2.41Z"/><path class="cls-2" d="M45,52.83H24.4a1.21,1.21,0,1,0,0,2.41H45a1.21,1.21,0,1,0,0-2.41Z"/><path class="cls-2" d="M36,59.27H24.4a1.21,1.21,0,1,0,0,2.41H36a1.21,1.21,0,1,0,0-2.41Z"/><path class="cls-2" d="M45,64.42H24.4a1.21,1.21,0,1,0,0,2.41H45a1.21,1.21,0,1,0,0-2.41Z"/><path class="cls-2" d="M45,16.75H24.4a1.21,1.21,0,1,0,0,2.41H45a1.21,1.21,0,0,0,0-2.41Z"/><path class="cls-2" d="M45,28.35H14.09a1.21,1.21,0,1,0,0,2.41H45a1.21,1.21,0,1,0,0-2.41Z"/><path class="cls-2" d="M28.26,21.9H24.4a1.21,1.21,0,1,0,0,2.41h3.87a1.21,1.21,0,0,0,0-2.41Z"/><path class="cls-2" d="M37.28,21.9H33.42a1.21,1.21,0,1,0,0,2.41h3.87a1.21,1.21,0,1,0,0-2.41Z"/><path class="cls-2" d="M19.24,16.75H14.09A1.21,1.21,0,0,0,12.88,18v5.15a1.21,1.21,0,0,0,1.21,1.21h5.15a1.21,1.21,0,0,0,1.21-1.21V18A1.21,1.21,0,0,0,19.24,16.75ZM18,21.9H15.3V19.16H18Z"/></g></g></g></svg>