<svg xmlns="http://www.w3.org/2000/svg" width="100px" height="100px" viewBox="0 0 104.26 78.97"><defs><style>.cls-1{opacity:0.2;}.cls-2{fill:#e9572b;stroke:#fff;stroke-miterlimit:10;stroke-width:0.35px;}</style></defs><title>Asset 4</title><g id="Layer_2" data-name="Layer 2"><g id="Layer_1-2" data-name="Layer 1"><g class="cls-1"><path class="cls-2" d="M82.09,10.63C78.56,8.77,71.93,8.74,71.65,8.74a1.61,1.61,0,0,0,0,3.21c1.71,0,6.67.28,9.08,1.54a1.45,1.45,0,0,0,.68.17,1.52,1.52,0,0,0,1.36-.89A1.64,1.64,0,0,0,82.09,10.63Z"/><path class="cls-2" d="M102.56,58.45H93.37a7,7,0,0,0,1-3.54v-15a6.73,6.73,0,0,0-4.64-6.49L84.19,31.8A1.82,1.82,0,0,1,82.94,30V28.7a11.57,11.57,0,0,0,1.45-1.26,12.11,12.11,0,0,0,3.43-8.53v-3l.61-1.28a10.67,10.67,0,0,0,1-4.55V1.78A1.56,1.56,0,0,0,87.92.17H73.28a9.94,9.94,0,0,0-9.66,10.17v.1a8.88,8.88,0,0,0,.85,3.78l.78,1.64v2.62A12.73,12.73,0,0,0,70.13,28.6V30a1.82,1.82,0,0,1-1.26,1.75l-5.49,1.65a6.73,6.73,0,0,0-4.64,6.49v1.37h-.1a3.24,3.24,0,0,0-3.15,3.32V58.34s0,.07,0,.11H48.77s0-.07,0-.11V44.63a3.24,3.24,0,0,0-3.15-3.32H42.26a6.75,6.75,0,0,0-3.54-6l-3.93-2.07A25.87,25.87,0,0,0,40,31.44a3.38,3.38,0,0,0,1.62-4.2A64.86,64.86,0,0,1,39,13.66C38.49,6,32.94.17,26.1.17S13.71,6,13.19,13.66a64.86,64.86,0,0,1-2.6,13.58,3.38,3.38,0,0,0,1.62,4.2,25.86,25.86,0,0,0,5.18,1.81l-3.93,2.07a6.75,6.75,0,0,0-3.54,6V54.91a7,7,0,0,0,1,3.54H1.7a1.61,1.61,0,0,0,0,3.21H3.43V77.19a1.56,1.56,0,0,0,1.52,1.6,1.56,1.56,0,0,0,1.52-1.6V68.51H97.79v8.68a1.52,1.52,0,1,0,3,0V61.65h1.73a1.61,1.61,0,0,0,0-3.21Zm-34.27-40v-3a1.67,1.67,0,0,0-.16-.72l-.94-2a5.51,5.51,0,0,1-.53-2.35v-.1a6.8,6.8,0,0,1,6.61-7H86.4V10a7.31,7.31,0,0,1-.7,3.12l-.77,1.62a1.67,1.67,0,0,0-.16.72v3.43a8.84,8.84,0,0,1-2.5,6.23,8,8,0,0,1-6,2.45C71.88,27.45,68.29,23.37,68.29,18.49Zm11.86,13.2L78.91,33a3.24,3.24,0,0,1-4.75,0l-1.25-1.32a5.22,5.22,0,0,0,.26-1.45,10.19,10.19,0,0,0,3,.56h.35a10.78,10.78,0,0,0,3.36-.54A5.23,5.23,0,0,0,80.16,31.68ZM61.79,39.93h0a3.53,3.53,0,0,1,2.44-3.4l5.49-1.65A4.61,4.61,0,0,0,71,34.24l1,1a6.18,6.18,0,0,0,9.05,0l1-1a4.62,4.62,0,0,0,1.32.64l5.49,1.65a3.53,3.53,0,0,1,2.44,3.4v15a3.46,3.46,0,0,1-3.36,3.54H81.3s0-.07,0-.11V54.8h5a1.56,1.56,0,0,0,1.52-1.6V42.91a1.52,1.52,0,1,0-3,0v8.68H81.31v-7a3.24,3.24,0,0,0-3.15-3.32H61.79Zm-3.25,4.69a.11.11,0,0,1,.1-.11H78.16a.11.11,0,0,1,.1.11V58.34a.11.11,0,0,1-.1.11H58.64a.11.11,0,0,1-.1-.11Zm-12.91-.11a.11.11,0,0,1,.1.11V58.34a.11.11,0,0,1-.1.11H26.1a.11.11,0,0,1-.1-.11V44.63a.11.11,0,0,1,.1-.11ZM38.75,28.36s0,.13,0,.17a24.3,24.3,0,0,1-6.2,1.94V28.71a11.87,11.87,0,0,0,4.56-7A48.87,48.87,0,0,0,38.75,28.36ZM16.23,13.89a12.22,12.22,0,0,1,3.08-7.47,9.12,9.12,0,0,1,13.59,0A12.21,12.21,0,0,1,36,13.89c.07,1,.21,2.34.42,3.81a13.67,13.67,0,0,0-7.8-6.27,18.16,18.16,0,0,0-5.79-1,1.49,1.49,0,0,0-1.05.49l-2.75,3a1.66,1.66,0,0,0,0,2.27,1.47,1.47,0,0,0,2.15,0l2.28-2.49a16,16,0,0,1,4.26.83,10.36,10.36,0,0,1,6.49,5.76A8.36,8.36,0,0,1,26.1,27.6a8.48,8.48,0,0,1-8.24-8.68,1.56,1.56,0,0,0-1.52-1.6,1.45,1.45,0,0,0-.49.09C16,16,16.17,14.83,16.23,13.89Zm13.6,19.65L28.41,35a3.23,3.23,0,0,1-4.63,0l-1.41-1.42A3.46,3.46,0,0,0,22.74,32V30.27a10.77,10.77,0,0,0,6.72,0V32A3.46,3.46,0,0,0,29.83,33.54Zm-16.33-5c-.08,0-.05-.14,0-.17a48.88,48.88,0,0,0,1.69-6.63,11.94,11.94,0,0,0,4.56,7v1.77A24.29,24.29,0,0,1,13.49,28.52ZM13,41.35a3.54,3.54,0,0,1,1.86-3.16l5.08-2.68,1.77,1.77a6.17,6.17,0,0,0,8.82,0l1.77-1.77,5.08,2.68a3.54,3.54,0,0,1,1.86,3.12H26.1A3.24,3.24,0,0,0,23,44.63v7H19.49V45a1.52,1.52,0,1,0-3,0V53.2A1.56,1.56,0,0,0,18,54.8h5v3.54s0,.07,0,.11H16.34A3.46,3.46,0,0,1,13,54.91Zm84.81,24H6.47V61.65H97.79V65.3Z"/><path class="cls-2" d="M37.49,49.88H34.23a1.61,1.61,0,0,0,0,3.21h3.25a1.61,1.61,0,0,0,0-3.21Z"/><path class="cls-2" d="M68.41,49.88h0a1.61,1.61,0,1,0,1.54,1.6A1.56,1.56,0,0,0,68.39,49.88Z"/></g></g></g></svg>