<svg xmlns="http://www.w3.org/2000/svg" width="100px" height="100px" viewBox="0 0 77.49 74.71"><defs><style>.cls-1{opacity:0.2;}.cls-2{fill:#e9572b;}</style></defs><title>Asset 3</title><g id="Layer_2" data-name="Layer 2"><g id="Layer_1-2" data-name="Layer 1"><g class="cls-1"><path class="cls-2" d="M69.08,4.85H54.52a1.14,1.14,0,1,0,0,2.27H69.08a1.14,1.14,0,0,0,0-2.27Z"/><path class="cls-2" d="M49.67,4.85H44.81a1.14,1.14,0,1,0,0,2.27h4.85a1.14,1.14,0,1,0,0-2.27Z"/><path class="cls-2" d="M69.08,9.71H66.65a1.14,1.14,0,1,0,0,2.27h2.43a1.14,1.14,0,1,0,0-2.27Z"/><path class="cls-2" d="M61.8,9.71h-17a1.14,1.14,0,0,0,0,2.27h17a1.14,1.14,0,1,0,0-2.27Z"/><path class="cls-2" d="M72.72,0H41.17A4.78,4.78,0,0,0,36.4,4.77v7.28a4.78,4.78,0,0,0,4.78,4.78h19l7,5.24a2.35,2.35,0,0,0,3.73-2.26l-.5-3h2.3a4.78,4.78,0,0,0,4.78-4.78V4.78A4.78,4.78,0,0,0,72.72,0Zm2.5,12.05h0a2.51,2.51,0,0,1-2.5,2.5H69.08A1.14,1.14,0,0,0,68,15.88l.72,4.29a.08.08,0,0,1-.12.08l-7.28-5.46a1.13,1.13,0,0,0-.68-.23H41.17a2.51,2.51,0,0,1-2.5-2.5V4.78a2.51,2.51,0,0,1,2.5-2.5H72.72a2.51,2.51,0,0,1,2.5,2.5v7.28Z"/><path class="cls-2" d="M23,57H8.41a1.14,1.14,0,1,0,0,2.27H23A1.14,1.14,0,1,0,23,57Z"/><path class="cls-2" d="M30.25,57H27.83a1.14,1.14,0,1,0,0,2.27h2.43a1.14,1.14,0,1,0,0-2.27Z"/><path class="cls-2" d="M10.84,61.88H8.41a1.14,1.14,0,0,0,0,2.27h2.43a1.14,1.14,0,0,0,0-2.27Z"/><path class="cls-2" d="M30.25,61.88H15.69a1.14,1.14,0,0,0,0,2.27H30.25a1.14,1.14,0,0,0,0-2.27Z"/><path class="cls-2" d="M33.89,52.17H4.78A4.78,4.78,0,0,0,0,56.95v7.28A4.78,4.78,0,0,0,4.78,69h2.3l-.5,3a2.35,2.35,0,0,0,3.73,2.26l7-5.24H33.89a4.78,4.78,0,0,0,4.77-4.77V56.95A4.78,4.78,0,0,0,33.89,52.17Zm2.5,12.05h0a2.51,2.51,0,0,1-2.5,2.5h-17a1.13,1.13,0,0,0-.68.23L8.94,72.42a.08.08,0,0,1-.12-.08l.72-4.29a1.14,1.14,0,0,0-1.12-1.32H4.78a2.51,2.51,0,0,1-2.5-2.5V56.95a2.51,2.51,0,0,1,2.5-2.5H33.89a2.51,2.51,0,0,1,2.5,2.5Z"/><path class="cls-2" d="M69.08,46.1H56.95a1.14,1.14,0,0,0,0,2.27H69.08a1.14,1.14,0,1,0,0-2.27Z"/><path class="cls-2" d="M52.09,46.1H49.67a1.14,1.14,0,1,0,0,2.27h2.43a1.14,1.14,0,1,0,0-2.27Z"/><path class="cls-2" d="M72.72,41.25H46A4.78,4.78,0,0,0,41.25,46v2.43A4.78,4.78,0,0,0,46,53.23H60.21l7,5.24a2.35,2.35,0,0,0,3.73-2.26l-.5-3h2.3a4.78,4.78,0,0,0,4.78-4.78V46A4.78,4.78,0,0,0,72.72,41.25Zm2.5,7.2a2.51,2.51,0,0,1-2.5,2.5H69.08A1.14,1.14,0,0,0,68,52.28l.72,4.29a.08.08,0,0,1-.12.08l-7.28-5.46a1.13,1.13,0,0,0-.68-.23H46a2.51,2.51,0,0,1-2.5-2.5V46a2.51,2.51,0,0,1,2.5-2.5H72.72a2.51,2.51,0,0,1,2.5,2.5Z"/><path class="cls-2" d="M23,24.27H8.41a1.14,1.14,0,1,0,0,2.27H23a1.14,1.14,0,1,0,0-2.27Z"/><path class="cls-2" d="M32.68,24.27H27.83a1.14,1.14,0,1,0,0,2.27h4.85a1.14,1.14,0,0,0,0-2.27Z"/><path class="cls-2" d="M23,34H8.41a1.14,1.14,0,0,0,0,2.27H23A1.14,1.14,0,1,0,23,34Z"/><path class="cls-2" d="M32.68,34H27.83a1.14,1.14,0,0,0,0,2.27h4.85a1.14,1.14,0,0,0,0-2.27Z"/><path class="cls-2" d="M10.84,29.12H8.41a1.14,1.14,0,0,0,0,2.27h2.43a1.14,1.14,0,0,0,0-2.27Z"/><path class="cls-2" d="M32.68,29.12h-17a1.14,1.14,0,1,0,0,2.27h17a1.14,1.14,0,0,0,0-2.27Z"/><path class="cls-2" d="M36.32,19.41H4.78A4.78,4.78,0,0,0,0,24.19V36.32A4.78,4.78,0,0,0,4.78,41.1h2.3l-.5,3a2.35,2.35,0,0,0,3.73,2.26l7-5.24h19a4.78,4.78,0,0,0,4.78-4.77V24.19A4.78,4.78,0,0,0,36.32,19.41Zm2.5,16.91a2.51,2.51,0,0,1-2.5,2.5H16.91a1.13,1.13,0,0,0-.68.23L8.94,44.51a.08.08,0,0,1-.12-.08l.72-4.29a1.14,1.14,0,0,0-1.12-1.32H4.78a2.51,2.51,0,0,1-2.5-2.5V24.19a2.51,2.51,0,0,1,2.5-2.5H36.32a2.51,2.51,0,0,1,2.5,2.5Z"/></g></g></g></svg>